<?xml version="1.0" standalone="no"?>
 <!DOCTYPE svg PUBLIC "-//W3C//DTD SVG 1.1//EN" 
 "http://www.w3.org/Graphics/SVG/1.1/DTD/svg11.dtd"> 
<svg xmlns="http://www.w3.org/2000/svg" version="1.1" 
    width="41.9989cm" height="29.7002cm" viewBox="0 0 165350 116930 ">
<title>SVG Picture created as ErgoDOX-Edge.Cuts.svg date 2019/01/07 11:23:58 </title>
  <desc>Picture generated by PCBNEW </desc>
<g style="fill:#000000; fill-opacity:1;stroke:#000000; stroke-opacity:1;
stroke-linecap:round; stroke-linejoin:round; "
 transform="translate(0 0) scale(1 1)">
</g>
<g style="fill:#000000; fill-opacity:0.0; 
stroke:#000000; stroke-width:-0.000393701; stroke-opacity:1; 
stroke-linecap:round; stroke-linejoin:round;">
</g>
<g style="fill:#000000; fill-opacity:0.0; 
stroke:#000000; stroke-width:150; stroke-opacity:1; 
stroke-linecap:round; stroke-linejoin:round;">
<path d="M57050 46400
L53450 51500
" />
<path d="M54650 52550
L59100 47350
" />
<path d="M57050 46400
L52300 44100
" />
<path d="M64300 49850
L59100 47350
" />
<path d="M57321 54936
L54650 52550
" />
<path d="M53450 51500
L51500 49800
" />
</g>
<g style="fill:#000000; fill-opacity:0.0; 
stroke:#000000; stroke-width:120; stroke-opacity:1; 
stroke-linecap:round; stroke-linejoin:round;">
<path d="M66850 51050
L66800 54900
" />
<path d="M64550 54900
L64300 49850
" />
<path d="M52300 44100
L51500 49800
" />
<path d="M49750 48250
L50650 43300
" />
</g>
<g style="fill:#000000; fill-opacity:0.0; 
stroke:#000000; stroke-width:150; stroke-opacity:1; 
stroke-linecap:round; stroke-linejoin:round;">
<path d="M64550 54900
L57321 54936
" />
<path d="M69600 54900
L66800 54900
" />
<path d="M69300 52250
L66850 51050
" />
<path d="M50650 43300
L45300 40750
" />
<path d="M49750 48250
L48300 46950
" />
<path d="M28150 39450
L28500 32750
" />
</g>
<g style="fill:#000000; fill-opacity:0.0; 
stroke:#000000; stroke-width:120; stroke-opacity:1; 
stroke-linecap:round; stroke-linejoin:round;">
<path d="M26200 38550
L26700 32750
" />
</g>
<g style="fill:#000000; fill-opacity:0.0; 
stroke:#000000; stroke-width:150; stroke-opacity:1; 
stroke-linecap:round; stroke-linejoin:round;">
<path d="M31550 32750
L28500 32750
" />
<path d="M26700 32750
L23400 32750
" />
<path d="M26200 38550
L22000 36500
" />
<path d="M33900 42400
L37700 38250
" />
<path d="M35750 36500
L31550 41150
" />
<path d="M43550 46950
L33900 42400
" />
<path d="M31550 41150
L28150 39450
" />
<path d="M40535 40748
L37700 38250
" />
<path d="M44100 40750
L46500 46950
" />
<path d="M44150 46950
L41600 40750
" />
<path d="M44100 40750
L45300 40750
" />
</g>
<g style="fill:#000000; fill-opacity:0.0; 
stroke:#000000; stroke-width:120; stroke-opacity:1; 
stroke-linecap:round; stroke-linejoin:round;">
<path d="M48300 46950
L46500 46950
" />
</g>
<g style="fill:#000000; fill-opacity:0.0; 
stroke:#000000; stroke-width:150; stroke-opacity:1; 
stroke-linecap:round; stroke-linejoin:round;">
<path d="M22000 36500
L23400 32750
" />
<path d="M20900 32750
L19550 35450
" />
</g>
<g style="fill:#000000; fill-opacity:0.0; 
stroke:#000000; stroke-width:120; stroke-opacity:1; 
stroke-linecap:round; stroke-linejoin:round;">
<path d="M20900 32750
L13600 32750
" />
</g>
<g style="fill:#000000; fill-opacity:0.0; 
stroke:#000000; stroke-width:150; stroke-opacity:1; 
stroke-linecap:round; stroke-linejoin:round;">
<path d="M71500 52200
L71791 51501
" />
</g>
<g style="fill:#000000; fill-opacity:0.0; 
stroke:#000000; stroke-width:120; stroke-opacity:1; 
stroke-linecap:round; stroke-linejoin:round;">
<path d="M68535 11248
L68535 26748
" />
</g>
<g style="fill:#000000; fill-opacity:0.0; 
stroke:#000000; stroke-width:150; stroke-opacity:1; 
stroke-linecap:round; stroke-linejoin:round;">
<path d="M31785 9498
L38535 9498
" />
<path d="M79285 31998
L79785 34248
" />
<path d="M39285 8748
L45285 8748
" />
<path d="M46035 9498
L52785 9498
" />
<path d="M67535 10248
L68535 11248
" />
<path d="M53535 10248
L67535 10248
" />
<path d="M13285 10248
L31035 10248
" />
<path d="M13600 32750
L12285 31498
" />
<path d="M41600 40750
L40535 40748
" />
<path d="M31035 10248
L31785 9498
" />
<path d="M79785 34248
L71785 51498
" />
<path d="M52785 9498
L53535 10248
" />
</g>
<g style="fill:#000000; fill-opacity:0.0; 
stroke:#000000; stroke-width:120; stroke-opacity:1; 
stroke-linecap:round; stroke-linejoin:round;">
<path d="M79285 31998
L68535 26748
" />
</g>
<g style="fill:#000000; fill-opacity:0.0; 
stroke:#000000; stroke-width:150; stroke-opacity:1; 
stroke-linecap:round; stroke-linejoin:round;">
<path d="M45285 8748
L46035 9498
" />
<path d="M12285 11248
L13285 10248
" />
<path d="M38535 9498
L39285 8748
" />
<path d="M12285 31498
L12285 11248
" />
<path d="M69300 52250
L69600 54900
" />
<path d="M72000 54900
L71500 52200
" />
<path d="M72000 54900
L75291 54901
" />
<path d="M35750 36500
L31550 32750
" />
</g>
<g style="fill:#000000; fill-opacity:0.0; 
stroke:#000000; stroke-width:120; stroke-opacity:1; 
stroke-linecap:round; stroke-linejoin:round;">
<path d="M20341 76451
L20341 60951
" />
</g>
<g style="fill:#000000; fill-opacity:0.0; 
stroke:#000000; stroke-width:150; stroke-opacity:1; 
stroke-linecap:round; stroke-linejoin:round;">
<path d="M57821 77436
L57071 78186
" />
<path d="M49571 78936
L43571 78936
" />
<path d="M43571 78936
L42821 78186
" />
<path d="M42821 78186
L36071 78186
" />
<path d="M75571 77436
L76571 76436
" />
<path d="M57071 78186
L50321 78186
" />
<path d="M19550 35450
L17091 36151
" />
</g>
<g style="fill:#000000; fill-opacity:0.0; 
stroke:#000000; stroke-width:120; stroke-opacity:1; 
stroke-linecap:round; stroke-linejoin:round;">
<path d="M20341 60951
L9541 55651
" />
</g>
<g style="fill:#000000; fill-opacity:0.0; 
stroke:#000000; stroke-width:150; stroke-opacity:1; 
stroke-linecap:round; stroke-linejoin:round;">
<path d="M75571 77436
L57821 77436
" />
</g>
<g style="fill:#000000; fill-opacity:0.0; 
stroke:#000000; stroke-width:120; stroke-opacity:1; 
stroke-linecap:round; stroke-linejoin:round;">
<path d="M21341 77451
L20341 76451
" />
</g>
<g style="fill:#000000; fill-opacity:0.0; 
stroke:#000000; stroke-width:150; stroke-opacity:1; 
stroke-linecap:round; stroke-linejoin:round;">
<path d="M50321 78186
L49571 78936
" />
<path d="M44150 46950
L43550 46950
" />
<path d="M76571 56186
L75291 54901
" />
<path d="M35341 77451
L21341 77451
" />
<path d="M76571 56186
L76571 76436
" />
<path d="M36071 78186
L35341 77451
" />
<path d="M17091 36151
L9091 53451
" />
<path d="M9091 53451
L9541 55651
" />
</g> 
</svg>
