<?xml version="1.0" standalone="no"?>
 <!DOCTYPE svg PUBLIC "-//W3C//DTD SVG 1.1//EN" 
 "http://www.w3.org/Graphics/SVG/1.1/DTD/svg11.dtd"> 
<svg xmlns="http://www.w3.org/2000/svg" version="1.1" 
    width="41.9989cm" height="29.7002cm" viewBox="0 0 165350 116930 ">
<title>SVG Picture created as ErgoDOX-Dwgs.User.svg date 2019/01/07 11:23:57 </title>
  <desc>Picture generated by PCBNEW </desc>
<g style="fill:#000000; fill-opacity:1;stroke:#000000; stroke-opacity:1;
stroke-linecap:round; stroke-linejoin:round; "
 transform="translate(0 0) scale(1 1)">
</g>
<g style="fill:#000000; fill-opacity:0.0; 
stroke:#000000; stroke-width:-0.000393701; stroke-opacity:1; 
stroke-linecap:round; stroke-linejoin:round;">
</g>
<g style="fill:#000000; fill-opacity:0.0; 
stroke:#000000; stroke-width:150; stroke-opacity:1; 
stroke-linecap:round; stroke-linejoin:round;">
<path d="M57050 46400
L53450 51500
" />
<path d="M54650 52550
L59100 47350
" />
<path d="M57050 46400
L52300 44100
" />
<path d="M64300 49850
L59100 47350
" />
<path d="M57321 54936
L54650 52550
" />
<path d="M53450 51500
L51500 49800
" />
</g>
<g style="fill:#000000; fill-opacity:0.0; 
stroke:#000000; stroke-width:120; stroke-opacity:1; 
stroke-linecap:round; stroke-linejoin:round;">
<path d="M66850 51050
L66800 54900
" />
<path d="M64550 54900
L64300 49850
" />
<path d="M52300 44100
L51500 49800
" />
<path d="M49750 48250
L50650 43300
" />
</g>
<g style="fill:#000000; fill-opacity:0.0; 
stroke:#000000; stroke-width:150; stroke-opacity:1; 
stroke-linecap:round; stroke-linejoin:round;">
<path d="M64550 54900
L57321 54936
" />
<path d="M69600 54900
L66800 54900
" />
<path d="M69300 52250
L66850 51050
" />
<path d="M50650 43300
L45300 40750
" />
<path d="M49750 48250
L48300 46950
" />
<path d="M28150 39450
L28500 32750
" />
</g>
<g style="fill:#000000; fill-opacity:0.0; 
stroke:#000000; stroke-width:120; stroke-opacity:1; 
stroke-linecap:round; stroke-linejoin:round;">
<path d="M26200 38550
L26700 32750
" />
</g>
<g style="fill:#000000; fill-opacity:0.0; 
stroke:#000000; stroke-width:150; stroke-opacity:1; 
stroke-linecap:round; stroke-linejoin:round;">
<path d="M31550 32750
L28500 32750
" />
<path d="M26700 32750
L23400 32750
" />
<path d="M26200 38550
L22000 36500
" />
<path d="M33900 42400
L37700 38250
" />
<path d="M35750 36500
L31550 41150
" />
<path d="M43550 46950
L33900 42400
" />
<path d="M31550 41150
L28150 39450
" />
<path d="M40535 40748
L37700 38250
" />
<path d="M44100 40750
L46500 46950
" />
<path d="M44150 46950
L41600 40750
" />
<path d="M44100 40750
L45300 40750
" />
</g>
<g style="fill:#000000; fill-opacity:0.0; 
stroke:#000000; stroke-width:120; stroke-opacity:1; 
stroke-linecap:round; stroke-linejoin:round;">
<path d="M48300 46950
L46500 46950
" />
</g>
<g style="fill:#000000; fill-opacity:0.0; 
stroke:#000000; stroke-width:150; stroke-opacity:1; 
stroke-linecap:round; stroke-linejoin:round;">
<path d="M22000 36500
L23400 32750
" />
<path d="M20900 32750
L19550 35450
" />
</g>
<g style="fill:#000000; fill-opacity:0.0; 
stroke:#000000; stroke-width:120; stroke-opacity:1; 
stroke-linecap:round; stroke-linejoin:round;">
<path d="M20900 32750
L13600 32750
" />
</g>
<g style="fill:#000000; fill-opacity:0.0; 
stroke:#000000; stroke-width:150; stroke-opacity:1; 
stroke-linecap:round; stroke-linejoin:round;">
<path d="M71500 52200
L71791 51501
" />
</g>
<g style="fill:#000000; fill-opacity:0.0; 
stroke:#000000; stroke-width:120; stroke-opacity:1; 
stroke-linecap:round; stroke-linejoin:round;">
<path d="M68535 11248
L68535 26748
" />
</g>
<g style="fill:#000000; fill-opacity:0.0; 
stroke:#000000; stroke-width:150; stroke-opacity:1; 
stroke-linecap:round; stroke-linejoin:round;">
<path d="M31785 9498
L38535 9498
" />
<path d="M79285 31998
L79785 34248
" />
<path d="M39285 8748
L45285 8748
" />
<path d="M46035 9498
L52785 9498
" />
<path d="M67535 10248
L68535 11248
" />
<path d="M53535 10248
L67535 10248
" />
<path d="M13285 10248
L31035 10248
" />
<path d="M13600 32750
L12285 31498
" />
<path d="M41600 40750
L40535 40748
" />
<path d="M31035 10248
L31785 9498
" />
<path d="M79785 34248
L71785 51498
" />
<path d="M52785 9498
L53535 10248
" />
</g>
<g style="fill:#000000; fill-opacity:0.0; 
stroke:#000000; stroke-width:120; stroke-opacity:1; 
stroke-linecap:round; stroke-linejoin:round;">
<path d="M79285 31998
L68535 26748
" />
</g>
<g style="fill:#000000; fill-opacity:0.0; 
stroke:#000000; stroke-width:150; stroke-opacity:1; 
stroke-linecap:round; stroke-linejoin:round;">
<path d="M45285 8748
L46035 9498
" />
<path d="M12285 11248
L13285 10248
" />
<path d="M38535 9498
L39285 8748
" />
<path d="M12285 31498
L12285 11248
" />
<path d="M69300 52250
L69600 54900
" />
<path d="M72000 54900
L71500 52200
" />
<path d="M72000 54900
L75291 54901
" />
<path d="M35750 36500
L31550 32750
" />
</g>
<g style="fill:#000000; fill-opacity:0.0; 
stroke:#000000; stroke-width:120; stroke-opacity:1; 
stroke-linecap:round; stroke-linejoin:round;">
<path d="M20341 76451
L20341 60951
" />
</g>
<g style="fill:#000000; fill-opacity:0.0; 
stroke:#000000; stroke-width:150; stroke-opacity:1; 
stroke-linecap:round; stroke-linejoin:round;">
<path d="M57821 77436
L57071 78186
" />
<path d="M49571 78936
L43571 78936
" />
<path d="M43571 78936
L42821 78186
" />
<path d="M42821 78186
L36071 78186
" />
<path d="M75571 77436
L76571 76436
" />
<path d="M57071 78186
L50321 78186
" />
<path d="M19550 35450
L17091 36151
" />
</g>
<g style="fill:#000000; fill-opacity:0.0; 
stroke:#000000; stroke-width:120; stroke-opacity:1; 
stroke-linecap:round; stroke-linejoin:round;">
<path d="M20341 60951
L9541 55651
" />
</g>
<g style="fill:#000000; fill-opacity:0.0; 
stroke:#000000; stroke-width:150; stroke-opacity:1; 
stroke-linecap:round; stroke-linejoin:round;">
<path d="M75571 77436
L57821 77436
" />
</g>
<g style="fill:#000000; fill-opacity:0.0; 
stroke:#000000; stroke-width:120; stroke-opacity:1; 
stroke-linecap:round; stroke-linejoin:round;">
<path d="M21341 77451
L20341 76451
" />
</g>
<g style="fill:#000000; fill-opacity:0.0; 
stroke:#000000; stroke-width:150; stroke-opacity:1; 
stroke-linecap:round; stroke-linejoin:round;">
<path d="M50321 78186
L49571 78936
" />
<path d="M44150 46950
L43550 46950
" />
<path d="M76571 56186
L75291 54901
" />
<path d="M35341 77451
L21341 77451
" />
<path d="M76571 56186
L76571 76436
" />
<path d="M36071 78186
L35341 77451
" />
<path d="M17091 36151
L9091 53451
" />
<path d="M9091 53451
L9541 55651
" />
</g>
<g style="fill:#000000; fill-opacity:0.0; 
stroke:#000000; stroke-width:59.0551; stroke-opacity:1; 
stroke-linecap:round; stroke-linejoin:round;">
<path d="M57351 42249
L59038 34941
" />
<path d="M50043 40562
L57351 42249
" />
<path d="M51731 33254
L50043 40562
" />
<path d="M59038 34941
L51731 33254
" />
<path d="M57846 35686
L57669 36453
" />
<path d="M57079 35509
L57846 35686
" />
<path d="M56606 41056
L55839 40879
" />
<path d="M56783 40289
L56606 41056
" />
<path d="M51236 39817
L51413 39049
" />
<path d="M52003 39994
L51236 39817
" />
<path d="M52476 34446
L52298 35213
" />
<path d="M53243 34623
L52476 34446
" />
<path d="M21786 25248
L21786 17748
" />
<path d="M14286 25248
L21786 25248
" />
<path d="M14286 17748
L14286 25248
" />
<path d="M21786 17748
L14286 17748
" />
<path d="M20792 18742
L20792 19529
" />
<path d="M20004 18742
L20792 18742
" />
<path d="M20792 24254
L20004 24254
" />
<path d="M20792 23466
L20792 24254
" />
<path d="M15280 24254
L15280 23466
" />
<path d="M16067 24254
L15280 24254
" />
<path d="M15280 18742
L15280 19529
" />
<path d="M16067 18742
L15280 18742
" />
<path d="M46036 16248
L46036 8748
" />
<path d="M38536 16248
L46036 16248
" />
<path d="M38536 8748
L38536 16248
" />
<path d="M46036 8748
L38536 8748
" />
<path d="M45042 9742
L45042 10529
" />
<path d="M44254 9742
L45042 9742
" />
<path d="M45042 15254
L44254 15254
" />
<path d="M45042 14466
L45042 15254
" />
<path d="M39530 15254
L39530 14466
" />
<path d="M40317 15254
L39530 15254
" />
<path d="M39530 9742
L39530 10529
" />
<path d="M40317 9742
L39530 9742
" />
<path d="M53536 16998
L53536 9498
" />
<path d="M46036 16998
L53536 16998
" />
<path d="M46036 9498
L46036 16998
" />
<path d="M53536 9498
L46036 9498
" />
<path d="M52542 10492
L52542 11279
" />
<path d="M51754 10492
L52542 10492
" />
<path d="M52542 16004
L51754 16004
" />
<path d="M52542 15216
L52542 16004
" />
<path d="M47030 16004
L47030 15216
" />
<path d="M47817 16004
L47030 16004
" />
<path d="M47030 10492
L47030 11279
" />
<path d="M47817 10492
L47030 10492
" />
<path d="M61035 17748
L61035 10248
" />
<path d="M53535 17748
L61035 17748
" />
<path d="M53535 10248
L53535 17748
" />
<path d="M61035 10248
L53535 10248
" />
<path d="M60041 11242
L60041 12029
" />
<path d="M59254 11242
L60041 11242
" />
<path d="M60041 16754
L59254 16754
" />
<path d="M60041 15966
L60041 16754
" />
<path d="M54529 16754
L54529 15966
" />
<path d="M55317 16754
L54529 16754
" />
<path d="M54529 11242
L54529 12029
" />
<path d="M55317 11242
L54529 11242
" />
<path d="M38536 16998
L38536 9498
" />
<path d="M31036 16998
L38536 16998
" />
<path d="M31036 9498
L31036 16998
" />
<path d="M38536 9498
L31036 9498
" />
<path d="M37542 10492
L37542 11279
" />
<path d="M36754 10492
L37542 10492
" />
<path d="M37542 16004
L36754 16004
" />
<path d="M37542 15216
L37542 16004
" />
<path d="M32030 16004
L32030 15216
" />
<path d="M32817 16004
L32030 16004
" />
<path d="M32030 10492
L32030 11279
" />
<path d="M32817 10492
L32030 10492
" />
<path d="M68559 25230
L61059 25230
" />
<path d="M61059 25230
L61059 32730
" />
<path d="M61059 32730
L68559 32730
" />
<path d="M68559 32730
L68559 25230
" />
<path d="M68535 25248
L68535 17748
" />
<path d="M61035 25248
L68535 25248
" />
<path d="M61035 17748
L61035 25248
" />
<path d="M68535 17748
L61035 17748
" />
<path d="M67541 18742
L67541 19529
" />
<path d="M66754 18742
L67541 18742
" />
<path d="M67541 24254
L66754 24254
" />
<path d="M67541 23466
L67541 24254
" />
<path d="M62029 24254
L62029 23466
" />
<path d="M62817 24254
L62029 24254
" />
<path d="M62029 18742
L62029 19529
" />
<path d="M62817 18742
L62029 18742
" />
<path d="M31041 17751
L31041 10251
" />
<path d="M23541 17751
L31041 17751
" />
<path d="M23541 10251
L23541 17751
" />
<path d="M31041 10251
L23541 10251
" />
<path d="M30047 11245
L30047 12033
" />
<path d="M29259 11245
L30047 11245
" />
<path d="M30047 16757
L29259 16757
" />
<path d="M30047 15970
L30047 16757
" />
<path d="M24535 16757
L24535 15970
" />
<path d="M25322 16757
L24535 16757
" />
<path d="M24535 11245
L24535 12033
" />
<path d="M25322 11245
L24535 11245
" />
<path d="M21786 17748
L21786 10248
" />
<path d="M14286 17748
L21786 17748
" />
<path d="M14286 10248
L14286 17748
" />
<path d="M21786 10248
L14286 10248
" />
<path d="M20792 11242
L20792 12029
" />
<path d="M20004 11242
L20792 11242
" />
<path d="M20792 16754
L20004 16754
" />
<path d="M20792 15966
L20792 16754
" />
<path d="M15280 16754
L15280 15966
" />
<path d="M16067 16754
L15280 16754
" />
<path d="M15280 11242
L15280 12029
" />
<path d="M16067 11242
L15280 11242
" />
<path d="M61035 25248
L61035 17748
" />
<path d="M53535 25248
L61035 25248
" />
<path d="M53535 17748
L53535 25248
" />
<path d="M61035 17748
L53535 17748
" />
<path d="M60041 18742
L60041 19529
" />
<path d="M59254 18742
L60041 18742
" />
<path d="M60041 24254
L59254 24254
" />
<path d="M60041 23466
L60041 24254
" />
<path d="M54529 24254
L54529 23466
" />
<path d="M55317 24254
L54529 24254
" />
<path d="M54529 18742
L54529 19529
" />
<path d="M55317 18742
L54529 18742
" />
<path d="M53536 24498
L53536 16998
" />
<path d="M46036 24498
L53536 24498
" />
<path d="M46036 16998
L46036 24498
" />
<path d="M53536 16998
L46036 16998
" />
<path d="M52542 17992
L52542 18779
" />
<path d="M51754 17992
L52542 17992
" />
<path d="M52542 23504
L51754 23504
" />
<path d="M52542 22716
L52542 23504
" />
<path d="M47030 23504
L47030 22716
" />
<path d="M47817 23504
L47030 23504
" />
<path d="M47030 17992
L47030 18779
" />
<path d="M47817 17992
L47030 17992
" />
<path d="M46036 23748
L46036 16248
" />
<path d="M38536 23748
L46036 23748
" />
<path d="M38536 16248
L38536 23748
" />
<path d="M46036 16248
L38536 16248
" />
<path d="M45042 17242
L45042 18029
" />
<path d="M44254 17242
L45042 17242
" />
<path d="M45042 22754
L44254 22754
" />
<path d="M45042 21966
L45042 22754
" />
<path d="M39530 22754
L39530 21966
" />
<path d="M40317 22754
L39530 22754
" />
<path d="M39530 17242
L39530 18029
" />
<path d="M40317 17242
L39530 17242
" />
<path d="M38536 24498
L38536 16998
" />
<path d="M31036 24498
L38536 24498
" />
<path d="M31036 16998
L31036 24498
" />
<path d="M38536 16998
L31036 16998
" />
<path d="M37542 17992
L37542 18779
" />
<path d="M36754 17992
L37542 17992
" />
<path d="M37542 23504
L36754 23504
" />
<path d="M37542 22716
L37542 23504
" />
<path d="M32030 23504
L32030 22716
" />
<path d="M32817 23504
L32030 23504
" />
<path d="M32030 17992
L32030 18779
" />
<path d="M32817 17992
L32030 17992
" />
<path d="M31036 25248
L31036 17748
" />
<path d="M23536 25248
L31036 25248
" />
<path d="M23536 17748
L23536 25248
" />
<path d="M31036 17748
L23536 17748
" />
<path d="M30042 18742
L30042 19529
" />
<path d="M29254 18742
L30042 18742
" />
<path d="M30042 24254
L29254 24254
" />
<path d="M30042 23466
L30042 24254
" />
<path d="M24530 24254
L24530 23466
" />
<path d="M25317 24254
L24530 24254
" />
<path d="M24530 18742
L24530 19529
" />
<path d="M25317 18742
L24530 18742
" />
<path d="M61035 32748
L61035 25248
" />
<path d="M53535 32748
L61035 32748
" />
<path d="M53535 25248
L53535 32748
" />
<path d="M61035 25248
L53535 25248
" />
<path d="M60041 26242
L60041 27029
" />
<path d="M59254 26242
L60041 26242
" />
<path d="M60041 31754
L59254 31754
" />
<path d="M60041 30966
L60041 31754
" />
<path d="M54529 31754
L54529 30966
" />
<path d="M55317 31754
L54529 31754
" />
<path d="M54529 26242
L54529 27029
" />
<path d="M55317 26242
L54529 26242
" />
<path d="M53536 31998
L53536 24498
" />
<path d="M46036 31998
L53536 31998
" />
<path d="M46036 24498
L46036 31998
" />
<path d="M53536 24498
L46036 24498
" />
<path d="M52542 25492
L52542 26279
" />
<path d="M51754 25492
L52542 25492
" />
<path d="M52542 31004
L51754 31004
" />
<path d="M52542 30216
L52542 31004
" />
<path d="M47030 31004
L47030 30216
" />
<path d="M47817 31004
L47030 31004
" />
<path d="M47030 25492
L47030 26279
" />
<path d="M47817 25492
L47030 25492
" />
<path d="M46036 31248
L46036 23748
" />
<path d="M38536 31248
L46036 31248
" />
<path d="M38536 23748
L38536 31248
" />
<path d="M46036 23748
L38536 23748
" />
<path d="M45042 24742
L45042 25529
" />
<path d="M44254 24742
L45042 24742
" />
<path d="M45042 30254
L44254 30254
" />
<path d="M45042 29466
L45042 30254
" />
<path d="M39530 30254
L39530 29466
" />
<path d="M40317 30254
L39530 30254
" />
<path d="M39530 24742
L39530 25529
" />
<path d="M40317 24742
L39530 24742
" />
<path d="M38536 31998
L38536 24498
" />
<path d="M31036 31998
L38536 31998
" />
<path d="M31036 24498
L31036 31998
" />
<path d="M38536 24498
L31036 24498
" />
<path d="M37542 25492
L37542 26279
" />
<path d="M36754 25492
L37542 25492
" />
<path d="M37542 31004
L36754 31004
" />
<path d="M37542 30216
L37542 31004
" />
<path d="M32030 31004
L32030 30216
" />
<path d="M32817 31004
L32030 31004
" />
<path d="M32030 25492
L32030 26279
" />
<path d="M32817 25492
L32030 25492
" />
<path d="M31036 32748
L31036 25248
" />
<path d="M23536 32748
L31036 32748
" />
<path d="M23536 25248
L23536 32748
" />
<path d="M31036 25248
L23536 25248
" />
<path d="M30042 26242
L30042 27029
" />
<path d="M29254 26242
L30042 26242
" />
<path d="M30042 31754
L29254 31754
" />
<path d="M30042 30966
L30042 31754
" />
<path d="M24530 31754
L24530 30966
" />
<path d="M25317 31754
L24530 31754
" />
<path d="M24530 26242
L24530 27029
" />
<path d="M25317 26242
L24530 26242
" />
<path d="M21786 32748
L21786 25248
" />
<path d="M14286 32748
L21786 32748
" />
<path d="M14286 25248
L14286 32748
" />
<path d="M21786 25248
L14286 25248
" />
<path d="M20792 26242
L20792 27029
" />
<path d="M20004 26242
L20792 26242
" />
<path d="M20792 31754
L20004 31754
" />
<path d="M20792 30966
L20792 31754
" />
<path d="M15280 31754
L15280 30966
" />
<path d="M16067 31754
L15280 31754
" />
<path d="M15280 26242
L15280 27029
" />
<path d="M16067 26242
L15280 26242
" />
<path d="M77355 39485
L80524 32687
" />
<path d="M70557 36315
L77355 39485
" />
<path d="M73727 29518
L70557 36315
" />
<path d="M80524 32687
L73727 29518
" />
<path d="M79203 33168
L78870 33882
" />
<path d="M78490 32835
L79203 33168
" />
<path d="M76874 38164
L76160 37831
" />
<path d="M77207 37450
L76874 38164
" />
<path d="M71878 35834
L72211 35121
" />
<path d="M72592 36167
L71878 35834
" />
<path d="M74208 30839
L73875 31552
" />
<path d="M74921 31172
L74208 30839
" />
<path d="M72620 49485
L75789 42687
" />
<path d="M65822 46315
L72620 49485
" />
<path d="M68992 39518
L65822 46315
" />
<path d="M75789 42687
L68992 39518
" />
<path d="M74468 43168
L74135 43882
" />
<path d="M73755 42835
L74468 43168
" />
<path d="M72139 48163
L71425 47831
" />
<path d="M72472 47450
L72139 48163
" />
<path d="M67143 45834
L67476 45120
" />
<path d="M67857 46167
L67143 45834
" />
<path d="M69473 40839
L69140 41552
" />
<path d="M70186 41171
L69473 40839
" />
<path d="M65822 46257
L68992 39460
" />
<path d="M59025 43087
L65822 46257
" />
<path d="M62195 36290
L59025 43087
" />
<path d="M68992 39460
L62195 36290
" />
<path d="M67671 39941
L67338 40654
" />
<path d="M66957 39608
L67671 39941
" />
<path d="M65342 44936
L64628 44603
" />
<path d="M65674 44222
L65342 44936
" />
<path d="M60346 42607
L60679 41893
" />
<path d="M61060 42939
L60346 42607
" />
<path d="M62676 37611
L62343 38325
" />
<path d="M63389 37944
L62676 37611
" />
<path d="M48541 40251
L48541 32751
" />
<path d="M41041 40251
L48541 40251
" />
<path d="M41041 32751
L41041 40251
" />
<path d="M48541 32751
L41041 32751
" />
<path d="M47547 33745
L47547 34533
" />
<path d="M46759 33745
L47547 33745
" />
<path d="M47547 39257
L46759 39257
" />
<path d="M47547 38470
L47547 39257
" />
<path d="M42035 39257
L42035 38470
" />
<path d="M42822 39257
L42035 39257
" />
<path d="M42035 33745
L42035 34533
" />
<path d="M42822 33745
L42035 33745
" />
<path d="M74771 70011
L74771 77511
" />
<path d="M67271 70011
L74771 70011
" />
<path d="M67271 77511
L67271 70011
" />
<path d="M74771 77511
L67271 77511
" />
<path d="M73777 76517
L73777 75730
" />
<path d="M72989 76517
L73777 76517
" />
<path d="M73777 71005
L72989 71005
" />
<path d="M73777 71793
L73777 71005
" />
<path d="M68265 71005
L68265 71793
" />
<path d="M69052 71005
L68265 71005
" />
<path d="M68265 76517
L68265 75730
" />
<path d="M69052 76517
L68265 76517
" />
<path d="M65321 70011
L65321 77511
" />
<path d="M57821 70011
L65321 70011
" />
<path d="M57821 77511
L57821 70011
" />
<path d="M65321 77511
L57821 77511
" />
<path d="M64327 76517
L64327 75730
" />
<path d="M63539 76517
L64327 76517
" />
<path d="M64327 71005
L63539 71005
" />
<path d="M64327 71793
L64327 71005
" />
<path d="M58815 71005
L58815 71793
" />
<path d="M59602 71005
L58815 71005
" />
<path d="M58815 76517
L58815 75730
" />
<path d="M59602 76517
L58815 76517
" />
<path d="M57821 70686
L57821 78186
" />
<path d="M50321 70686
L57821 70686
" />
<path d="M50321 78186
L50321 70686
" />
<path d="M57821 78186
L50321 78186
" />
<path d="M56827 77192
L56827 76405
" />
<path d="M56039 77192
L56827 77192
" />
<path d="M56827 71680
L56039 71680
" />
<path d="M56827 72468
L56827 71680
" />
<path d="M51315 71680
L51315 72468
" />
<path d="M52102 71680
L51315 71680
" />
<path d="M51315 77192
L51315 76405
" />
<path d="M52102 77192
L51315 77192
" />
<path d="M50321 71436
L50321 78936
" />
<path d="M42821 71436
L50321 71436
" />
<path d="M42821 78936
L42821 71436
" />
<path d="M50321 78936
L42821 78936
" />
<path d="M49327 77942
L49327 77155
" />
<path d="M48539 77942
L49327 77942
" />
<path d="M49327 72430
L48539 72430
" />
<path d="M49327 73218
L49327 72430
" />
<path d="M43815 72430
L43815 73218
" />
<path d="M44602 72430
L43815 72430
" />
<path d="M43815 77942
L43815 77155
" />
<path d="M44602 77942
L43815 77942
" />
<path d="M42821 70686
L42821 78186
" />
<path d="M35321 70686
L42821 70686
" />
<path d="M35321 78186
L35321 70686
" />
<path d="M42821 78186
L35321 78186
" />
<path d="M41827 77192
L41827 76405
" />
<path d="M41039 77192
L41827 77192
" />
<path d="M41827 71680
L41039 71680
" />
<path d="M41827 72468
L41827 71680
" />
<path d="M36315 71680
L36315 72468
" />
<path d="M37102 71680
L36315 71680
" />
<path d="M36315 77192
L36315 76405
" />
<path d="M37102 77192
L36315 77192
" />
<path d="M35321 69936
L35321 77436
" />
<path d="M27821 69936
L35321 69936
" />
<path d="M27821 77436
L27821 69936
" />
<path d="M35321 77436
L27821 77436
" />
<path d="M34327 76442
L34327 75655
" />
<path d="M33539 76442
L34327 76442
" />
<path d="M34327 70930
L33539 70930
" />
<path d="M34327 71718
L34327 70930
" />
<path d="M28815 70930
L28815 71718
" />
<path d="M29602 70930
L28815 70930
" />
<path d="M28815 76442
L28815 75655
" />
<path d="M29602 76442
L28815 76442
" />
<path d="M74771 62511
L74771 70011
" />
<path d="M67271 62511
L74771 62511
" />
<path d="M67271 70011
L67271 62511
" />
<path d="M74771 70011
L67271 70011
" />
<path d="M73777 69017
L73777 68230
" />
<path d="M72989 69017
L73777 69017
" />
<path d="M73777 63505
L72989 63505
" />
<path d="M73777 64293
L73777 63505
" />
<path d="M68265 63505
L68265 64293
" />
<path d="M69052 63505
L68265 63505
" />
<path d="M68265 69017
L68265 68230
" />
<path d="M69052 69017
L68265 69017
" />
<path d="M65321 62511
L65321 70011
" />
<path d="M57821 62511
L65321 62511
" />
<path d="M57821 70011
L57821 62511
" />
<path d="M65321 70011
L57821 70011
" />
<path d="M64327 69017
L64327 68230
" />
<path d="M63539 69017
L64327 69017
" />
<path d="M64327 63505
L63539 63505
" />
<path d="M64327 64293
L64327 63505
" />
<path d="M58815 63505
L58815 64293
" />
<path d="M59602 63505
L58815 63505
" />
<path d="M58815 69017
L58815 68230
" />
<path d="M59602 69017
L58815 69017
" />
<path d="M57821 63186
L57821 70686
" />
<path d="M50321 63186
L57821 63186
" />
<path d="M50321 70686
L50321 63186
" />
<path d="M57821 70686
L50321 70686
" />
<path d="M56827 69692
L56827 68905
" />
<path d="M56039 69692
L56827 69692
" />
<path d="M56827 64180
L56039 64180
" />
<path d="M56827 64968
L56827 64180
" />
<path d="M51315 64180
L51315 64968
" />
<path d="M52102 64180
L51315 64180
" />
<path d="M51315 69692
L51315 68905
" />
<path d="M52102 69692
L51315 69692
" />
<path d="M50321 63936
L50321 71436
" />
<path d="M42821 63936
L50321 63936
" />
<path d="M42821 71436
L42821 63936
" />
<path d="M50321 71436
L42821 71436
" />
<path d="M49327 70442
L49327 69655
" />
<path d="M48539 70442
L49327 70442
" />
<path d="M49327 64930
L48539 64930
" />
<path d="M49327 65718
L49327 64930
" />
<path d="M43815 64930
L43815 65718
" />
<path d="M44602 64930
L43815 64930
" />
<path d="M43815 70442
L43815 69655
" />
<path d="M44602 70442
L43815 70442
" />
<path d="M42821 63186
L42821 70686
" />
<path d="M35321 63186
L42821 63186
" />
<path d="M35321 70686
L35321 63186
" />
<path d="M42821 70686
L35321 70686
" />
<path d="M41827 69692
L41827 68905
" />
<path d="M41039 69692
L41827 69692
" />
<path d="M41827 64180
L41039 64180
" />
<path d="M41827 64968
L41827 64180
" />
<path d="M36315 64180
L36315 64968
" />
<path d="M37102 64180
L36315 64180
" />
<path d="M36315 69692
L36315 68905
" />
<path d="M37102 69692
L36315 69692
" />
<path d="M35321 62436
L35321 69936
" />
<path d="M27821 62436
L35321 62436
" />
<path d="M27821 69936
L27821 62436
" />
<path d="M35321 69936
L27821 69936
" />
<path d="M34327 68942
L34327 68155
" />
<path d="M33539 68942
L34327 68942
" />
<path d="M34327 63430
L33539 63430
" />
<path d="M34327 64218
L34327 63430
" />
<path d="M28815 63430
L28815 64218
" />
<path d="M29602 63430
L28815 63430
" />
<path d="M28815 68942
L28815 68155
" />
<path d="M29602 68942
L28815 68942
" />
<path d="M27831 62426
L27831 69926
" />
<path d="M20331 62426
L27831 62426
" />
<path d="M20331 69926
L20331 62426
" />
<path d="M27831 69926
L20331 69926
" />
<path d="M26837 68932
L26837 68145
" />
<path d="M26049 68932
L26837 68932
" />
<path d="M26837 63420
L26049 63420
" />
<path d="M26837 64208
L26837 63420
" />
<path d="M21325 63420
L21325 64208
" />
<path d="M22112 63420
L21325 63420
" />
<path d="M21325 68932
L21325 68145
" />
<path d="M22112 68932
L21325 68932
" />
<path d="M74771 54936
L74771 62436
" />
<path d="M67271 54936
L74771 54936
" />
<path d="M67271 62436
L67271 54936
" />
<path d="M74771 62436
L67271 62436
" />
<path d="M73777 61442
L73777 60655
" />
<path d="M72989 61442
L73777 61442
" />
<path d="M73777 55930
L72989 55930
" />
<path d="M73777 56718
L73777 55930
" />
<path d="M68265 55930
L68265 56718
" />
<path d="M69052 55930
L68265 55930
" />
<path d="M68265 61442
L68265 60655
" />
<path d="M69052 61442
L68265 61442
" />
<path d="M65321 55011
L65321 62511
" />
<path d="M57821 55011
L65321 55011
" />
<path d="M57821 62511
L57821 55011
" />
<path d="M65321 62511
L57821 62511
" />
<path d="M64327 61517
L64327 60730
" />
<path d="M63539 61517
L64327 61517
" />
<path d="M64327 56005
L63539 56005
" />
<path d="M64327 56793
L64327 56005
" />
<path d="M58815 56005
L58815 56793
" />
<path d="M59602 56005
L58815 56005
" />
<path d="M58815 61517
L58815 60730
" />
<path d="M59602 61517
L58815 61517
" />
<path d="M57821 55686
L57821 63186
" />
<path d="M50321 55686
L57821 55686
" />
<path d="M50321 63186
L50321 55686
" />
<path d="M57821 63186
L50321 63186
" />
<path d="M56827 62192
L56827 61405
" />
<path d="M56039 62192
L56827 62192
" />
<path d="M56827 56680
L56039 56680
" />
<path d="M56827 57468
L56827 56680
" />
<path d="M51315 56680
L51315 57468
" />
<path d="M52102 56680
L51315 56680
" />
<path d="M51315 62192
L51315 61405
" />
<path d="M52102 62192
L51315 62192
" />
<path d="M50321 56436
L50321 63936
" />
<path d="M42821 56436
L50321 56436
" />
<path d="M42821 63936
L42821 56436
" />
<path d="M50321 63936
L42821 63936
" />
<path d="M49327 62942
L49327 62155
" />
<path d="M48539 62942
L49327 62942
" />
<path d="M49327 57430
L48539 57430
" />
<path d="M49327 58218
L49327 57430
" />
<path d="M43815 57430
L43815 58218
" />
<path d="M44602 57430
L43815 57430
" />
<path d="M43815 62942
L43815 62155
" />
<path d="M44602 62942
L43815 62942
" />
<path d="M42821 55686
L42821 63186
" />
<path d="M35321 55686
L42821 55686
" />
<path d="M35321 63186
L35321 55686
" />
<path d="M42821 63186
L35321 63186
" />
<path d="M41827 62192
L41827 61405
" />
<path d="M41039 62192
L41827 62192
" />
<path d="M41827 56680
L41039 56680
" />
<path d="M41827 57468
L41827 56680
" />
<path d="M36315 56680
L36315 57468
" />
<path d="M37102 56680
L36315 56680
" />
<path d="M36315 62192
L36315 61405
" />
<path d="M37102 62192
L36315 62192
" />
<path d="M35321 54936
L35321 62436
" />
<path d="M27821 54936
L35321 54936
" />
<path d="M27821 62436
L27821 54936
" />
<path d="M35321 62436
L27821 62436
" />
<path d="M34327 61442
L34327 60655
" />
<path d="M33539 61442
L34327 61442
" />
<path d="M34327 55930
L33539 55930
" />
<path d="M34327 56718
L34327 55930
" />
<path d="M28815 55930
L28815 56718
" />
<path d="M29602 55930
L28815 55930
" />
<path d="M28815 61442
L28815 60655
" />
<path d="M29602 61442
L28815 61442
" />
<path d="M27821 54936
L27821 62436
" />
<path d="M20321 54936
L27821 54936
" />
<path d="M20321 62436
L20321 54936
" />
<path d="M27821 62436
L20321 62436
" />
<path d="M26827 61442
L26827 60655
" />
<path d="M26039 61442
L26827 61442
" />
<path d="M26827 55930
L26039 55930
" />
<path d="M26827 56718
L26827 55930
" />
<path d="M21315 55930
L21315 56718
" />
<path d="M22102 55930
L21315 55930
" />
<path d="M21315 61442
L21315 60655
" />
<path d="M22102 61442
L21315 61442
" />
<path d="M47791 47501
L47791 55001
" />
<path d="M40291 47501
L47791 47501
" />
<path d="M40291 55001
L40291 47501
" />
<path d="M47791 55001
L40291 55001
" />
<path d="M46797 54007
L46797 53220
" />
<path d="M46009 54007
L46797 54007
" />
<path d="M46797 48496
L46009 48496
" />
<path d="M46797 49283
L46797 48496
" />
<path d="M41285 48496
L41285 49283
" />
<path d="M42072 48496
L41285 48496
" />
<path d="M41285 54007
L41285 53220
" />
<path d="M42072 54007
L41285 54007
" />
<path d="M38489 46863
L36929 54199
" />
<path d="M31152 45304
L38489 46863
" />
<path d="M29593 52640
L31152 45304
" />
<path d="M36929 54199
L29593 52640
" />
<path d="M36164 53020
L36327 52250
" />
<path d="M35393 52856
L36164 53020
" />
<path d="M37310 47629
L36539 47465
" />
<path d="M37146 48399
L37310 47629
" />
<path d="M31918 46483
L31754 47253
" />
<path d="M32688 46647
L31918 46483
" />
<path d="M30772 51874
L30936 51104
" />
<path d="M31542 52038
L30772 51874
" />
<path d="M29774 44687
L26605 51485
" />
<path d="M22977 41518
L29774 44687
" />
<path d="M19807 48315
L22977 41518
" />
<path d="M26605 51485
L19807 48315
" />
<path d="M26124 50163
L26457 49450
" />
<path d="M25410 49831
L26124 50163
" />
<path d="M28453 45168
L27740 44835
" />
<path d="M28120 45882
L28453 45168
" />
<path d="M23458 42839
L23125 43552
" />
<path d="M24171 43171
L23458 42839
" />
<path d="M21128 47834
L21461 47120
" />
<path d="M21842 48167
L21128 47834
" />
<path d="M23024 41437
L19855 48235
" />
<path d="M16227 38268
L23024 41437
" />
<path d="M13057 45065
L16227 38268
" />
<path d="M19855 48235
L13057 45065
" />
<path d="M19374 46913
L19707 46200
" />
<path d="M18660 46581
L19374 46913
" />
<path d="M21703 41918
L20990 41585
" />
<path d="M21370 42632
L21703 41918
" />
<path d="M16708 39589
L16375 40302
" />
<path d="M17421 39921
L16708 39589
" />
<path d="M14378 44584
L14711 43870
" />
<path d="M15092 44917
L14378 44584
" />
<path d="M18274 51438
L15105 58235
" />
<path d="M11477 48268
L18274 51438
" />
<path d="M8307 55065
L11477 48268
" />
<path d="M15105 58235
L8307 55065
" />
<path d="M14624 56914
L14957 56200
" />
<path d="M13910 56581
L14624 56914
" />
<path d="M16953 51918
L16240 51586
" />
<path d="M16620 52632
L16953 51918
" />
<path d="M11958 49589
L11625 50303
" />
<path d="M12671 49922
L11958 49589
" />
<path d="M9628 54584
L9961 53871
" />
<path d="M10342 54917
L9628 54584
" />
<path d="M53957 34573
L54007 34604
L54099 34625
L54139 34615
L54162 34601
L54189 34568
L54197 34532
L54187 34491
L54173 34469
L54141 34442
L54072 34407
L54040 34380
L54026 34358
L54016 34317
L54024 34280
L54051 34248
L54073 34234
L54114 34224
L54205 34245
L54256 34276
" />
<path d="M54388 34287
L54391 34692
L54527 34435
L54537 34726
L54717 34363
" />
<path d="M54675 34796
L54967 34864
" />
<path d="M55067 34848
L55155 34465
L55301 34498
L55334 34525
L55348 34548
L55358 34588
L55345 34643
L55318 34675
L55296 34689
L55255 34699
L55109 34666
" />
<path d="M55539 34553
L55467 34864
L55477 34904
L55491 34927
L55523 34954
L55596 34970
L55637 34961
L55660 34947
L55686 34914
L55758 34604
" />
<path d="M55838 35007
L55889 35038
L55980 35059
L56021 35049
L56043 35035
L56070 35003
L56078 34966
L56069 34926
L56055 34903
L56022 34876
L55953 34841
L55921 34815
L55907 34792
L55897 34751
L55906 34715
L55932 34682
L55955 34668
L55996 34659
L56087 34680
L56138 34711
" />
<path d="M56218 35114
L56306 34730
" />
<path d="M56264 34913
L56483 34964
" />
<path d="M56437 35164
L56525 34781
" />
<path d="M16752 18532
L16808 18551
L16901 18551
L16939 18532
L16958 18513
L16976 18476
L16976 18438
L16958 18401
L16939 18382
L16901 18363
L16826 18345
L16789 18326
L16770 18307
L16752 18270
L16752 18232
L16770 18195
L16789 18176
L16826 18157
L16920 18157
L16976 18176
" />
<path d="M17108 18157
L17201 18551
L17276 18270
L17351 18551
L17445 18157
" />
<path d="M17501 18588
L17801 18588
" />
<path d="M17895 18551
L17895 18157
L18045 18157
L18083 18176
L18101 18195
L18120 18232
L18120 18288
L18101 18326
L18083 18345
L18045 18363
L17895 18363
" />
<path d="M18289 18157
L18289 18476
L18308 18513
L18326 18532
L18364 18551
L18439 18551
L18476 18532
L18495 18513
L18514 18476
L18514 18157
" />
<path d="M18683 18532
L18739 18551
L18832 18551
L18870 18532
L18889 18513
L18907 18476
L18907 18438
L18889 18401
L18870 18382
L18832 18363
L18758 18345
L18720 18326
L18701 18307
L18683 18270
L18683 18232
L18701 18195
L18720 18176
L18758 18157
L18851 18157
L18907 18176
" />
<path d="M19076 18551
L19076 18157
" />
<path d="M19076 18345
L19301 18345
" />
<path d="M19301 18551
L19301 18157
" />
<path d="M41002 9532
L41058 9551
L41151 9551
L41189 9532
L41208 9513
L41226 9476
L41226 9438
L41208 9401
L41189 9382
L41151 9363
L41076 9345
L41039 9326
L41020 9307
L41002 9270
L41002 9232
L41020 9195
L41039 9176
L41076 9157
L41170 9157
L41226 9176
" />
<path d="M41358 9157
L41451 9551
L41526 9270
L41601 9551
L41695 9157
" />
<path d="M41751 9588
L42051 9588
" />
<path d="M42145 9551
L42145 9157
L42295 9157
L42333 9176
L42351 9195
L42370 9232
L42370 9288
L42351 9326
L42333 9345
L42295 9363
L42145 9363
" />
<path d="M42539 9157
L42539 9476
L42558 9513
L42576 9532
L42614 9551
L42689 9551
L42726 9532
L42745 9513
L42764 9476
L42764 9157
" />
<path d="M42933 9532
L42989 9551
L43082 9551
L43120 9532
L43139 9513
L43157 9476
L43157 9438
L43139 9401
L43120 9382
L43082 9363
L43008 9345
L42970 9326
L42951 9307
L42933 9270
L42933 9232
L42951 9195
L42970 9176
L43008 9157
L43101 9157
L43157 9176
" />
<path d="M43326 9551
L43326 9157
" />
<path d="M43326 9345
L43551 9345
" />
<path d="M43551 9551
L43551 9157
" />
<path d="M48502 10282
L48558 10301
L48651 10301
L48689 10282
L48708 10263
L48726 10226
L48726 10188
L48708 10151
L48689 10132
L48651 10113
L48576 10095
L48539 10076
L48520 10057
L48502 10020
L48502 9982
L48520 9945
L48539 9926
L48576 9907
L48670 9907
L48726 9926
" />
<path d="M48858 9907
L48951 10301
L49026 10020
L49101 10301
L49195 9907
" />
<path d="M49251 10338
L49551 10338
" />
<path d="M49645 10301
L49645 9907
L49795 9907
L49833 9926
L49851 9945
L49870 9982
L49870 10038
L49851 10076
L49833 10095
L49795 10113
L49645 10113
" />
<path d="M50039 9907
L50039 10226
L50058 10263
L50076 10282
L50114 10301
L50189 10301
L50226 10282
L50245 10263
L50264 10226
L50264 9907
" />
<path d="M50433 10282
L50489 10301
L50582 10301
L50620 10282
L50639 10263
L50657 10226
L50657 10188
L50639 10151
L50620 10132
L50582 10113
L50508 10095
L50470 10076
L50451 10057
L50433 10020
L50433 9982
L50451 9945
L50470 9926
L50508 9907
L50601 9907
L50657 9926
" />
<path d="M50826 10301
L50826 9907
" />
<path d="M50826 10095
L51051 10095
" />
<path d="M51051 10301
L51051 9907
" />
<path d="M56001 11032
L56057 11051
L56151 11051
L56189 11032
L56207 11013
L56226 10976
L56226 10938
L56207 10901
L56189 10882
L56151 10863
L56076 10845
L56039 10826
L56020 10807
L56001 10770
L56001 10732
L56020 10695
L56039 10676
L56076 10657
L56170 10657
L56226 10676
" />
<path d="M56357 10657
L56451 11051
L56526 10770
L56601 11051
L56695 10657
" />
<path d="M56751 11088
L57051 11088
" />
<path d="M57145 11051
L57145 10657
L57295 10657
L57332 10676
L57351 10695
L57370 10732
L57370 10788
L57351 10826
L57332 10845
L57295 10863
L57145 10863
" />
<path d="M57538 10657
L57538 10976
L57557 11013
L57576 11032
L57613 11051
L57688 11051
L57726 11032
L57745 11013
L57763 10976
L57763 10657
" />
<path d="M57932 11032
L57988 11051
L58082 11051
L58120 11032
L58138 11013
L58157 10976
L58157 10938
L58138 10901
L58120 10882
L58082 10863
L58007 10845
L57970 10826
L57951 10807
L57932 10770
L57932 10732
L57951 10695
L57970 10676
L58007 10657
L58101 10657
L58157 10676
" />
<path d="M58326 11051
L58326 10657
" />
<path d="M58326 10845
L58551 10845
" />
<path d="M58551 11051
L58551 10657
" />
<path d="M33502 10282
L33558 10301
L33651 10301
L33689 10282
L33708 10263
L33726 10226
L33726 10188
L33708 10151
L33689 10132
L33651 10113
L33576 10095
L33539 10076
L33520 10057
L33502 10020
L33502 9982
L33520 9945
L33539 9926
L33576 9907
L33670 9907
L33726 9926
" />
<path d="M33858 9907
L33951 10301
L34026 10020
L34101 10301
L34195 9907
" />
<path d="M34251 10338
L34551 10338
" />
<path d="M34645 10301
L34645 9907
L34795 9907
L34833 9926
L34851 9945
L34870 9982
L34870 10038
L34851 10076
L34833 10095
L34795 10113
L34645 10113
" />
<path d="M35039 9907
L35039 10226
L35058 10263
L35076 10282
L35114 10301
L35189 10301
L35226 10282
L35245 10263
L35264 10226
L35264 9907
" />
<path d="M35433 10282
L35489 10301
L35582 10301
L35620 10282
L35639 10263
L35657 10226
L35657 10188
L35639 10151
L35620 10132
L35582 10113
L35508 10095
L35470 10076
L35451 10057
L35433 10020
L35433 9982
L35451 9945
L35470 9926
L35508 9907
L35601 9907
L35657 9926
" />
<path d="M35826 10301
L35826 9907
" />
<path d="M35826 10095
L36051 10095
" />
<path d="M36051 10301
L36051 9907
" />
<path d="M63501 18532
L63557 18551
L63651 18551
L63689 18532
L63707 18513
L63726 18476
L63726 18438
L63707 18401
L63689 18382
L63651 18363
L63576 18345
L63539 18326
L63520 18307
L63501 18270
L63501 18232
L63520 18195
L63539 18176
L63576 18157
L63670 18157
L63726 18176
" />
<path d="M63857 18157
L63951 18551
L64026 18270
L64101 18551
L64195 18157
" />
<path d="M64251 18588
L64551 18588
" />
<path d="M64645 18551
L64645 18157
L64795 18157
L64832 18176
L64851 18195
L64870 18232
L64870 18288
L64851 18326
L64832 18345
L64795 18363
L64645 18363
" />
<path d="M65038 18157
L65038 18476
L65057 18513
L65076 18532
L65113 18551
L65188 18551
L65226 18532
L65245 18513
L65263 18476
L65263 18157
" />
<path d="M65432 18532
L65488 18551
L65582 18551
L65620 18532
L65638 18513
L65657 18476
L65657 18438
L65638 18401
L65620 18382
L65582 18363
L65507 18345
L65470 18326
L65451 18307
L65432 18270
L65432 18232
L65451 18195
L65470 18176
L65507 18157
L65601 18157
L65657 18176
" />
<path d="M65826 18551
L65826 18157
" />
<path d="M65826 18345
L66051 18345
" />
<path d="M66051 18551
L66051 18157
" />
<path d="M26007 11036
L26063 11054
L26157 11054
L26194 11036
L26213 11017
L26232 10979
L26232 10942
L26213 10904
L26194 10886
L26157 10867
L26082 10848
L26044 10829
L26025 10811
L26007 10773
L26007 10736
L26025 10698
L26044 10679
L26082 10661
L26175 10661
L26232 10679
" />
<path d="M26363 10661
L26457 11054
L26532 10773
L26607 11054
L26700 10661
" />
<path d="M26757 11092
L27056 11092
" />
<path d="M27150 11054
L27150 10661
L27300 10661
L27338 10679
L27356 10698
L27375 10736
L27375 10792
L27356 10829
L27338 10848
L27300 10867
L27150 10867
" />
<path d="M27544 10661
L27544 10979
L27563 11017
L27581 11036
L27619 11054
L27694 11054
L27731 11036
L27750 11017
L27769 10979
L27769 10661
" />
<path d="M27938 11036
L27994 11054
L28088 11054
L28125 11036
L28144 11017
L28163 10979
L28163 10942
L28144 10904
L28125 10886
L28088 10867
L28013 10848
L27975 10829
L27956 10811
L27938 10773
L27938 10736
L27956 10698
L27975 10679
L28013 10661
L28106 10661
L28163 10679
" />
<path d="M28331 11054
L28331 10661
" />
<path d="M28331 10848
L28556 10848
" />
<path d="M28556 11054
L28556 10661
" />
<path d="M16752 11032
L16808 11051
L16901 11051
L16939 11032
L16958 11013
L16976 10976
L16976 10938
L16958 10901
L16939 10882
L16901 10863
L16826 10845
L16789 10826
L16770 10807
L16752 10770
L16752 10732
L16770 10695
L16789 10676
L16826 10657
L16920 10657
L16976 10676
" />
<path d="M17108 10657
L17201 11051
L17276 10770
L17351 11051
L17445 10657
" />
<path d="M17501 11088
L17801 11088
" />
<path d="M17895 11051
L17895 10657
L18045 10657
L18083 10676
L18101 10695
L18120 10732
L18120 10788
L18101 10826
L18083 10845
L18045 10863
L17895 10863
" />
<path d="M18289 10657
L18289 10976
L18308 11013
L18326 11032
L18364 11051
L18439 11051
L18476 11032
L18495 11013
L18514 10976
L18514 10657
" />
<path d="M18683 11032
L18739 11051
L18832 11051
L18870 11032
L18889 11013
L18907 10976
L18907 10938
L18889 10901
L18870 10882
L18832 10863
L18758 10845
L18720 10826
L18701 10807
L18683 10770
L18683 10732
L18701 10695
L18720 10676
L18758 10657
L18851 10657
L18907 10676
" />
<path d="M19076 11051
L19076 10657
" />
<path d="M19076 10845
L19301 10845
" />
<path d="M19301 11051
L19301 10657
" />
<path d="M56001 18532
L56057 18551
L56151 18551
L56189 18532
L56207 18513
L56226 18476
L56226 18438
L56207 18401
L56189 18382
L56151 18363
L56076 18345
L56039 18326
L56020 18307
L56001 18270
L56001 18232
L56020 18195
L56039 18176
L56076 18157
L56170 18157
L56226 18176
" />
<path d="M56357 18157
L56451 18551
L56526 18270
L56601 18551
L56695 18157
" />
<path d="M56751 18588
L57051 18588
" />
<path d="M57145 18551
L57145 18157
L57295 18157
L57332 18176
L57351 18195
L57370 18232
L57370 18288
L57351 18326
L57332 18345
L57295 18363
L57145 18363
" />
<path d="M57538 18157
L57538 18476
L57557 18513
L57576 18532
L57613 18551
L57688 18551
L57726 18532
L57745 18513
L57763 18476
L57763 18157
" />
<path d="M57932 18532
L57988 18551
L58082 18551
L58120 18532
L58138 18513
L58157 18476
L58157 18438
L58138 18401
L58120 18382
L58082 18363
L58007 18345
L57970 18326
L57951 18307
L57932 18270
L57932 18232
L57951 18195
L57970 18176
L58007 18157
L58101 18157
L58157 18176
" />
<path d="M58326 18551
L58326 18157
" />
<path d="M58326 18345
L58551 18345
" />
<path d="M58551 18551
L58551 18157
" />
<path d="M48502 17782
L48558 17801
L48651 17801
L48689 17782
L48708 17763
L48726 17726
L48726 17688
L48708 17651
L48689 17632
L48651 17613
L48576 17595
L48539 17576
L48520 17557
L48502 17520
L48502 17482
L48520 17445
L48539 17426
L48576 17407
L48670 17407
L48726 17426
" />
<path d="M48858 17407
L48951 17801
L49026 17520
L49101 17801
L49195 17407
" />
<path d="M49251 17838
L49551 17838
" />
<path d="M49645 17801
L49645 17407
L49795 17407
L49833 17426
L49851 17445
L49870 17482
L49870 17538
L49851 17576
L49833 17595
L49795 17613
L49645 17613
" />
<path d="M50039 17407
L50039 17726
L50058 17763
L50076 17782
L50114 17801
L50189 17801
L50226 17782
L50245 17763
L50264 17726
L50264 17407
" />
<path d="M50433 17782
L50489 17801
L50582 17801
L50620 17782
L50639 17763
L50657 17726
L50657 17688
L50639 17651
L50620 17632
L50582 17613
L50508 17595
L50470 17576
L50451 17557
L50433 17520
L50433 17482
L50451 17445
L50470 17426
L50508 17407
L50601 17407
L50657 17426
" />
<path d="M50826 17801
L50826 17407
" />
<path d="M50826 17595
L51051 17595
" />
<path d="M51051 17801
L51051 17407
" />
<path d="M41002 17032
L41058 17051
L41151 17051
L41189 17032
L41208 17013
L41226 16976
L41226 16938
L41208 16901
L41189 16882
L41151 16863
L41076 16845
L41039 16826
L41020 16807
L41002 16770
L41002 16732
L41020 16695
L41039 16676
L41076 16657
L41170 16657
L41226 16676
" />
<path d="M41358 16657
L41451 17051
L41526 16770
L41601 17051
L41695 16657
" />
<path d="M41751 17088
L42051 17088
" />
<path d="M42145 17051
L42145 16657
L42295 16657
L42333 16676
L42351 16695
L42370 16732
L42370 16788
L42351 16826
L42333 16845
L42295 16863
L42145 16863
" />
<path d="M42539 16657
L42539 16976
L42558 17013
L42576 17032
L42614 17051
L42689 17051
L42726 17032
L42745 17013
L42764 16976
L42764 16657
" />
<path d="M42933 17032
L42989 17051
L43082 17051
L43120 17032
L43139 17013
L43157 16976
L43157 16938
L43139 16901
L43120 16882
L43082 16863
L43008 16845
L42970 16826
L42951 16807
L42933 16770
L42933 16732
L42951 16695
L42970 16676
L43008 16657
L43101 16657
L43157 16676
" />
<path d="M43326 17051
L43326 16657
" />
<path d="M43326 16845
L43551 16845
" />
<path d="M43551 17051
L43551 16657
" />
<path d="M33502 17782
L33558 17801
L33651 17801
L33689 17782
L33708 17763
L33726 17726
L33726 17688
L33708 17651
L33689 17632
L33651 17613
L33576 17595
L33539 17576
L33520 17557
L33502 17520
L33502 17482
L33520 17445
L33539 17426
L33576 17407
L33670 17407
L33726 17426
" />
<path d="M33858 17407
L33951 17801
L34026 17520
L34101 17801
L34195 17407
" />
<path d="M34251 17838
L34551 17838
" />
<path d="M34645 17801
L34645 17407
L34795 17407
L34833 17426
L34851 17445
L34870 17482
L34870 17538
L34851 17576
L34833 17595
L34795 17613
L34645 17613
" />
<path d="M35039 17407
L35039 17726
L35058 17763
L35076 17782
L35114 17801
L35189 17801
L35226 17782
L35245 17763
L35264 17726
L35264 17407
" />
<path d="M35433 17782
L35489 17801
L35582 17801
L35620 17782
L35639 17763
L35657 17726
L35657 17688
L35639 17651
L35620 17632
L35582 17613
L35508 17595
L35470 17576
L35451 17557
L35433 17520
L35433 17482
L35451 17445
L35470 17426
L35508 17407
L35601 17407
L35657 17426
" />
<path d="M35826 17801
L35826 17407
" />
<path d="M35826 17595
L36051 17595
" />
<path d="M36051 17801
L36051 17407
" />
<path d="M26002 18532
L26058 18551
L26151 18551
L26189 18532
L26208 18513
L26226 18476
L26226 18438
L26208 18401
L26189 18382
L26151 18363
L26076 18345
L26039 18326
L26020 18307
L26002 18270
L26002 18232
L26020 18195
L26039 18176
L26076 18157
L26170 18157
L26226 18176
" />
<path d="M26358 18157
L26451 18551
L26526 18270
L26601 18551
L26695 18157
" />
<path d="M26751 18588
L27051 18588
" />
<path d="M27145 18551
L27145 18157
L27295 18157
L27333 18176
L27351 18195
L27370 18232
L27370 18288
L27351 18326
L27333 18345
L27295 18363
L27145 18363
" />
<path d="M27539 18157
L27539 18476
L27558 18513
L27576 18532
L27614 18551
L27689 18551
L27726 18532
L27745 18513
L27764 18476
L27764 18157
" />
<path d="M27933 18532
L27989 18551
L28082 18551
L28120 18532
L28139 18513
L28157 18476
L28157 18438
L28139 18401
L28120 18382
L28082 18363
L28008 18345
L27970 18326
L27951 18307
L27933 18270
L27933 18232
L27951 18195
L27970 18176
L28008 18157
L28101 18157
L28157 18176
" />
<path d="M28326 18551
L28326 18157
" />
<path d="M28326 18345
L28551 18345
" />
<path d="M28551 18551
L28551 18157
" />
<path d="M56001 26032
L56057 26051
L56151 26051
L56189 26032
L56207 26013
L56226 25976
L56226 25938
L56207 25901
L56189 25882
L56151 25863
L56076 25845
L56039 25826
L56020 25807
L56001 25770
L56001 25732
L56020 25695
L56039 25676
L56076 25657
L56170 25657
L56226 25676
" />
<path d="M56357 25657
L56451 26051
L56526 25770
L56601 26051
L56695 25657
" />
<path d="M56751 26088
L57051 26088
" />
<path d="M57145 26051
L57145 25657
L57295 25657
L57332 25676
L57351 25695
L57370 25732
L57370 25788
L57351 25826
L57332 25845
L57295 25863
L57145 25863
" />
<path d="M57538 25657
L57538 25976
L57557 26013
L57576 26032
L57613 26051
L57688 26051
L57726 26032
L57745 26013
L57763 25976
L57763 25657
" />
<path d="M57932 26032
L57988 26051
L58082 26051
L58120 26032
L58138 26013
L58157 25976
L58157 25938
L58138 25901
L58120 25882
L58082 25863
L58007 25845
L57970 25826
L57951 25807
L57932 25770
L57932 25732
L57951 25695
L57970 25676
L58007 25657
L58101 25657
L58157 25676
" />
<path d="M58326 26051
L58326 25657
" />
<path d="M58326 25845
L58551 25845
" />
<path d="M58551 26051
L58551 25657
" />
<path d="M48502 25282
L48558 25301
L48651 25301
L48689 25282
L48708 25263
L48726 25226
L48726 25188
L48708 25151
L48689 25132
L48651 25113
L48576 25095
L48539 25076
L48520 25057
L48502 25020
L48502 24982
L48520 24945
L48539 24926
L48576 24907
L48670 24907
L48726 24926
" />
<path d="M48858 24907
L48951 25301
L49026 25020
L49101 25301
L49195 24907
" />
<path d="M49251 25338
L49551 25338
" />
<path d="M49645 25301
L49645 24907
L49795 24907
L49833 24926
L49851 24945
L49870 24982
L49870 25038
L49851 25076
L49833 25095
L49795 25113
L49645 25113
" />
<path d="M50039 24907
L50039 25226
L50058 25263
L50076 25282
L50114 25301
L50189 25301
L50226 25282
L50245 25263
L50264 25226
L50264 24907
" />
<path d="M50433 25282
L50489 25301
L50582 25301
L50620 25282
L50639 25263
L50657 25226
L50657 25188
L50639 25151
L50620 25132
L50582 25113
L50508 25095
L50470 25076
L50451 25057
L50433 25020
L50433 24982
L50451 24945
L50470 24926
L50508 24907
L50601 24907
L50657 24926
" />
<path d="M50826 25301
L50826 24907
" />
<path d="M50826 25095
L51051 25095
" />
<path d="M51051 25301
L51051 24907
" />
<path d="M41002 24532
L41058 24551
L41151 24551
L41189 24532
L41208 24513
L41226 24476
L41226 24438
L41208 24401
L41189 24382
L41151 24363
L41076 24345
L41039 24326
L41020 24307
L41002 24270
L41002 24232
L41020 24195
L41039 24176
L41076 24157
L41170 24157
L41226 24176
" />
<path d="M41358 24157
L41451 24551
L41526 24270
L41601 24551
L41695 24157
" />
<path d="M41751 24588
L42051 24588
" />
<path d="M42145 24551
L42145 24157
L42295 24157
L42333 24176
L42351 24195
L42370 24232
L42370 24288
L42351 24326
L42333 24345
L42295 24363
L42145 24363
" />
<path d="M42539 24157
L42539 24476
L42558 24513
L42576 24532
L42614 24551
L42689 24551
L42726 24532
L42745 24513
L42764 24476
L42764 24157
" />
<path d="M42933 24532
L42989 24551
L43082 24551
L43120 24532
L43139 24513
L43157 24476
L43157 24438
L43139 24401
L43120 24382
L43082 24363
L43008 24345
L42970 24326
L42951 24307
L42933 24270
L42933 24232
L42951 24195
L42970 24176
L43008 24157
L43101 24157
L43157 24176
" />
<path d="M43326 24551
L43326 24157
" />
<path d="M43326 24345
L43551 24345
" />
<path d="M43551 24551
L43551 24157
" />
<path d="M33502 25282
L33558 25301
L33651 25301
L33689 25282
L33708 25263
L33726 25226
L33726 25188
L33708 25151
L33689 25132
L33651 25113
L33576 25095
L33539 25076
L33520 25057
L33502 25020
L33502 24982
L33520 24945
L33539 24926
L33576 24907
L33670 24907
L33726 24926
" />
<path d="M33858 24907
L33951 25301
L34026 25020
L34101 25301
L34195 24907
" />
<path d="M34251 25338
L34551 25338
" />
<path d="M34645 25301
L34645 24907
L34795 24907
L34833 24926
L34851 24945
L34870 24982
L34870 25038
L34851 25076
L34833 25095
L34795 25113
L34645 25113
" />
<path d="M35039 24907
L35039 25226
L35058 25263
L35076 25282
L35114 25301
L35189 25301
L35226 25282
L35245 25263
L35264 25226
L35264 24907
" />
<path d="M35433 25282
L35489 25301
L35582 25301
L35620 25282
L35639 25263
L35657 25226
L35657 25188
L35639 25151
L35620 25132
L35582 25113
L35508 25095
L35470 25076
L35451 25057
L35433 25020
L35433 24982
L35451 24945
L35470 24926
L35508 24907
L35601 24907
L35657 24926
" />
<path d="M35826 25301
L35826 24907
" />
<path d="M35826 25095
L36051 25095
" />
<path d="M36051 25301
L36051 24907
" />
<path d="M26002 26032
L26058 26051
L26151 26051
L26189 26032
L26208 26013
L26226 25976
L26226 25938
L26208 25901
L26189 25882
L26151 25863
L26076 25845
L26039 25826
L26020 25807
L26002 25770
L26002 25732
L26020 25695
L26039 25676
L26076 25657
L26170 25657
L26226 25676
" />
<path d="M26358 25657
L26451 26051
L26526 25770
L26601 26051
L26695 25657
" />
<path d="M26751 26088
L27051 26088
" />
<path d="M27145 26051
L27145 25657
L27295 25657
L27333 25676
L27351 25695
L27370 25732
L27370 25788
L27351 25826
L27333 25845
L27295 25863
L27145 25863
" />
<path d="M27539 25657
L27539 25976
L27558 26013
L27576 26032
L27614 26051
L27689 26051
L27726 26032
L27745 26013
L27764 25976
L27764 25657
" />
<path d="M27933 26032
L27989 26051
L28082 26051
L28120 26032
L28139 26013
L28157 25976
L28157 25938
L28139 25901
L28120 25882
L28082 25863
L28008 25845
L27970 25826
L27951 25807
L27933 25770
L27933 25732
L27951 25695
L27970 25676
L28008 25657
L28101 25657
L28157 25676
" />
<path d="M28326 26051
L28326 25657
" />
<path d="M28326 25845
L28551 25845
" />
<path d="M28551 26051
L28551 25657
" />
<path d="M16752 26032
L16808 26051
L16901 26051
L16939 26032
L16958 26013
L16976 25976
L16976 25938
L16958 25901
L16939 25882
L16901 25863
L16826 25845
L16789 25826
L16770 25807
L16752 25770
L16752 25732
L16770 25695
L16789 25676
L16826 25657
L16920 25657
L16976 25676
" />
<path d="M17108 25657
L17201 26051
L17276 25770
L17351 26051
L17445 25657
" />
<path d="M17501 26088
L17801 26088
" />
<path d="M17895 26051
L17895 25657
L18045 25657
L18083 25676
L18101 25695
L18120 25732
L18120 25788
L18101 25826
L18083 25845
L18045 25863
L17895 25863
" />
<path d="M18289 25657
L18289 25976
L18308 26013
L18326 26032
L18364 26051
L18439 26051
L18476 26032
L18495 26013
L18514 25976
L18514 25657
" />
<path d="M18683 26032
L18739 26051
L18832 26051
L18870 26032
L18889 26013
L18907 25976
L18907 25938
L18889 25901
L18870 25882
L18832 25863
L18758 25845
L18720 25826
L18701 25807
L18683 25770
L18683 25732
L18701 25695
L18720 25676
L18758 25657
L18851 25657
L18907 25676
" />
<path d="M19076 26051
L19076 25657
" />
<path d="M19076 25845
L19301 25845
" />
<path d="M19301 26051
L19301 25657
" />
<path d="M75630 31271
L75673 31311
L75758 31351
L75800 31350
L75825 31341
L75858 31315
L75874 31281
L75873 31239
L75864 31214
L75838 31181
L75777 31132
L75751 31100
L75742 31075
L75741 31033
L75757 30999
L75790 30973
L75815 30964
L75857 30963
L75942 31002
L75985 31043
" />
<path d="M76112 31081
L76030 31478
L76217 31255
L76166 31541
L76417 31224
" />
<path d="M76286 31639
L76558 31765
" />
<path d="M76659 31771
L76825 31414
L76961 31478
L76987 31510
L76996 31535
L76997 31577
L76974 31628
L76941 31654
L76916 31663
L76874 31664
L76738 31601
" />
<path d="M77182 31581
L77047 31869
L77048 31911
L77058 31936
L77084 31969
L77152 32001
L77193 32000
L77218 31991
L77251 31964
L77386 31676
" />
<path d="M77380 32087
L77423 32128
L77508 32167
L77550 32166
L77575 32157
L77608 32131
L77624 32097
L77623 32055
L77614 32030
L77588 31997
L77528 31949
L77502 31916
L77492 31891
L77491 31849
L77507 31815
L77540 31789
L77565 31780
L77607 31779
L77692 31818
L77735 31859
" />
<path d="M77729 32270
L77896 31913
" />
<path d="M77816 32083
L78020 32178
" />
<path d="M77933 32365
L78100 32008
" />
<path d="M70895 41271
L70938 41311
L71023 41351
L71065 41350
L71090 41341
L71123 41315
L71139 41281
L71138 41239
L71129 41214
L71102 41181
L71042 41132
L71016 41099
L71007 41075
L71006 41033
L71022 40999
L71055 40973
L71080 40964
L71122 40962
L71207 41002
L71250 41043
" />
<path d="M71377 41081
L71295 41478
L71482 41255
L71431 41541
L71682 41224
" />
<path d="M71551 41638
L71823 41765
" />
<path d="M71924 41771
L72090 41414
L72226 41477
L72252 41510
L72261 41535
L72262 41577
L72239 41628
L72206 41654
L72181 41663
L72139 41664
L72003 41601
" />
<path d="M72447 41580
L72312 41869
L72313 41911
L72322 41936
L72349 41969
L72417 42001
L72458 41999
L72483 41990
L72516 41964
L72651 41676
" />
<path d="M72645 42087
L72688 42127
L72773 42167
L72815 42166
L72840 42157
L72873 42131
L72889 42097
L72888 42055
L72879 42030
L72853 41997
L72793 41948
L72766 41916
L72757 41891
L72756 41849
L72772 41815
L72805 41789
L72830 41780
L72872 41779
L72957 41818
L73000 41859
" />
<path d="M72994 42270
L73161 41913
" />
<path d="M73081 42083
L73285 42178
" />
<path d="M73198 42365
L73364 42008
" />
<path d="M64098 38043
L64141 38084
L64226 38123
L64268 38122
L64293 38113
L64326 38087
L64342 38053
L64340 38011
L64331 37986
L64305 37953
L64245 37905
L64219 37872
L64210 37847
L64209 37805
L64225 37771
L64258 37745
L64283 37736
L64324 37735
L64409 37774
L64452 37815
" />
<path d="M64579 37854
L64498 38250
L64685 38027
L64634 38314
L64885 37996
" />
<path d="M64754 38411
L65026 38538
" />
<path d="M65127 38543
L65293 38186
L65429 38250
L65455 38283
L65464 38308
L65465 38350
L65441 38400
L65409 38427
L65384 38436
L65342 38437
L65206 38373
" />
<path d="M65650 38353
L65515 38642
L65516 38684
L65525 38709
L65551 38741
L65619 38773
L65661 38772
L65686 38763
L65719 38737
L65854 38448
" />
<path d="M65848 38859
L65891 38900
L65976 38939
L66018 38938
L66043 38929
L66076 38903
L66092 38869
L66090 38827
L66081 38802
L66055 38770
L65995 38721
L65969 38688
L65960 38663
L65959 38621
L65975 38587
L66008 38561
L66033 38552
L66075 38551
L66159 38591
L66203 38631
" />
<path d="M66197 39042
L66363 38686
" />
<path d="M66284 38856
L66488 38951
" />
<path d="M66401 39138
L66567 38781
" />
<path d="M43507 33536
L43563 33554
L43657 33554
L43694 33536
L43713 33517
L43732 33479
L43732 33442
L43713 33404
L43694 33386
L43657 33367
L43582 33348
L43544 33329
L43525 33311
L43507 33273
L43507 33236
L43525 33198
L43544 33179
L43582 33161
L43675 33161
L43732 33179
" />
<path d="M43863 33161
L43957 33554
L44032 33273
L44107 33554
L44200 33161
" />
<path d="M44257 33592
L44556 33592
" />
<path d="M44650 33554
L44650 33161
L44800 33161
L44838 33179
L44856 33198
L44875 33236
L44875 33292
L44856 33329
L44838 33348
L44800 33367
L44650 33367
" />
<path d="M45044 33161
L45044 33479
L45063 33517
L45081 33536
L45119 33554
L45194 33554
L45231 33536
L45250 33517
L45269 33479
L45269 33161
" />
<path d="M45438 33536
L45494 33554
L45588 33554
L45625 33536
L45644 33517
L45663 33479
L45663 33442
L45644 33404
L45625 33386
L45588 33367
L45513 33348
L45475 33329
L45456 33311
L45438 33273
L45438 33236
L45456 33198
L45475 33179
L45513 33161
L45606 33161
L45663 33179
" />
<path d="M45831 33554
L45831 33161
" />
<path d="M45831 33348
L46056 33348
" />
<path d="M46056 33554
L46056 33161
" />
<path d="M69737 77046
L69793 77064
L69887 77064
L69924 77046
L69943 77027
L69962 76989
L69962 76952
L69943 76914
L69924 76896
L69887 76877
L69812 76858
L69774 76839
L69755 76821
L69737 76783
L69737 76746
L69755 76708
L69774 76689
L69812 76671
L69905 76671
L69962 76689
" />
<path d="M70093 76671
L70186 77064
L70261 76783
L70336 77064
L70430 76671
" />
<path d="M70486 77102
L70786 77102
" />
<path d="M70880 77064
L70880 76671
L71030 76671
L71068 76689
L71086 76708
L71105 76746
L71105 76802
L71086 76839
L71068 76858
L71030 76877
L70880 76877
" />
<path d="M71274 76671
L71274 76989
L71293 77027
L71311 77046
L71349 77064
L71424 77064
L71461 77046
L71480 77027
L71499 76989
L71499 76671
" />
<path d="M71668 77046
L71724 77064
L71818 77064
L71855 77046
L71874 77027
L71893 76989
L71893 76952
L71874 76914
L71855 76896
L71818 76877
L71743 76858
L71705 76839
L71686 76821
L71668 76783
L71668 76746
L71686 76708
L71705 76689
L71743 76671
L71836 76671
L71893 76689
" />
<path d="M72061 77064
L72061 76671
" />
<path d="M72061 76858
L72286 76858
" />
<path d="M72286 77064
L72286 76671
" />
<path d="M60287 77046
L60343 77064
L60437 77064
L60474 77046
L60493 77027
L60512 76989
L60512 76952
L60493 76914
L60474 76896
L60437 76877
L60362 76858
L60324 76839
L60305 76821
L60287 76783
L60287 76746
L60305 76708
L60324 76689
L60362 76671
L60455 76671
L60512 76689
" />
<path d="M60643 76671
L60736 77064
L60811 76783
L60886 77064
L60980 76671
" />
<path d="M61036 77102
L61336 77102
" />
<path d="M61430 77064
L61430 76671
L61580 76671
L61618 76689
L61636 76708
L61655 76746
L61655 76802
L61636 76839
L61618 76858
L61580 76877
L61430 76877
" />
<path d="M61824 76671
L61824 76989
L61843 77027
L61861 77046
L61899 77064
L61974 77064
L62011 77046
L62030 77027
L62049 76989
L62049 76671
" />
<path d="M62218 77046
L62274 77064
L62368 77064
L62405 77046
L62424 77027
L62443 76989
L62443 76952
L62424 76914
L62405 76896
L62368 76877
L62293 76858
L62255 76839
L62236 76821
L62218 76783
L62218 76746
L62236 76708
L62255 76689
L62293 76671
L62386 76671
L62443 76689
" />
<path d="M62611 77064
L62611 76671
" />
<path d="M62611 76858
L62836 76858
" />
<path d="M62836 77064
L62836 76671
" />
<path d="M52787 77720
L52843 77739
L52937 77739
L52974 77720
L52993 77702
L53012 77664
L53012 77627
L52993 77589
L52974 77570
L52937 77552
L52862 77533
L52824 77514
L52805 77495
L52787 77458
L52787 77421
L52805 77383
L52824 77364
L52862 77346
L52955 77346
L53012 77364
" />
<path d="M53143 77346
L53236 77739
L53311 77458
L53386 77739
L53480 77346
" />
<path d="M53536 77777
L53836 77777
" />
<path d="M53930 77739
L53930 77346
L54080 77346
L54118 77364
L54136 77383
L54155 77421
L54155 77477
L54136 77514
L54118 77533
L54080 77552
L53930 77552
" />
<path d="M54324 77346
L54324 77664
L54343 77702
L54361 77720
L54399 77739
L54474 77739
L54511 77720
L54530 77702
L54549 77664
L54549 77346
" />
<path d="M54718 77720
L54774 77739
L54868 77739
L54905 77720
L54924 77702
L54943 77664
L54943 77627
L54924 77589
L54905 77570
L54868 77552
L54793 77533
L54755 77514
L54736 77495
L54718 77458
L54718 77421
L54736 77383
L54755 77364
L54793 77346
L54886 77346
L54943 77364
" />
<path d="M55111 77739
L55111 77346
" />
<path d="M55111 77533
L55336 77533
" />
<path d="M55336 77739
L55336 77346
" />
<path d="M45287 78470
L45343 78489
L45437 78489
L45474 78470
L45493 78452
L45512 78414
L45512 78377
L45493 78339
L45474 78320
L45437 78302
L45362 78283
L45324 78264
L45305 78245
L45287 78208
L45287 78171
L45305 78133
L45324 78114
L45362 78096
L45455 78096
L45512 78114
" />
<path d="M45643 78096
L45736 78489
L45811 78208
L45886 78489
L45980 78096
" />
<path d="M46036 78527
L46336 78527
" />
<path d="M46430 78489
L46430 78096
L46580 78096
L46618 78114
L46636 78133
L46655 78171
L46655 78227
L46636 78264
L46618 78283
L46580 78302
L46430 78302
" />
<path d="M46824 78096
L46824 78414
L46843 78452
L46861 78470
L46899 78489
L46974 78489
L47011 78470
L47030 78452
L47049 78414
L47049 78096
" />
<path d="M47218 78470
L47274 78489
L47368 78489
L47405 78470
L47424 78452
L47443 78414
L47443 78377
L47424 78339
L47405 78320
L47368 78302
L47293 78283
L47255 78264
L47236 78245
L47218 78208
L47218 78171
L47236 78133
L47255 78114
L47293 78096
L47386 78096
L47443 78114
" />
<path d="M47611 78489
L47611 78096
" />
<path d="M47611 78283
L47836 78283
" />
<path d="M47836 78489
L47836 78096
" />
<path d="M37787 77720
L37843 77739
L37937 77739
L37974 77720
L37993 77702
L38012 77664
L38012 77627
L37993 77589
L37974 77570
L37937 77552
L37862 77533
L37824 77514
L37805 77495
L37787 77458
L37787 77421
L37805 77383
L37824 77364
L37862 77346
L37955 77346
L38012 77364
" />
<path d="M38143 77346
L38236 77739
L38311 77458
L38386 77739
L38480 77346
" />
<path d="M38536 77777
L38836 77777
" />
<path d="M38930 77739
L38930 77346
L39080 77346
L39118 77364
L39136 77383
L39155 77421
L39155 77477
L39136 77514
L39118 77533
L39080 77552
L38930 77552
" />
<path d="M39324 77346
L39324 77664
L39343 77702
L39361 77720
L39399 77739
L39474 77739
L39511 77720
L39530 77702
L39549 77664
L39549 77346
" />
<path d="M39718 77720
L39774 77739
L39868 77739
L39905 77720
L39924 77702
L39943 77664
L39943 77627
L39924 77589
L39905 77570
L39868 77552
L39793 77533
L39755 77514
L39736 77495
L39718 77458
L39718 77421
L39736 77383
L39755 77364
L39793 77346
L39886 77346
L39943 77364
" />
<path d="M40111 77739
L40111 77346
" />
<path d="M40111 77533
L40336 77533
" />
<path d="M40336 77739
L40336 77346
" />
<path d="M30287 76970
L30343 76989
L30437 76989
L30474 76970
L30493 76952
L30512 76914
L30512 76877
L30493 76839
L30474 76820
L30437 76802
L30362 76783
L30324 76764
L30305 76745
L30287 76708
L30287 76671
L30305 76633
L30324 76614
L30362 76596
L30455 76596
L30512 76614
" />
<path d="M30643 76596
L30736 76989
L30811 76708
L30886 76989
L30980 76596
" />
<path d="M31036 77027
L31336 77027
" />
<path d="M31430 76989
L31430 76596
L31580 76596
L31618 76614
L31636 76633
L31655 76671
L31655 76727
L31636 76764
L31618 76783
L31580 76802
L31430 76802
" />
<path d="M31824 76596
L31824 76914
L31843 76952
L31861 76970
L31899 76989
L31974 76989
L32011 76970
L32030 76952
L32049 76914
L32049 76596
" />
<path d="M32218 76970
L32274 76989
L32368 76989
L32405 76970
L32424 76952
L32443 76914
L32443 76877
L32424 76839
L32405 76820
L32368 76802
L32293 76783
L32255 76764
L32236 76745
L32218 76708
L32218 76671
L32236 76633
L32255 76614
L32293 76596
L32386 76596
L32443 76614
" />
<path d="M32611 76989
L32611 76596
" />
<path d="M32611 76783
L32836 76783
" />
<path d="M32836 76989
L32836 76596
" />
<path d="M69737 69546
L69793 69564
L69887 69564
L69924 69546
L69943 69527
L69962 69489
L69962 69452
L69943 69414
L69924 69396
L69887 69377
L69812 69358
L69774 69339
L69755 69321
L69737 69283
L69737 69246
L69755 69208
L69774 69189
L69812 69171
L69905 69171
L69962 69189
" />
<path d="M70093 69171
L70186 69564
L70261 69283
L70336 69564
L70430 69171
" />
<path d="M70486 69602
L70786 69602
" />
<path d="M70880 69564
L70880 69171
L71030 69171
L71068 69189
L71086 69208
L71105 69246
L71105 69302
L71086 69339
L71068 69358
L71030 69377
L70880 69377
" />
<path d="M71274 69171
L71274 69489
L71293 69527
L71311 69546
L71349 69564
L71424 69564
L71461 69546
L71480 69527
L71499 69489
L71499 69171
" />
<path d="M71668 69546
L71724 69564
L71818 69564
L71855 69546
L71874 69527
L71893 69489
L71893 69452
L71874 69414
L71855 69396
L71818 69377
L71743 69358
L71705 69339
L71686 69321
L71668 69283
L71668 69246
L71686 69208
L71705 69189
L71743 69171
L71836 69171
L71893 69189
" />
<path d="M72061 69564
L72061 69171
" />
<path d="M72061 69358
L72286 69358
" />
<path d="M72286 69564
L72286 69171
" />
<path d="M60287 69546
L60343 69564
L60437 69564
L60474 69546
L60493 69527
L60512 69489
L60512 69452
L60493 69414
L60474 69396
L60437 69377
L60362 69358
L60324 69339
L60305 69321
L60287 69283
L60287 69246
L60305 69208
L60324 69189
L60362 69171
L60455 69171
L60512 69189
" />
<path d="M60643 69171
L60736 69564
L60811 69283
L60886 69564
L60980 69171
" />
<path d="M61036 69602
L61336 69602
" />
<path d="M61430 69564
L61430 69171
L61580 69171
L61618 69189
L61636 69208
L61655 69246
L61655 69302
L61636 69339
L61618 69358
L61580 69377
L61430 69377
" />
<path d="M61824 69171
L61824 69489
L61843 69527
L61861 69546
L61899 69564
L61974 69564
L62011 69546
L62030 69527
L62049 69489
L62049 69171
" />
<path d="M62218 69546
L62274 69564
L62368 69564
L62405 69546
L62424 69527
L62443 69489
L62443 69452
L62424 69414
L62405 69396
L62368 69377
L62293 69358
L62255 69339
L62236 69321
L62218 69283
L62218 69246
L62236 69208
L62255 69189
L62293 69171
L62386 69171
L62443 69189
" />
<path d="M62611 69564
L62611 69171
" />
<path d="M62611 69358
L62836 69358
" />
<path d="M62836 69564
L62836 69171
" />
<path d="M52787 70220
L52843 70239
L52937 70239
L52974 70220
L52993 70202
L53012 70164
L53012 70127
L52993 70089
L52974 70070
L52937 70052
L52862 70033
L52824 70014
L52805 69995
L52787 69958
L52787 69921
L52805 69883
L52824 69864
L52862 69846
L52955 69846
L53012 69864
" />
<path d="M53143 69846
L53236 70239
L53311 69958
L53386 70239
L53480 69846
" />
<path d="M53536 70277
L53836 70277
" />
<path d="M53930 70239
L53930 69846
L54080 69846
L54118 69864
L54136 69883
L54155 69921
L54155 69977
L54136 70014
L54118 70033
L54080 70052
L53930 70052
" />
<path d="M54324 69846
L54324 70164
L54343 70202
L54361 70220
L54399 70239
L54474 70239
L54511 70220
L54530 70202
L54549 70164
L54549 69846
" />
<path d="M54718 70220
L54774 70239
L54868 70239
L54905 70220
L54924 70202
L54943 70164
L54943 70127
L54924 70089
L54905 70070
L54868 70052
L54793 70033
L54755 70014
L54736 69995
L54718 69958
L54718 69921
L54736 69883
L54755 69864
L54793 69846
L54886 69846
L54943 69864
" />
<path d="M55111 70239
L55111 69846
" />
<path d="M55111 70033
L55336 70033
" />
<path d="M55336 70239
L55336 69846
" />
<path d="M45287 70970
L45343 70989
L45437 70989
L45474 70970
L45493 70952
L45512 70914
L45512 70877
L45493 70839
L45474 70820
L45437 70802
L45362 70783
L45324 70764
L45305 70745
L45287 70708
L45287 70671
L45305 70633
L45324 70614
L45362 70596
L45455 70596
L45512 70614
" />
<path d="M45643 70596
L45736 70989
L45811 70708
L45886 70989
L45980 70596
" />
<path d="M46036 71027
L46336 71027
" />
<path d="M46430 70989
L46430 70596
L46580 70596
L46618 70614
L46636 70633
L46655 70671
L46655 70727
L46636 70764
L46618 70783
L46580 70802
L46430 70802
" />
<path d="M46824 70596
L46824 70914
L46843 70952
L46861 70970
L46899 70989
L46974 70989
L47011 70970
L47030 70952
L47049 70914
L47049 70596
" />
<path d="M47218 70970
L47274 70989
L47368 70989
L47405 70970
L47424 70952
L47443 70914
L47443 70877
L47424 70839
L47405 70820
L47368 70802
L47293 70783
L47255 70764
L47236 70745
L47218 70708
L47218 70671
L47236 70633
L47255 70614
L47293 70596
L47386 70596
L47443 70614
" />
<path d="M47611 70989
L47611 70596
" />
<path d="M47611 70783
L47836 70783
" />
<path d="M47836 70989
L47836 70596
" />
<path d="M37787 70220
L37843 70239
L37937 70239
L37974 70220
L37993 70202
L38012 70164
L38012 70127
L37993 70089
L37974 70070
L37937 70052
L37862 70033
L37824 70014
L37805 69995
L37787 69958
L37787 69921
L37805 69883
L37824 69864
L37862 69846
L37955 69846
L38012 69864
" />
<path d="M38143 69846
L38236 70239
L38311 69958
L38386 70239
L38480 69846
" />
<path d="M38536 70277
L38836 70277
" />
<path d="M38930 70239
L38930 69846
L39080 69846
L39118 69864
L39136 69883
L39155 69921
L39155 69977
L39136 70014
L39118 70033
L39080 70052
L38930 70052
" />
<path d="M39324 69846
L39324 70164
L39343 70202
L39361 70220
L39399 70239
L39474 70239
L39511 70220
L39530 70202
L39549 70164
L39549 69846
" />
<path d="M39718 70220
L39774 70239
L39868 70239
L39905 70220
L39924 70202
L39943 70164
L39943 70127
L39924 70089
L39905 70070
L39868 70052
L39793 70033
L39755 70014
L39736 69995
L39718 69958
L39718 69921
L39736 69883
L39755 69864
L39793 69846
L39886 69846
L39943 69864
" />
<path d="M40111 70239
L40111 69846
" />
<path d="M40111 70033
L40336 70033
" />
<path d="M40336 70239
L40336 69846
" />
<path d="M30287 69470
L30343 69489
L30437 69489
L30474 69470
L30493 69452
L30512 69414
L30512 69377
L30493 69339
L30474 69320
L30437 69302
L30362 69283
L30324 69264
L30305 69245
L30287 69208
L30287 69171
L30305 69133
L30324 69114
L30362 69096
L30455 69096
L30512 69114
" />
<path d="M30643 69096
L30736 69489
L30811 69208
L30886 69489
L30980 69096
" />
<path d="M31036 69527
L31336 69527
" />
<path d="M31430 69489
L31430 69096
L31580 69096
L31618 69114
L31636 69133
L31655 69171
L31655 69227
L31636 69264
L31618 69283
L31580 69302
L31430 69302
" />
<path d="M31824 69096
L31824 69414
L31843 69452
L31861 69470
L31899 69489
L31974 69489
L32011 69470
L32030 69452
L32049 69414
L32049 69096
" />
<path d="M32218 69470
L32274 69489
L32368 69489
L32405 69470
L32424 69452
L32443 69414
L32443 69377
L32424 69339
L32405 69320
L32368 69302
L32293 69283
L32255 69264
L32236 69245
L32218 69208
L32218 69171
L32236 69133
L32255 69114
L32293 69096
L32386 69096
L32443 69114
" />
<path d="M32611 69489
L32611 69096
" />
<path d="M32611 69283
L32836 69283
" />
<path d="M32836 69489
L32836 69096
" />
<path d="M22796 69461
L22853 69479
L22946 69479
L22984 69461
L23003 69442
L23021 69404
L23021 69367
L23003 69329
L22984 69311
L22946 69292
L22871 69273
L22834 69254
L22815 69236
L22796 69198
L22796 69161
L22815 69123
L22834 69104
L22871 69086
L22965 69086
L23021 69104
" />
<path d="M23153 69086
L23246 69479
L23321 69198
L23396 69479
L23490 69086
" />
<path d="M23546 69517
L23846 69517
" />
<path d="M23940 69479
L23940 69086
L24090 69086
L24127 69104
L24146 69123
L24165 69161
L24165 69217
L24146 69254
L24127 69273
L24090 69292
L23940 69292
" />
<path d="M24334 69086
L24334 69404
L24352 69442
L24371 69461
L24409 69479
L24484 69479
L24521 69461
L24540 69442
L24559 69404
L24559 69086
" />
<path d="M24727 69461
L24784 69479
L24877 69479
L24915 69461
L24934 69442
L24952 69404
L24952 69367
L24934 69329
L24915 69311
L24877 69292
L24802 69273
L24765 69254
L24746 69236
L24727 69198
L24727 69161
L24746 69123
L24765 69104
L24802 69086
L24896 69086
L24952 69104
" />
<path d="M25121 69479
L25121 69086
" />
<path d="M25121 69273
L25346 69273
" />
<path d="M25346 69479
L25346 69086
" />
<path d="M69737 61970
L69793 61989
L69887 61989
L69924 61970
L69943 61952
L69962 61914
L69962 61877
L69943 61839
L69924 61820
L69887 61802
L69812 61783
L69774 61764
L69755 61745
L69737 61708
L69737 61671
L69755 61633
L69774 61614
L69812 61596
L69905 61596
L69962 61614
" />
<path d="M70093 61596
L70186 61989
L70261 61708
L70336 61989
L70430 61596
" />
<path d="M70486 62027
L70786 62027
" />
<path d="M70880 61989
L70880 61596
L71030 61596
L71068 61614
L71086 61633
L71105 61671
L71105 61727
L71086 61764
L71068 61783
L71030 61802
L70880 61802
" />
<path d="M71274 61596
L71274 61914
L71293 61952
L71311 61970
L71349 61989
L71424 61989
L71461 61970
L71480 61952
L71499 61914
L71499 61596
" />
<path d="M71668 61970
L71724 61989
L71818 61989
L71855 61970
L71874 61952
L71893 61914
L71893 61877
L71874 61839
L71855 61820
L71818 61802
L71743 61783
L71705 61764
L71686 61745
L71668 61708
L71668 61671
L71686 61633
L71705 61614
L71743 61596
L71836 61596
L71893 61614
" />
<path d="M72061 61989
L72061 61596
" />
<path d="M72061 61783
L72286 61783
" />
<path d="M72286 61989
L72286 61596
" />
<path d="M60287 62046
L60343 62064
L60437 62064
L60474 62046
L60493 62027
L60512 61989
L60512 61952
L60493 61914
L60474 61896
L60437 61877
L60362 61858
L60324 61839
L60305 61821
L60287 61783
L60287 61746
L60305 61708
L60324 61689
L60362 61671
L60455 61671
L60512 61689
" />
<path d="M60643 61671
L60736 62064
L60811 61783
L60886 62064
L60980 61671
" />
<path d="M61036 62102
L61336 62102
" />
<path d="M61430 62064
L61430 61671
L61580 61671
L61618 61689
L61636 61708
L61655 61746
L61655 61802
L61636 61839
L61618 61858
L61580 61877
L61430 61877
" />
<path d="M61824 61671
L61824 61989
L61843 62027
L61861 62046
L61899 62064
L61974 62064
L62011 62046
L62030 62027
L62049 61989
L62049 61671
" />
<path d="M62218 62046
L62274 62064
L62368 62064
L62405 62046
L62424 62027
L62443 61989
L62443 61952
L62424 61914
L62405 61896
L62368 61877
L62293 61858
L62255 61839
L62236 61821
L62218 61783
L62218 61746
L62236 61708
L62255 61689
L62293 61671
L62386 61671
L62443 61689
" />
<path d="M62611 62064
L62611 61671
" />
<path d="M62611 61858
L62836 61858
" />
<path d="M62836 62064
L62836 61671
" />
<path d="M52787 62720
L52843 62739
L52937 62739
L52974 62720
L52993 62702
L53012 62664
L53012 62627
L52993 62589
L52974 62570
L52937 62552
L52862 62533
L52824 62514
L52805 62495
L52787 62458
L52787 62421
L52805 62383
L52824 62364
L52862 62346
L52955 62346
L53012 62364
" />
<path d="M53143 62346
L53236 62739
L53311 62458
L53386 62739
L53480 62346
" />
<path d="M53536 62777
L53836 62777
" />
<path d="M53930 62739
L53930 62346
L54080 62346
L54118 62364
L54136 62383
L54155 62421
L54155 62477
L54136 62514
L54118 62533
L54080 62552
L53930 62552
" />
<path d="M54324 62346
L54324 62664
L54343 62702
L54361 62720
L54399 62739
L54474 62739
L54511 62720
L54530 62702
L54549 62664
L54549 62346
" />
<path d="M54718 62720
L54774 62739
L54868 62739
L54905 62720
L54924 62702
L54943 62664
L54943 62627
L54924 62589
L54905 62570
L54868 62552
L54793 62533
L54755 62514
L54736 62495
L54718 62458
L54718 62421
L54736 62383
L54755 62364
L54793 62346
L54886 62346
L54943 62364
" />
<path d="M55111 62739
L55111 62346
" />
<path d="M55111 62533
L55336 62533
" />
<path d="M55336 62739
L55336 62346
" />
<path d="M45287 63470
L45343 63489
L45437 63489
L45474 63470
L45493 63452
L45512 63414
L45512 63377
L45493 63339
L45474 63320
L45437 63302
L45362 63283
L45324 63264
L45305 63245
L45287 63208
L45287 63171
L45305 63133
L45324 63114
L45362 63096
L45455 63096
L45512 63114
" />
<path d="M45643 63096
L45736 63489
L45811 63208
L45886 63489
L45980 63096
" />
<path d="M46036 63527
L46336 63527
" />
<path d="M46430 63489
L46430 63096
L46580 63096
L46618 63114
L46636 63133
L46655 63171
L46655 63227
L46636 63264
L46618 63283
L46580 63302
L46430 63302
" />
<path d="M46824 63096
L46824 63414
L46843 63452
L46861 63470
L46899 63489
L46974 63489
L47011 63470
L47030 63452
L47049 63414
L47049 63096
" />
<path d="M47218 63470
L47274 63489
L47368 63489
L47405 63470
L47424 63452
L47443 63414
L47443 63377
L47424 63339
L47405 63320
L47368 63302
L47293 63283
L47255 63264
L47236 63245
L47218 63208
L47218 63171
L47236 63133
L47255 63114
L47293 63096
L47386 63096
L47443 63114
" />
<path d="M47611 63489
L47611 63096
" />
<path d="M47611 63283
L47836 63283
" />
<path d="M47836 63489
L47836 63096
" />
<path d="M37787 62720
L37843 62739
L37937 62739
L37974 62720
L37993 62702
L38012 62664
L38012 62627
L37993 62589
L37974 62570
L37937 62552
L37862 62533
L37824 62514
L37805 62495
L37787 62458
L37787 62421
L37805 62383
L37824 62364
L37862 62346
L37955 62346
L38012 62364
" />
<path d="M38143 62346
L38236 62739
L38311 62458
L38386 62739
L38480 62346
" />
<path d="M38536 62777
L38836 62777
" />
<path d="M38930 62739
L38930 62346
L39080 62346
L39118 62364
L39136 62383
L39155 62421
L39155 62477
L39136 62514
L39118 62533
L39080 62552
L38930 62552
" />
<path d="M39324 62346
L39324 62664
L39343 62702
L39361 62720
L39399 62739
L39474 62739
L39511 62720
L39530 62702
L39549 62664
L39549 62346
" />
<path d="M39718 62720
L39774 62739
L39868 62739
L39905 62720
L39924 62702
L39943 62664
L39943 62627
L39924 62589
L39905 62570
L39868 62552
L39793 62533
L39755 62514
L39736 62495
L39718 62458
L39718 62421
L39736 62383
L39755 62364
L39793 62346
L39886 62346
L39943 62364
" />
<path d="M40111 62739
L40111 62346
" />
<path d="M40111 62533
L40336 62533
" />
<path d="M40336 62739
L40336 62346
" />
<path d="M30287 61970
L30343 61989
L30437 61989
L30474 61970
L30493 61952
L30512 61914
L30512 61877
L30493 61839
L30474 61820
L30437 61802
L30362 61783
L30324 61764
L30305 61745
L30287 61708
L30287 61671
L30305 61633
L30324 61614
L30362 61596
L30455 61596
L30512 61614
" />
<path d="M30643 61596
L30736 61989
L30811 61708
L30886 61989
L30980 61596
" />
<path d="M31036 62027
L31336 62027
" />
<path d="M31430 61989
L31430 61596
L31580 61596
L31618 61614
L31636 61633
L31655 61671
L31655 61727
L31636 61764
L31618 61783
L31580 61802
L31430 61802
" />
<path d="M31824 61596
L31824 61914
L31843 61952
L31861 61970
L31899 61989
L31974 61989
L32011 61970
L32030 61952
L32049 61914
L32049 61596
" />
<path d="M32218 61970
L32274 61989
L32368 61989
L32405 61970
L32424 61952
L32443 61914
L32443 61877
L32424 61839
L32405 61820
L32368 61802
L32293 61783
L32255 61764
L32236 61745
L32218 61708
L32218 61671
L32236 61633
L32255 61614
L32293 61596
L32386 61596
L32443 61614
" />
<path d="M32611 61989
L32611 61596
" />
<path d="M32611 61783
L32836 61783
" />
<path d="M32836 61989
L32836 61596
" />
<path d="M22787 61970
L22843 61989
L22937 61989
L22974 61970
L22993 61952
L23012 61914
L23012 61877
L22993 61839
L22974 61820
L22937 61802
L22862 61783
L22824 61764
L22805 61745
L22787 61708
L22787 61671
L22805 61633
L22824 61614
L22862 61596
L22955 61596
L23012 61614
" />
<path d="M23143 61596
L23236 61989
L23311 61708
L23386 61989
L23480 61596
" />
<path d="M23536 62027
L23836 62027
" />
<path d="M23930 61989
L23930 61596
L24080 61596
L24118 61614
L24136 61633
L24155 61671
L24155 61727
L24136 61764
L24118 61783
L24080 61802
L23930 61802
" />
<path d="M24324 61596
L24324 61914
L24343 61952
L24361 61970
L24399 61989
L24474 61989
L24511 61970
L24530 61952
L24549 61914
L24549 61596
" />
<path d="M24718 61970
L24774 61989
L24868 61989
L24905 61970
L24924 61952
L24943 61914
L24943 61877
L24924 61839
L24905 61820
L24868 61802
L24793 61783
L24755 61764
L24736 61745
L24718 61708
L24718 61671
L24736 61633
L24755 61614
L24793 61596
L24886 61596
L24943 61614
" />
<path d="M25111 61989
L25111 61596
" />
<path d="M25111 61783
L25336 61783
" />
<path d="M25336 61989
L25336 61596
" />
<path d="M42757 54536
L42813 54555
L42907 54555
L42944 54536
L42963 54517
L42982 54480
L42982 54442
L42963 54405
L42944 54386
L42907 54367
L42832 54348
L42794 54330
L42775 54311
L42757 54273
L42757 54236
L42775 54198
L42794 54180
L42832 54161
L42925 54161
L42982 54180
" />
<path d="M43113 54161
L43207 54555
L43282 54273
L43357 54555
L43450 54161
" />
<path d="M43507 54592
L43806 54592
" />
<path d="M43900 54555
L43900 54161
L44050 54161
L44088 54180
L44106 54198
L44125 54236
L44125 54292
L44106 54330
L44088 54348
L44050 54367
L43900 54367
" />
<path d="M44294 54161
L44294 54480
L44313 54517
L44331 54536
L44369 54555
L44444 54555
L44481 54536
L44500 54517
L44519 54480
L44519 54161
" />
<path d="M44688 54536
L44744 54555
L44838 54555
L44875 54536
L44894 54517
L44913 54480
L44913 54442
L44894 54405
L44875 54386
L44838 54367
L44763 54348
L44725 54330
L44706 54311
L44688 54273
L44688 54236
L44706 54198
L44725 54180
L44763 54161
L44856 54161
L44913 54180
" />
<path d="M45081 54555
L45081 54161
" />
<path d="M45081 54348
L45306 54348
" />
<path d="M45306 54555
L45306 54161
" />
<path d="M32102 52697
L32153 52727
L32245 52747
L32285 52736
L32307 52722
L32334 52689
L32341 52652
L32331 52612
L32316 52589
L32284 52563
L32214 52529
L32181 52503
L32167 52481
L32156 52440
L32164 52404
L32190 52371
L32213 52356
L32253 52346
L32345 52365
L32396 52395
" />
<path d="M32528 52404
L32538 52809
L32670 52549
L32685 52840
L32858 52475
" />
<path d="M32824 52908
L33117 52970
" />
<path d="M33217 52953
L33298 52568
L33445 52599
L33478 52625
L33492 52648
L33503 52688
L33491 52743
L33465 52776
L33443 52790
L33402 52801
L33256 52770
" />
<path d="M33684 52650
L33617 52962
L33628 53002
L33642 53024
L33675 53051
L33748 53066
L33789 53056
L33811 53041
L33837 53008
L33904 52697
" />
<path d="M33991 53099
L34042 53129
L34133 53148
L34174 53138
L34196 53123
L34222 53090
L34230 53054
L34220 53013
L34205 52991
L34172 52965
L34103 52931
L34070 52905
L34056 52882
L34045 52842
L34053 52805
L34079 52772
L34101 52758
L34142 52747
L34234 52767
L34285 52797
" />
<path d="M34372 53199
L34454 52814
" />
<path d="M34415 52997
L34635 53044
" />
<path d="M34592 53245
L34674 52860
" />
<path d="M22239 48935
L22282 48976
L22367 49015
L22409 49014
L22434 49005
L22467 48979
L22482 48945
L22481 48903
L22472 48878
L22446 48845
L22386 48797
L22360 48764
L22351 48739
L22350 48697
L22366 48663
L22399 48637
L22423 48628
L22465 48627
L22550 48666
L22593 48707
" />
<path d="M22720 48746
L22639 49142
L22826 48919
L22775 49206
L23026 48888
" />
<path d="M22895 49303
L23167 49430
" />
<path d="M23267 49435
L23434 49078
L23570 49142
L23596 49175
L23605 49200
L23606 49242
L23582 49292
L23549 49319
L23525 49328
L23483 49329
L23347 49265
" />
<path d="M23791 49245
L23656 49534
L23657 49576
L23666 49601
L23692 49633
L23760 49665
L23802 49664
L23827 49655
L23860 49629
L23995 49340
" />
<path d="M23989 49751
L24032 49792
L24117 49831
L24159 49830
L24184 49821
L24217 49795
L24233 49761
L24231 49719
L24222 49694
L24196 49662
L24136 49613
L24110 49580
L24101 49555
L24100 49513
L24116 49479
L24149 49453
L24174 49444
L24215 49443
L24300 49483
L24343 49523
" />
<path d="M24338 49934
L24504 49578
" />
<path d="M24425 49748
L24629 49843
" />
<path d="M24542 50030
L24708 49673
" />
<path d="M15489 45685
L15532 45726
L15617 45765
L15659 45764
L15684 45755
L15717 45729
L15732 45695
L15731 45653
L15722 45628
L15696 45595
L15636 45547
L15610 45514
L15601 45489
L15600 45447
L15616 45413
L15649 45387
L15673 45378
L15715 45377
L15800 45416
L15843 45457
" />
<path d="M15970 45496
L15889 45892
L16076 45669
L16025 45956
L16276 45638
" />
<path d="M16145 46053
L16417 46180
" />
<path d="M16517 46185
L16684 45828
L16820 45892
L16846 45925
L16855 45950
L16856 45992
L16832 46042
L16799 46069
L16775 46078
L16733 46079
L16597 46015
" />
<path d="M17041 45995
L16906 46284
L16907 46326
L16916 46351
L16942 46383
L17010 46415
L17052 46414
L17077 46405
L17110 46379
L17245 46090
" />
<path d="M17239 46501
L17282 46542
L17367 46581
L17409 46580
L17434 46571
L17467 46545
L17483 46511
L17481 46469
L17472 46444
L17446 46412
L17386 46363
L17360 46330
L17351 46305
L17350 46263
L17366 46229
L17399 46203
L17424 46194
L17465 46193
L17550 46233
L17593 46273
" />
<path d="M17588 46684
L17754 46328
" />
<path d="M17675 46498
L17879 46593
" />
<path d="M17792 46780
L17958 46423
" />
<path d="M10739 55685
L10782 55726
L10867 55766
L10909 55765
L10934 55756
L10967 55729
L10982 55695
L10981 55654
L10972 55629
L10946 55596
L10886 55547
L10860 55514
L10851 55489
L10850 55447
L10866 55414
L10899 55387
L10923 55378
L10965 55377
L11050 55417
L11093 55458
" />
<path d="M11220 55496
L11139 55893
L11326 55669
L11275 55956
L11526 55639
" />
<path d="M11395 56053
L11667 56180
" />
<path d="M11767 56186
L11934 55829
L12070 55892
L12096 55925
L12105 55950
L12106 55992
L12082 56043
L12049 56069
L12025 56078
L11983 56079
L11847 56016
" />
<path d="M12291 55995
L12156 56284
L12157 56326
L12166 56351
L12192 56384
L12260 56415
L12302 56414
L12327 56405
L12360 56379
L12495 56090
" />
<path d="M12489 56501
L12532 56542
L12617 56582
L12659 56581
L12684 56572
L12717 56546
L12733 56512
L12731 56470
L12722 56445
L12696 56412
L12636 56363
L12610 56330
L12601 56305
L12600 56264
L12616 56230
L12649 56204
L12674 56194
L12715 56193
L12800 56233
L12843 56274
" />
<path d="M12838 56685
L13004 56328
" />
<path d="M12925 56498
L13129 56593
" />
<path d="M13042 56780
L13208 56423
" />
</g> 
</svg>
