  0
SECTION
  2
HEADER
  9
$ANGBASE
  50
0.0
  9
$ANGDIR
  70
  1
  9
$MEASUREMENT
  70
0
  0
ENDSEC
  0
SECTION
  2
TABLES
  0
TABLE
  2
LTYPE
  70
4
  0
LTYPE
  5
40F
  2
CONTINUOUS
  70
0
  3
Solid line
  72
65
  73
0
  40
0.0
  0
LTYPE
  5
410
  2
DASHDOT
 70
0
  3
Dash Dot ____ _ ____ _
 72
65
 73
4
 40
2.0
 49
1.25
 49
-0.25
 49
0.25
 49
-0.25
  0
LTYPE
  5
411
  2
DASHED
 70
0
  3
Dashed __ __ __ __ __
 72
65
 73
2
 40
0.75
 49
0.5
 49
-0.25
  0
LTYPE
  5
43B
  2
DOTTED
 70
0
  3
Dotted .  .  .  .
 72
65
 73
2
 40
0.2
 49
0.0
 49
-0.2
  0
ENDTAB
  0
TABLE
  2
STYLE
  70
4
  0
STYLE
  2
KICAD
  70
0
  40
0
  41
1
  42
1
  50
0
  71
0
  3
isocp.shx
  0
STYLE
  2
KICADB
  70
0
  40
0
  41
1
  42
1
  50
0
  71
0
  3
isocp.shx
  0
STYLE
  2
KICADI
  70
0
  40
0
  41
1
  42
1
  50
15
  71
0
  3
isocp.shx
  0
STYLE
  2
KICADBI
  70
0
  40
0
  41
1
  42
1
  50
15
  71
0
  3
isocp.shx
  0
ENDTAB
  0
TABLE
  2
LAYER
  70
30
  0
LAYER
  2
BLACK
  70
0
  62
7
  6
CONTINUOUS
  0
LAYER
  2
GRAY1
  70
0
  62
251
  6
CONTINUOUS
  0
LAYER
  2
GRAY2
  70
0
  62
8
  6
CONTINUOUS
  0
LAYER
  2
GRAY3
  70
0
  62
9
  6
CONTINUOUS
  0
LAYER
  2
WHITE
  70
0
  62
7
  6
CONTINUOUS
  0
LAYER
  2
LYELLOW
  70
0
  62
51
  6
CONTINUOUS
  0
LAYER
  2
BLUE1
  70
0
  62
178
  6
CONTINUOUS
  0
LAYER
  2
GREEN1
  70
0
  62
98
  6
CONTINUOUS
  0
LAYER
  2
CYAN1
  70
0
  62
138
  6
CONTINUOUS
  0
LAYER
  2
RED1
  70
0
  62
18
  6
CONTINUOUS
  0
LAYER
  2
MAGENTA1
  70
0
  62
228
  6
CONTINUOUS
  0
LAYER
  2
BROWN1
  70
0
  62
58
  6
CONTINUOUS
  0
LAYER
  2
BLUE2
  70
0
  62
5
  6
CONTINUOUS
  0
LAYER
  2
GREEN2
  70
0
  62
3
  6
CONTINUOUS
  0
LAYER
  2
CYAN2
  70
0
  62
4
  6
CONTINUOUS
  0
LAYER
  2
RED2
  70
0
  62
1
  6
CONTINUOUS
  0
LAYER
  2
MAGENTA2
  70
0
  62
6
  6
CONTINUOUS
  0
LAYER
  2
BROWN2
  70
0
  62
54
  6
CONTINUOUS
  0
LAYER
  2
BLUE3
  70
0
  62
171
  6
CONTINUOUS
  0
LAYER
  2
GREEN3
  70
0
  62
91
  6
CONTINUOUS
  0
LAYER
  2
CYAN3
  70
0
  62
131
  6
CONTINUOUS
  0
LAYER
  2
RED3
  70
0
  62
11
  6
CONTINUOUS
  0
LAYER
  2
MAGENTA3
  70
0
  62
221
  6
CONTINUOUS
  0
LAYER
  2
YELLOW3
  70
0
  62
2
  6
CONTINUOUS
  0
LAYER
  2
BLUE4
  70
0
  62
5
  6
CONTINUOUS
  0
LAYER
  2
GREEN4
  70
0
  62
3
  6
CONTINUOUS
  0
LAYER
  2
CYAN4
  70
0
  62
4
  6
CONTINUOUS
  0
LAYER
  2
RED4
  70
0
  62
1
  6
CONTINUOUS
  0
LAYER
  2
MAGENTA4
  70
0
  62
6
  6
CONTINUOUS
  0
LAYER
  2
YELLOW4
  70
0
  62
2
  6
CONTINUOUS
  0
ENDTAB
  0
ENDSEC
  0
SECTION
  2
ENTITIES
0
LINE
8
BLACK
6
CONTINUOUS
10
316.355
20
-90.0286
11
316.053
21
-90.5964
0
LINE
8
BLACK
6
CONTINUOUS
10
316.053
20
-90.5964
11
315.647
21
-91.0948
0
LINE
8
BLACK
6
CONTINUOUS
10
315.647
20
-91.0948
11
315.152
21
-91.5047
0
LINE
8
BLACK
6
CONTINUOUS
10
315.152
20
-91.5047
11
314.586
21
-91.8105
0
LINE
8
BLACK
6
CONTINUOUS
10
314.586
20
-91.8105
11
313.972
21
-92.0007
0
LINE
8
BLACK
6
CONTINUOUS
10
313.972
20
-92.0007
11
313.332
21
-92.0679
0
LINE
8
BLACK
6
CONTINUOUS
10
313.332
20
-92.0679
11
312.692
21
-92.0096
0
LINE
8
BLACK
6
CONTINUOUS
10
312.692
20
-92.0096
11
312.075
21
-91.8281
0
LINE
8
BLACK
6
CONTINUOUS
10
312.075
20
-91.8281
11
311.505
21
-91.5301
0
LINE
8
BLACK
6
CONTINUOUS
10
311.505
20
-91.5301
11
311.004
21
-91.1272
0
LINE
8
BLACK
6
CONTINUOUS
10
311.004
20
-91.1272
11
310.59
21
-90.6346
0
LINE
8
BLACK
6
CONTINUOUS
10
310.59
20
-90.6346
11
310.28
21
-90.071
0
LINE
8
BLACK
6
CONTINUOUS
10
310.28
20
-90.071
11
310.086
21
-89.4581
0
LINE
8
BLACK
6
CONTINUOUS
10
310.086
20
-89.4581
11
310.014
21
-88.819
0
LINE
8
BLACK
6
CONTINUOUS
10
310.014
20
-88.819
11
310.068
21
-88.1782
0
LINE
8
BLACK
6
CONTINUOUS
10
310.068
20
-88.1782
11
310.245
21
-87.56
0
LINE
8
BLACK
6
CONTINUOUS
10
310.245
20
-87.56
11
310.539
21
-86.9881
0
LINE
8
BLACK
6
CONTINUOUS
10
310.539
20
-86.9881
11
310.939
21
-86.4841
0
LINE
8
BLACK
6
CONTINUOUS
10
310.939
20
-86.4841
11
311.428
21
-86.0673
0
LINE
8
BLACK
6
CONTINUOUS
10
311.428
20
-86.0673
11
311.99
21
-85.7536
0
LINE
8
BLACK
6
CONTINUOUS
10
311.99
20
-85.7536
11
312.601
21
-85.5549
0
LINE
8
BLACK
6
CONTINUOUS
10
312.601
20
-85.5549
11
313.24
21
-85.4787
0
LINE
8
BLACK
6
CONTINUOUS
10
313.24
20
-85.4787
11
313.881
21
-85.5281
0
LINE
8
BLACK
6
CONTINUOUS
10
313.881
20
-85.5281
11
314.501
21
-85.701
0
LINE
8
BLACK
6
CONTINUOUS
10
314.501
20
-85.701
11
315.075
21
-85.9909
0
LINE
8
BLACK
6
CONTINUOUS
10
315.075
20
-85.9909
11
315.581
21
-86.3869
0
LINE
8
BLACK
6
CONTINUOUS
10
315.581
20
-86.3869
11
316.001
21
-86.8737
0
LINE
8
BLACK
6
CONTINUOUS
10
316.001
20
-86.8737
11
316.319
21
-87.4328
0
LINE
8
BLACK
6
CONTINUOUS
10
316.319
20
-87.4328
11
316.522
21
-88.043
0
LINE
8
BLACK
6
CONTINUOUS
10
316.522
20
-88.043
11
316.603
21
-88.681
0
LINE
8
BLACK
6
CONTINUOUS
10
316.603
20
-88.681
11
316.604
21
-88.773
0
LINE
8
BLACK
6
CONTINUOUS
10
316.604
20
-88.773
11
316.541
21
-89.413
0
LINE
8
BLACK
6
CONTINUOUS
10
316.541
20
-89.413
11
316.355
21
-90.0286
0
LINE
8
BLACK
6
CONTINUOUS
10
316.198
20
-87.5822
11
315.912
21
-87.0437
0
LINE
8
BLACK
6
CONTINUOUS
10
315.912
20
-87.0437
11
315.526
21
-86.571
0
LINE
8
BLACK
6
CONTINUOUS
10
315.526
20
-86.571
11
315.056
21
-86.1823
0
LINE
8
BLACK
6
CONTINUOUS
10
315.056
20
-86.1823
11
314.52
21
-85.8922
0
LINE
8
BLACK
6
CONTINUOUS
10
314.52
20
-85.8922
11
313.937
21
-85.7118
0
LINE
8
BLACK
6
CONTINUOUS
10
313.937
20
-85.7118
11
313.331
21
-85.6481
0
LINE
8
BLACK
6
CONTINUOUS
10
313.331
20
-85.6481
11
312.723
21
-85.7034
0
LINE
8
BLACK
6
CONTINUOUS
10
312.723
20
-85.7034
11
312.138
21
-85.8755
0
LINE
8
BLACK
6
CONTINUOUS
10
312.138
20
-85.8755
11
311.598
21
-86.1581
0
LINE
8
BLACK
6
CONTINUOUS
10
311.598
20
-86.1581
11
311.123
21
-86.5403
0
LINE
8
BLACK
6
CONTINUOUS
10
311.123
20
-86.5403
11
310.731
21
-87.0075
0
LINE
8
BLACK
6
CONTINUOUS
10
310.731
20
-87.0075
11
310.437
21
-87.5419
0
LINE
8
BLACK
6
CONTINUOUS
10
310.437
20
-87.5419
11
310.252
21
-88.1233
0
LINE
8
BLACK
6
CONTINUOUS
10
310.252
20
-88.1233
11
310.184
21
-88.7294
0
LINE
8
BLACK
6
CONTINUOUS
10
310.184
20
-88.7294
11
310.235
21
-89.3371
0
LINE
8
BLACK
6
CONTINUOUS
10
310.235
20
-89.3371
11
310.403
21
-89.9234
0
LINE
8
BLACK
6
CONTINUOUS
10
310.403
20
-89.9234
11
310.682
21
-90.4658
0
LINE
8
BLACK
6
CONTINUOUS
10
310.682
20
-90.4658
11
311.061
21
-90.9438
0
LINE
8
BLACK
6
CONTINUOUS
10
311.061
20
-90.9438
11
311.526
21
-91.3391
0
LINE
8
BLACK
6
CONTINUOUS
10
311.526
20
-91.3391
11
312.058
21
-91.6366
0
LINE
8
BLACK
6
CONTINUOUS
10
312.058
20
-91.6366
11
312.638
21
-91.8251
0
LINE
8
BLACK
6
CONTINUOUS
10
312.638
20
-91.8251
11
313.244
21
-91.8973
0
LINE
8
BLACK
6
CONTINUOUS
10
313.244
20
-91.8973
11
313.852
21
-91.8505
0
LINE
8
BLACK
6
CONTINUOUS
10
313.852
20
-91.8505
11
314.439
21
-91.6865
0
LINE
8
BLACK
6
CONTINUOUS
10
314.439
20
-91.6865
11
314.983
21
-91.4115
0
LINE
8
BLACK
6
CONTINUOUS
10
314.983
20
-91.4115
11
315.464
21
-91.036
0
LINE
8
BLACK
6
CONTINUOUS
10
315.464
20
-91.036
11
315.863
21
-90.5744
0
LINE
8
BLACK
6
CONTINUOUS
10
315.863
20
-90.5744
11
316.164
21
-90.0441
0
LINE
8
BLACK
6
CONTINUOUS
10
316.164
20
-90.0441
11
316.356
21
-89.4653
0
LINE
8
BLACK
6
CONTINUOUS
10
316.356
20
-89.4653
11
316.433
21
-88.8603
0
LINE
8
BLACK
6
CONTINUOUS
10
316.433
20
-88.8603
11
316.434
21
-88.773
0
LINE
8
BLACK
6
CONTINUOUS
10
316.434
20
-88.773
11
316.374
21
-88.166
0
LINE
8
BLACK
6
CONTINUOUS
10
316.374
20
-88.166
11
316.198
21
-87.5822
0
LINE
8
BLACK
6
CONTINUOUS
10
71.8804
20
-88.2506
11
71.5785
21
-88.8184
0
LINE
8
BLACK
6
CONTINUOUS
10
71.5785
20
-88.8184
11
71.172
21
-89.3168
0
LINE
8
BLACK
6
CONTINUOUS
10
71.172
20
-89.3168
11
70.6765
21
-89.7267
0
LINE
8
BLACK
6
CONTINUOUS
10
70.6765
20
-89.7267
11
70.1109
21
-90.0325
0
LINE
8
BLACK
6
CONTINUOUS
10
70.1109
20
-90.0325
11
69.4966
21
-90.2227
0
LINE
8
BLACK
6
CONTINUOUS
10
69.4966
20
-90.2227
11
68.857
21
-90.2899
0
LINE
8
BLACK
6
CONTINUOUS
10
68.857
20
-90.2899
11
68.2166
21
-90.2316
0
LINE
8
BLACK
6
CONTINUOUS
10
68.2166
20
-90.2316
11
67.5997
21
-90.0501
0
LINE
8
BLACK
6
CONTINUOUS
10
67.5997
20
-90.0501
11
67.0298
21
-89.7521
0
LINE
8
BLACK
6
CONTINUOUS
10
67.0298
20
-89.7521
11
66.5286
21
-89.3492
0
LINE
8
BLACK
6
CONTINUOUS
10
66.5286
20
-89.3492
11
66.1153
21
-88.8566
0
LINE
8
BLACK
6
CONTINUOUS
10
66.1153
20
-88.8566
11
65.8054
21
-88.293
0
LINE
8
BLACK
6
CONTINUOUS
10
65.8054
20
-88.293
11
65.611
21
-87.6801
0
LINE
8
BLACK
6
CONTINUOUS
10
65.611
20
-87.6801
11
65.5393
21
-87.041
0
LINE
8
BLACK
6
CONTINUOUS
10
65.5393
20
-87.041
11
65.5931
21
-86.4002
0
LINE
8
BLACK
6
CONTINUOUS
10
65.5931
20
-86.4002
11
65.7704
21
-85.782
0
LINE
8
BLACK
6
CONTINUOUS
10
65.7704
20
-85.782
11
66.0643
21
-85.2101
0
LINE
8
BLACK
6
CONTINUOUS
10
66.0643
20
-85.2101
11
66.4638
21
-84.7061
0
LINE
8
BLACK
6
CONTINUOUS
10
66.4638
20
-84.7061
11
66.9535
21
-84.2893
0
LINE
8
BLACK
6
CONTINUOUS
10
66.9535
20
-84.2893
11
67.5148
21
-83.9756
0
LINE
8
BLACK
6
CONTINUOUS
10
67.5148
20
-83.9756
11
68.1264
21
-83.7769
0
LINE
8
BLACK
6
CONTINUOUS
10
68.1264
20
-83.7769
11
68.765
21
-83.7007
0
LINE
8
BLACK
6
CONTINUOUS
10
68.765
20
-83.7007
11
69.4062
21
-83.7501
0
LINE
8
BLACK
6
CONTINUOUS
10
69.4062
20
-83.7501
11
70.0256
21
-83.923
0
LINE
8
BLACK
6
CONTINUOUS
10
70.0256
20
-83.923
11
70.5995
21
-84.2129
0
LINE
8
BLACK
6
CONTINUOUS
10
70.5995
20
-84.2129
11
71.1063
21
-84.6089
0
LINE
8
BLACK
6
CONTINUOUS
10
71.1063
20
-84.6089
11
71.5265
21
-85.0957
0
LINE
8
BLACK
6
CONTINUOUS
10
71.5265
20
-85.0957
11
71.8441
21
-85.6548
0
LINE
8
BLACK
6
CONTINUOUS
10
71.8441
20
-85.6548
11
72.0471
21
-86.265
0
LINE
8
BLACK
6
CONTINUOUS
10
72.0471
20
-86.265
11
72.1277
21
-86.903
0
LINE
8
BLACK
6
CONTINUOUS
10
72.1277
20
-86.903
11
72.129
21
-86.995
0
LINE
8
BLACK
6
CONTINUOUS
10
72.129
20
-86.995
11
72.0662
21
-87.635
0
LINE
8
BLACK
6
CONTINUOUS
10
72.0662
20
-87.635
11
71.8804
21
-88.2506
0
LINE
8
BLACK
6
CONTINUOUS
10
71.7232
20
-85.8042
11
71.4369
21
-85.2657
0
LINE
8
BLACK
6
CONTINUOUS
10
71.4369
20
-85.2657
11
71.0514
21
-84.793
0
LINE
8
BLACK
6
CONTINUOUS
10
71.0514
20
-84.793
11
70.5815
21
-84.4043
0
LINE
8
BLACK
6
CONTINUOUS
10
70.5815
20
-84.4043
11
70.045
21
-84.1142
0
LINE
8
BLACK
6
CONTINUOUS
10
70.045
20
-84.1142
11
69.4624
21
-83.9338
0
LINE
8
BLACK
6
CONTINUOUS
10
69.4624
20
-83.9338
11
68.8558
21
-83.8701
0
LINE
8
BLACK
6
CONTINUOUS
10
68.8558
20
-83.8701
11
68.2484
21
-83.9254
0
LINE
8
BLACK
6
CONTINUOUS
10
68.2484
20
-83.9254
11
67.6634
21
-84.0975
0
LINE
8
BLACK
6
CONTINUOUS
10
67.6634
20
-84.0975
11
67.1229
21
-84.3801
0
LINE
8
BLACK
6
CONTINUOUS
10
67.1229
20
-84.3801
11
66.6476
21
-84.7623
0
LINE
8
BLACK
6
CONTINUOUS
10
66.6476
20
-84.7623
11
66.2555
21
-85.2295
0
LINE
8
BLACK
6
CONTINUOUS
10
66.2555
20
-85.2295
11
65.9617
21
-85.7639
0
LINE
8
BLACK
6
CONTINUOUS
10
65.9617
20
-85.7639
11
65.7773
21
-86.3453
0
LINE
8
BLACK
6
CONTINUOUS
10
65.7773
20
-86.3453
11
65.7093
21
-86.9514
0
LINE
8
BLACK
6
CONTINUOUS
10
65.7093
20
-86.9514
11
65.7603
21
-87.5591
0
LINE
8
BLACK
6
CONTINUOUS
10
65.7603
20
-87.5591
11
65.9284
21
-88.1454
0
LINE
8
BLACK
6
CONTINUOUS
10
65.9284
20
-88.1454
11
66.2072
21
-88.6878
0
LINE
8
BLACK
6
CONTINUOUS
10
66.2072
20
-88.6878
11
66.5861
21
-89.1658
0
LINE
8
BLACK
6
CONTINUOUS
10
66.5861
20
-89.1658
11
67.0505
21
-89.5611
0
LINE
8
BLACK
6
CONTINUOUS
10
67.0505
20
-89.5611
11
67.5829
21
-89.8586
0
LINE
8
BLACK
6
CONTINUOUS
10
67.5829
20
-89.8586
11
68.163
21
-90.0471
0
LINE
8
BLACK
6
CONTINUOUS
10
68.163
20
-90.0471
11
68.7686
21
-90.1193
0
LINE
8
BLACK
6
CONTINUOUS
10
68.7686
20
-90.1193
11
69.3767
21
-90.0725
0
LINE
8
BLACK
6
CONTINUOUS
10
69.3767
20
-90.0725
11
69.9641
21
-89.9085
0
LINE
8
BLACK
6
CONTINUOUS
10
69.9641
20
-89.9085
11
70.5085
21
-89.6335
0
LINE
8
BLACK
6
CONTINUOUS
10
70.5085
20
-89.6335
11
70.9891
21
-89.258
0
LINE
8
BLACK
6
CONTINUOUS
10
70.9891
20
-89.258
11
71.3876
21
-88.7964
0
LINE
8
BLACK
6
CONTINUOUS
10
71.3876
20
-88.7964
11
71.6888
21
-88.2661
0
LINE
8
BLACK
6
CONTINUOUS
10
71.6888
20
-88.2661
11
71.8813
21
-87.6873
0
LINE
8
BLACK
6
CONTINUOUS
10
71.8813
20
-87.6873
11
71.9578
21
-87.0823
0
LINE
8
BLACK
6
CONTINUOUS
10
71.9578
20
-87.0823
11
71.959
21
-86.995
0
LINE
8
BLACK
6
CONTINUOUS
10
71.959
20
-86.995
11
71.8995
21
-86.388
0
LINE
8
BLACK
6
CONTINUOUS
10
71.8995
20
-86.388
11
71.7232
21
-85.8042
0
LINE
8
BLACK
6
CONTINUOUS
10
167.384
20
-47.4836
11
167.082
21
-48.0514
0
LINE
8
BLACK
6
CONTINUOUS
10
167.082
20
-48.0514
11
166.676
21
-48.5498
0
LINE
8
BLACK
6
CONTINUOUS
10
166.676
20
-48.5498
11
166.181
21
-48.9597
0
LINE
8
BLACK
6
CONTINUOUS
10
166.181
20
-48.9597
11
165.615
21
-49.2655
0
LINE
8
BLACK
6
CONTINUOUS
10
165.615
20
-49.2655
11
165.001
21
-49.4557
0
LINE
8
BLACK
6
CONTINUOUS
10
165.001
20
-49.4557
11
164.361
21
-49.5229
0
LINE
8
BLACK
6
CONTINUOUS
10
164.361
20
-49.5229
11
163.721
21
-49.4646
0
LINE
8
BLACK
6
CONTINUOUS
10
163.721
20
-49.4646
11
163.104
21
-49.2831
0
LINE
8
BLACK
6
CONTINUOUS
10
163.104
20
-49.2831
11
162.534
21
-48.9851
0
LINE
8
BLACK
6
CONTINUOUS
10
162.534
20
-48.9851
11
162.033
21
-48.5822
0
LINE
8
BLACK
6
CONTINUOUS
10
162.033
20
-48.5822
11
161.619
21
-48.0896
0
LINE
8
BLACK
6
CONTINUOUS
10
161.619
20
-48.0896
11
161.309
21
-47.526
0
LINE
8
BLACK
6
CONTINUOUS
10
161.309
20
-47.526
11
161.115
21
-46.9131
0
LINE
8
BLACK
6
CONTINUOUS
10
161.115
20
-46.9131
11
161.043
21
-46.274
0
LINE
8
BLACK
6
CONTINUOUS
10
161.043
20
-46.274
11
161.097
21
-45.6332
0
LINE
8
BLACK
6
CONTINUOUS
10
161.097
20
-45.6332
11
161.274
21
-45.015
0
LINE
8
BLACK
6
CONTINUOUS
10
161.274
20
-45.015
11
161.568
21
-44.4431
0
LINE
8
BLACK
6
CONTINUOUS
10
161.568
20
-44.4431
11
161.968
21
-43.9391
0
LINE
8
BLACK
6
CONTINUOUS
10
161.968
20
-43.9391
11
162.457
21
-43.5223
0
LINE
8
BLACK
6
CONTINUOUS
10
162.457
20
-43.5223
11
163.019
21
-43.2086
0
LINE
8
BLACK
6
CONTINUOUS
10
163.019
20
-43.2086
11
163.63
21
-43.0099
0
LINE
8
BLACK
6
CONTINUOUS
10
163.63
20
-43.0099
11
164.269
21
-42.9337
0
LINE
8
BLACK
6
CONTINUOUS
10
164.269
20
-42.9337
11
164.91
21
-42.9831
0
LINE
8
BLACK
6
CONTINUOUS
10
164.91
20
-42.9831
11
165.53
21
-43.156
0
LINE
8
BLACK
6
CONTINUOUS
10
165.53
20
-43.156
11
166.104
21
-43.4459
0
LINE
8
BLACK
6
CONTINUOUS
10
166.104
20
-43.4459
11
166.61
21
-43.8419
0
LINE
8
BLACK
6
CONTINUOUS
10
166.61
20
-43.8419
11
167.03
21
-44.3287
0
LINE
8
BLACK
6
CONTINUOUS
10
167.03
20
-44.3287
11
167.348
21
-44.8878
0
LINE
8
BLACK
6
CONTINUOUS
10
167.348
20
-44.8878
11
167.551
21
-45.498
0
LINE
8
BLACK
6
CONTINUOUS
10
167.551
20
-45.498
11
167.632
21
-46.136
0
LINE
8
BLACK
6
CONTINUOUS
10
167.632
20
-46.136
11
167.633
21
-46.228
0
LINE
8
BLACK
6
CONTINUOUS
10
167.633
20
-46.228
11
167.57
21
-46.868
0
LINE
8
BLACK
6
CONTINUOUS
10
167.57
20
-46.868
11
167.384
21
-47.4836
0
LINE
8
BLACK
6
CONTINUOUS
10
167.227
20
-45.0372
11
166.941
21
-44.4987
0
LINE
8
BLACK
6
CONTINUOUS
10
166.941
20
-44.4987
11
166.555
21
-44.026
0
LINE
8
BLACK
6
CONTINUOUS
10
166.555
20
-44.026
11
166.085
21
-43.6373
0
LINE
8
BLACK
6
CONTINUOUS
10
166.085
20
-43.6373
11
165.549
21
-43.3472
0
LINE
8
BLACK
6
CONTINUOUS
10
165.549
20
-43.3472
11
164.966
21
-43.1668
0
LINE
8
BLACK
6
CONTINUOUS
10
164.966
20
-43.1668
11
164.36
21
-43.1031
0
LINE
8
BLACK
6
CONTINUOUS
10
164.36
20
-43.1031
11
163.752
21
-43.1584
0
LINE
8
BLACK
6
CONTINUOUS
10
163.752
20
-43.1584
11
163.167
21
-43.3305
0
LINE
8
BLACK
6
CONTINUOUS
10
163.167
20
-43.3305
11
162.627
21
-43.6131
0
LINE
8
BLACK
6
CONTINUOUS
10
162.627
20
-43.6131
11
162.152
21
-43.9953
0
LINE
8
BLACK
6
CONTINUOUS
10
162.152
20
-43.9953
11
161.76
21
-44.4625
0
LINE
8
BLACK
6
CONTINUOUS
10
161.76
20
-44.4625
11
161.466
21
-44.9969
0
LINE
8
BLACK
6
CONTINUOUS
10
161.466
20
-44.9969
11
161.281
21
-45.5783
0
LINE
8
BLACK
6
CONTINUOUS
10
161.281
20
-45.5783
11
161.213
21
-46.1844
0
LINE
8
BLACK
6
CONTINUOUS
10
161.213
20
-46.1844
11
161.264
21
-46.7921
0
LINE
8
BLACK
6
CONTINUOUS
10
161.264
20
-46.7921
11
161.432
21
-47.3784
0
LINE
8
BLACK
6
CONTINUOUS
10
161.432
20
-47.3784
11
161.711
21
-47.9208
0
LINE
8
BLACK
6
CONTINUOUS
10
161.711
20
-47.9208
11
162.09
21
-48.3988
0
LINE
8
BLACK
6
CONTINUOUS
10
162.09
20
-48.3988
11
162.555
21
-48.7941
0
LINE
8
BLACK
6
CONTINUOUS
10
162.555
20
-48.7941
11
163.087
21
-49.0916
0
LINE
8
BLACK
6
CONTINUOUS
10
163.087
20
-49.0916
11
163.667
21
-49.2801
0
LINE
8
BLACK
6
CONTINUOUS
10
163.667
20
-49.2801
11
164.273
21
-49.3523
0
LINE
8
BLACK
6
CONTINUOUS
10
164.273
20
-49.3523
11
164.881
21
-49.3055
0
LINE
8
BLACK
6
CONTINUOUS
10
164.881
20
-49.3055
11
165.468
21
-49.1415
0
LINE
8
BLACK
6
CONTINUOUS
10
165.468
20
-49.1415
11
166.012
21
-48.8665
0
LINE
8
BLACK
6
CONTINUOUS
10
166.012
20
-48.8665
11
166.493
21
-48.491
0
LINE
8
BLACK
6
CONTINUOUS
10
166.493
20
-48.491
11
166.892
21
-48.0294
0
LINE
8
BLACK
6
CONTINUOUS
10
166.892
20
-48.0294
11
167.193
21
-47.4991
0
LINE
8
BLACK
6
CONTINUOUS
10
167.193
20
-47.4991
11
167.385
21
-46.9203
0
LINE
8
BLACK
6
CONTINUOUS
10
167.385
20
-46.9203
11
167.462
21
-46.3153
0
LINE
8
BLACK
6
CONTINUOUS
10
167.462
20
-46.3153
11
167.463
21
-46.228
0
LINE
8
BLACK
6
CONTINUOUS
10
167.463
20
-46.228
11
167.403
21
-45.621
0
LINE
8
BLACK
6
CONTINUOUS
10
167.403
20
-45.621
11
167.227
21
-45.0372
0
LINE
8
BLACK
6
CONTINUOUS
10
222.248
20
-47.4836
11
221.946
21
-48.0514
0
LINE
8
BLACK
6
CONTINUOUS
10
221.946
20
-48.0514
11
221.54
21
-48.5498
0
LINE
8
BLACK
6
CONTINUOUS
10
221.54
20
-48.5498
11
221.045
21
-48.9597
0
LINE
8
BLACK
6
CONTINUOUS
10
221.045
20
-48.9597
11
220.479
21
-49.2655
0
LINE
8
BLACK
6
CONTINUOUS
10
220.479
20
-49.2655
11
219.865
21
-49.4557
0
LINE
8
BLACK
6
CONTINUOUS
10
219.865
20
-49.4557
11
219.225
21
-49.5229
0
LINE
8
BLACK
6
CONTINUOUS
10
219.225
20
-49.5229
11
218.585
21
-49.4646
0
LINE
8
BLACK
6
CONTINUOUS
10
218.585
20
-49.4646
11
217.968
21
-49.2831
0
LINE
8
BLACK
6
CONTINUOUS
10
217.968
20
-49.2831
11
217.398
21
-48.9851
0
LINE
8
BLACK
6
CONTINUOUS
10
217.398
20
-48.9851
11
216.897
21
-48.5822
0
LINE
8
BLACK
6
CONTINUOUS
10
216.897
20
-48.5822
11
216.483
21
-48.0896
0
LINE
8
BLACK
6
CONTINUOUS
10
216.483
20
-48.0896
11
216.173
21
-47.526
0
LINE
8
BLACK
6
CONTINUOUS
10
216.173
20
-47.526
11
215.979
21
-46.9131
0
LINE
8
BLACK
6
CONTINUOUS
10
215.979
20
-46.9131
11
215.907
21
-46.274
0
LINE
8
BLACK
6
CONTINUOUS
10
215.907
20
-46.274
11
215.961
21
-45.6332
0
LINE
8
BLACK
6
CONTINUOUS
10
215.961
20
-45.6332
11
216.138
21
-45.015
0
LINE
8
BLACK
6
CONTINUOUS
10
216.138
20
-45.015
11
216.432
21
-44.4431
0
LINE
8
BLACK
6
CONTINUOUS
10
216.432
20
-44.4431
11
216.832
21
-43.9391
0
LINE
8
BLACK
6
CONTINUOUS
10
216.832
20
-43.9391
11
217.321
21
-43.5223
0
LINE
8
BLACK
6
CONTINUOUS
10
217.321
20
-43.5223
11
217.883
21
-43.2086
0
LINE
8
BLACK
6
CONTINUOUS
10
217.883
20
-43.2086
11
218.494
21
-43.0099
0
LINE
8
BLACK
6
CONTINUOUS
10
218.494
20
-43.0099
11
219.133
21
-42.9337
0
LINE
8
BLACK
6
CONTINUOUS
10
219.133
20
-42.9337
11
219.774
21
-42.9831
0
LINE
8
BLACK
6
CONTINUOUS
10
219.774
20
-42.9831
11
220.394
21
-43.156
0
LINE
8
BLACK
6
CONTINUOUS
10
220.394
20
-43.156
11
220.968
21
-43.4459
0
LINE
8
BLACK
6
CONTINUOUS
10
220.968
20
-43.4459
11
221.474
21
-43.8419
0
LINE
8
BLACK
6
CONTINUOUS
10
221.474
20
-43.8419
11
221.894
21
-44.3287
0
LINE
8
BLACK
6
CONTINUOUS
10
221.894
20
-44.3287
11
222.212
21
-44.8878
0
LINE
8
BLACK
6
CONTINUOUS
10
222.212
20
-44.8878
11
222.415
21
-45.498
0
LINE
8
BLACK
6
CONTINUOUS
10
222.415
20
-45.498
11
222.496
21
-46.136
0
LINE
8
BLACK
6
CONTINUOUS
10
222.496
20
-46.136
11
222.497
21
-46.228
0
LINE
8
BLACK
6
CONTINUOUS
10
222.497
20
-46.228
11
222.434
21
-46.868
0
LINE
8
BLACK
6
CONTINUOUS
10
222.434
20
-46.868
11
222.248
21
-47.4836
0
LINE
8
BLACK
6
CONTINUOUS
10
222.091
20
-45.0372
11
221.805
21
-44.4987
0
LINE
8
BLACK
6
CONTINUOUS
10
221.805
20
-44.4987
11
221.419
21
-44.026
0
LINE
8
BLACK
6
CONTINUOUS
10
221.419
20
-44.026
11
220.949
21
-43.6373
0
LINE
8
BLACK
6
CONTINUOUS
10
220.949
20
-43.6373
11
220.413
21
-43.3472
0
LINE
8
BLACK
6
CONTINUOUS
10
220.413
20
-43.3472
11
219.83
21
-43.1668
0
LINE
8
BLACK
6
CONTINUOUS
10
219.83
20
-43.1668
11
219.224
21
-43.1031
0
LINE
8
BLACK
6
CONTINUOUS
10
219.224
20
-43.1031
11
218.616
21
-43.1584
0
LINE
8
BLACK
6
CONTINUOUS
10
218.616
20
-43.1584
11
218.031
21
-43.3305
0
LINE
8
BLACK
6
CONTINUOUS
10
218.031
20
-43.3305
11
217.491
21
-43.6131
0
LINE
8
BLACK
6
CONTINUOUS
10
217.491
20
-43.6131
11
217.016
21
-43.9953
0
LINE
8
BLACK
6
CONTINUOUS
10
217.016
20
-43.9953
11
216.624
21
-44.4625
0
LINE
8
BLACK
6
CONTINUOUS
10
216.624
20
-44.4625
11
216.33
21
-44.9969
0
LINE
8
BLACK
6
CONTINUOUS
10
216.33
20
-44.9969
11
216.145
21
-45.5783
0
LINE
8
BLACK
6
CONTINUOUS
10
216.145
20
-45.5783
11
216.077
21
-46.1844
0
LINE
8
BLACK
6
CONTINUOUS
10
216.077
20
-46.1844
11
216.128
21
-46.7921
0
LINE
8
BLACK
6
CONTINUOUS
10
216.128
20
-46.7921
11
216.296
21
-47.3784
0
LINE
8
BLACK
6
CONTINUOUS
10
216.296
20
-47.3784
11
216.575
21
-47.9208
0
LINE
8
BLACK
6
CONTINUOUS
10
216.575
20
-47.9208
11
216.954
21
-48.3988
0
LINE
8
BLACK
6
CONTINUOUS
10
216.954
20
-48.3988
11
217.419
21
-48.7941
0
LINE
8
BLACK
6
CONTINUOUS
10
217.419
20
-48.7941
11
217.951
21
-49.0916
0
LINE
8
BLACK
6
CONTINUOUS
10
217.951
20
-49.0916
11
218.531
21
-49.2801
0
LINE
8
BLACK
6
CONTINUOUS
10
218.531
20
-49.2801
11
219.137
21
-49.3523
0
LINE
8
BLACK
6
CONTINUOUS
10
219.137
20
-49.3523
11
219.745
21
-49.3055
0
LINE
8
BLACK
6
CONTINUOUS
10
219.745
20
-49.3055
11
220.332
21
-49.1415
0
LINE
8
BLACK
6
CONTINUOUS
10
220.332
20
-49.1415
11
220.876
21
-48.8665
0
LINE
8
BLACK
6
CONTINUOUS
10
220.876
20
-48.8665
11
221.357
21
-48.491
0
LINE
8
BLACK
6
CONTINUOUS
10
221.357
20
-48.491
11
221.756
21
-48.0294
0
LINE
8
BLACK
6
CONTINUOUS
10
221.756
20
-48.0294
11
222.057
21
-47.4991
0
LINE
8
BLACK
6
CONTINUOUS
10
222.057
20
-47.4991
11
222.249
21
-46.9203
0
LINE
8
BLACK
6
CONTINUOUS
10
222.249
20
-46.9203
11
222.326
21
-46.3153
0
LINE
8
BLACK
6
CONTINUOUS
10
222.326
20
-46.3153
11
222.327
21
-46.228
0
LINE
8
BLACK
6
CONTINUOUS
10
222.327
20
-46.228
11
222.267
21
-45.621
0
LINE
8
BLACK
6
CONTINUOUS
10
222.267
20
-45.621
11
222.091
21
-45.0372
0
LINE
8
BLACK
6
CONTINUOUS
10
339.417
20
-124.558
11
339.403
21
-124.553
0
LINE
8
BLACK
6
CONTINUOUS
10
339.403
20
-124.553
11
339.403
21
-124.553
0
LINE
8
BLACK
6
CONTINUOUS
10
339.403
20
-124.553
11
339.399
21
-124.551
0
LINE
8
BLACK
6
CONTINUOUS
10
339.399
20
-124.551
11
339.394
21
-124.548
0
LINE
8
BLACK
6
CONTINUOUS
10
339.394
20
-124.548
11
275.663
21
-93.4645
0
LINE
8
BLACK
6
CONTINUOUS
10
275.663
20
-93.4645
11
266.128
21
-93.4645
0
LINE
8
BLACK
6
CONTINUOUS
10
266.128
20
-93.4645
11
266.12
21
-93.4648
0
LINE
8
BLACK
6
CONTINUOUS
10
266.12
20
-93.4648
11
266.113
21
-93.4638
0
LINE
8
BLACK
6
CONTINUOUS
10
266.113
20
-93.4638
11
266.105
21
-93.463
0
LINE
8
BLACK
6
CONTINUOUS
10
266.105
20
-93.463
11
266.103
21
-93.4623
0
LINE
8
BLACK
6
CONTINUOUS
10
266.103
20
-93.4623
11
266.101
21
-93.462
0
LINE
8
BLACK
6
CONTINUOUS
10
266.101
20
-93.462
11
266.094
21
-93.4595
0
LINE
8
BLACK
6
CONTINUOUS
10
266.094
20
-93.4595
11
266.087
21
-93.4573
0
LINE
8
BLACK
6
CONTINUOUS
10
266.087
20
-93.4573
11
266.084
21
-93.4562
0
LINE
8
BLACK
6
CONTINUOUS
10
266.084
20
-93.4562
11
266.082
21
-93.4554
0
LINE
8
BLACK
6
CONTINUOUS
10
266.082
20
-93.4554
11
266.076
21
-93.4516
0
LINE
8
BLACK
6
CONTINUOUS
10
266.076
20
-93.4516
11
266.069
21
-93.448
0
LINE
8
BLACK
6
CONTINUOUS
10
266.069
20
-93.448
11
266.064
21
-93.4434
0
LINE
8
BLACK
6
CONTINUOUS
10
266.064
20
-93.4434
11
241.267
21
-75.1645
0
LINE
8
BLACK
6
CONTINUOUS
10
241.267
20
-75.1645
11
196.64
21
-75.1645
0
LINE
8
BLACK
6
CONTINUOUS
10
196.64
20
-75.1645
11
196.636
21
-75.1649
0
LINE
8
BLACK
6
CONTINUOUS
10
196.636
20
-75.1649
11
196.631
21
-75.1645
0
LINE
8
BLACK
6
CONTINUOUS
10
196.631
20
-75.1645
11
196.631
21
-75.1645
0
LINE
8
BLACK
6
CONTINUOUS
10
196.631
20
-75.1645
11
196.62
21
-75.1634
0
LINE
8
BLACK
6
CONTINUOUS
10
196.62
20
-75.1634
11
196.616
21
-75.163
0
LINE
8
BLACK
6
CONTINUOUS
10
196.616
20
-75.163
11
196.607
21
-75.1604
0
LINE
8
BLACK
6
CONTINUOUS
10
196.607
20
-75.1604
11
196.597
21
-75.1573
0
LINE
8
BLACK
6
CONTINUOUS
10
196.597
20
-75.1573
11
196.58
21
-75.148
0
LINE
8
BLACK
6
CONTINUOUS
10
196.58
20
-75.148
11
196.572
21
-75.1416
0
LINE
8
BLACK
6
CONTINUOUS
10
196.572
20
-75.1416
11
196.568
21
-75.1386
0
LINE
8
BLACK
6
CONTINUOUS
10
196.568
20
-75.1386
11
196.568
21
-75.1386
0
LINE
8
BLACK
6
CONTINUOUS
10
196.568
20
-75.1386
11
196.564
21
-75.1355
0
LINE
8
BLACK
6
CONTINUOUS
10
196.564
20
-75.1355
11
196.561
21
-75.1317
0
LINE
8
BLACK
6
CONTINUOUS
10
196.561
20
-75.1317
11
193.033
21
-71.6031
0
LINE
8
BLACK
6
CONTINUOUS
10
193.033
20
-71.6031
11
193.029
21
-71.6
0
LINE
8
BLACK
6
CONTINUOUS
10
193.029
20
-71.6
11
193.016
21
-71.5848
0
LINE
8
BLACK
6
CONTINUOUS
10
193.016
20
-71.5848
11
193.007
21
-71.5674
0
LINE
8
BLACK
6
CONTINUOUS
10
193.007
20
-71.5674
11
193.001
21
-71.5485
0
LINE
8
BLACK
6
CONTINUOUS
10
193.001
20
-71.5485
11
193
21
-71.5338
0
LINE
8
BLACK
6
CONTINUOUS
10
193
20
-71.5338
11
193
21
-71.5338
0
LINE
8
BLACK
6
CONTINUOUS
10
193
20
-71.5338
11
193
21
-71.5289
0
LINE
8
BLACK
6
CONTINUOUS
10
193
20
-71.5289
11
193
21
-71.524
0
LINE
8
BLACK
6
CONTINUOUS
10
193
20
-71.524
11
193
21
-69.1289
0
LINE
8
BLACK
6
CONTINUOUS
10
193
20
-69.1289
11
191.2
21
-69.1289
0
LINE
8
BLACK
6
CONTINUOUS
10
191.2
20
-69.1289
11
191.2
21
-71.524
0
LINE
8
BLACK
6
CONTINUOUS
10
191.2
20
-71.524
11
191.2
21
-71.5289
0
LINE
8
BLACK
6
CONTINUOUS
10
191.2
20
-71.5289
11
191.2
21
-71.5338
0
LINE
8
BLACK
6
CONTINUOUS
10
191.2
20
-71.5338
11
191.2
21
-71.5338
0
LINE
8
BLACK
6
CONTINUOUS
10
191.2
20
-71.5338
11
191.199
21
-71.5485
0
LINE
8
BLACK
6
CONTINUOUS
10
191.199
20
-71.5485
11
191.193
21
-71.5674
0
LINE
8
BLACK
6
CONTINUOUS
10
191.193
20
-71.5674
11
191.184
21
-71.5848
0
LINE
8
BLACK
6
CONTINUOUS
10
191.184
20
-71.5848
11
191.184
21
-71.5848
0
LINE
8
BLACK
6
CONTINUOUS
10
191.184
20
-71.5848
11
191.174
21
-71.5962
0
LINE
8
BLACK
6
CONTINUOUS
10
191.174
20
-71.5962
11
191.174
21
-71.5962
0
LINE
8
BLACK
6
CONTINUOUS
10
191.174
20
-71.5962
11
191.171
21
-71.6
0
LINE
8
BLACK
6
CONTINUOUS
10
191.171
20
-71.6
11
191.167
21
-71.6031
0
LINE
8
BLACK
6
CONTINUOUS
10
191.167
20
-71.6031
11
187.639
21
-75.1317
0
LINE
8
BLACK
6
CONTINUOUS
10
187.639
20
-75.1317
11
187.636
21
-75.1355
0
LINE
8
BLACK
6
CONTINUOUS
10
187.636
20
-75.1355
11
187.62
21
-75.148
0
LINE
8
BLACK
6
CONTINUOUS
10
187.62
20
-75.148
11
187.603
21
-75.1573
0
LINE
8
BLACK
6
CONTINUOUS
10
187.603
20
-75.1573
11
187.584
21
-75.163
0
LINE
8
BLACK
6
CONTINUOUS
10
187.584
20
-75.163
11
187.569
21
-75.1645
0
LINE
8
BLACK
6
CONTINUOUS
10
187.569
20
-75.1645
11
187.569
21
-75.1645
0
LINE
8
BLACK
6
CONTINUOUS
10
187.569
20
-75.1645
11
187.564
21
-75.1649
0
LINE
8
BLACK
6
CONTINUOUS
10
187.564
20
-75.1649
11
187.56
21
-75.1645
0
LINE
8
BLACK
6
CONTINUOUS
10
187.56
20
-75.1645
11
142.933
21
-75.1645
0
LINE
8
BLACK
6
CONTINUOUS
10
142.933
20
-75.1645
11
118.136
21
-93.4434
0
LINE
8
BLACK
6
CONTINUOUS
10
118.136
20
-93.4434
11
118.131
21
-93.448
0
LINE
8
BLACK
6
CONTINUOUS
10
118.131
20
-93.448
11
118.124
21
-93.4516
0
LINE
8
BLACK
6
CONTINUOUS
10
118.124
20
-93.4516
11
118.118
21
-93.4554
0
LINE
8
BLACK
6
CONTINUOUS
10
118.118
20
-93.4554
11
118.116
21
-93.4562
0
LINE
8
BLACK
6
CONTINUOUS
10
118.116
20
-93.4562
11
118.113
21
-93.4573
0
LINE
8
BLACK
6
CONTINUOUS
10
118.113
20
-93.4573
11
118.106
21
-93.4595
0
LINE
8
BLACK
6
CONTINUOUS
10
118.106
20
-93.4595
11
118.099
21
-93.462
0
LINE
8
BLACK
6
CONTINUOUS
10
118.099
20
-93.462
11
118.097
21
-93.4623
0
LINE
8
BLACK
6
CONTINUOUS
10
118.097
20
-93.4623
11
118.095
21
-93.463
0
LINE
8
BLACK
6
CONTINUOUS
10
118.095
20
-93.463
11
118.087
21
-93.4638
0
LINE
8
BLACK
6
CONTINUOUS
10
118.087
20
-93.4638
11
118.08
21
-93.4648
0
LINE
8
BLACK
6
CONTINUOUS
10
118.08
20
-93.4648
11
118.072
21
-93.4645
0
LINE
8
BLACK
6
CONTINUOUS
10
118.072
20
-93.4645
11
108.537
21
-93.4645
0
LINE
8
BLACK
6
CONTINUOUS
10
108.537
20
-93.4645
11
44.8056
21
-124.548
0
LINE
8
BLACK
6
CONTINUOUS
10
44.8056
20
-124.548
11
44.8014
21
-124.551
0
LINE
8
BLACK
6
CONTINUOUS
10
44.8014
20
-124.551
11
44.7829
21
-124.558
0
LINE
8
BLACK
6
CONTINUOUS
10
44.7829
20
-124.558
11
44.7635
21
-124.561
0
LINE
8
BLACK
6
CONTINUOUS
10
44.7635
20
-124.561
11
44.7438
21
-124.56
0
LINE
8
BLACK
6
CONTINUOUS
10
44.7438
20
-124.56
11
44.7337
21
-124.558
0
LINE
8
BLACK
6
CONTINUOUS
10
44.7337
20
-124.558
11
44.7294
21
-124.557
0
LINE
8
BLACK
6
CONTINUOUS
10
44.7294
20
-124.557
11
44.7294
21
-124.557
0
LINE
8
BLACK
6
CONTINUOUS
10
44.7294
20
-124.557
11
44.7246
21
-124.556
0
LINE
8
BLACK
6
CONTINUOUS
10
44.7246
20
-124.556
11
44.7202
21
-124.554
0
LINE
8
BLACK
6
CONTINUOUS
10
44.7202
20
-124.554
11
40.0018
21
-122.929
0
LINE
8
BLACK
6
CONTINUOUS
10
40.0018
20
-122.929
11
39.997
21
-122.928
0
LINE
8
BLACK
6
CONTINUOUS
10
39.997
20
-122.928
11
39.9791
21
-122.92
0
LINE
8
BLACK
6
CONTINUOUS
10
39.9791
20
-122.92
11
39.9632
21
-122.908
0
LINE
8
BLACK
6
CONTINUOUS
10
39.9632
20
-122.908
11
39.9498
21
-122.894
0
LINE
8
BLACK
6
CONTINUOUS
10
39.9498
20
-122.894
11
39.942
21
-122.881
0
LINE
8
BLACK
6
CONTINUOUS
10
39.942
20
-122.881
11
39.942
21
-122.881
0
LINE
8
BLACK
6
CONTINUOUS
10
39.942
20
-122.881
11
39.9394
21
-122.877
0
LINE
8
BLACK
6
CONTINUOUS
10
39.9394
20
-122.877
11
39.9377
21
-122.872
0
LINE
8
BLACK
6
CONTINUOUS
10
39.9377
20
-122.872
11
17.9889
21
-77.8703
0
LINE
8
BLACK
6
CONTINUOUS
10
17.9889
20
-77.8703
11
17.9863
21
-77.8661
0
LINE
8
BLACK
6
CONTINUOUS
10
17.9863
20
-77.8661
11
17.9794
21
-77.8477
0
LINE
8
BLACK
6
CONTINUOUS
10
17.9794
20
-77.8477
11
17.9763
21
-77.8282
0
LINE
8
BLACK
6
CONTINUOUS
10
17.9763
20
-77.8282
11
17.977
21
-77.8085
0
LINE
8
BLACK
6
CONTINUOUS
10
17.977
20
-77.8085
11
17.9804
21
-77.7942
0
LINE
8
BLACK
6
CONTINUOUS
10
17.9804
20
-77.7942
11
17.9804
21
-77.7942
0
LINE
8
BLACK
6
CONTINUOUS
10
17.9804
20
-77.7942
11
17.9816
21
-77.7894
0
LINE
8
BLACK
6
CONTINUOUS
10
17.9816
20
-77.7894
11
17.9836
21
-77.7849
0
LINE
8
BLACK
6
CONTINUOUS
10
17.9836
20
-77.7849
11
19.6083
21
-73.0666
0
LINE
8
BLACK
6
CONTINUOUS
10
19.6083
20
-73.0666
11
19.6094
21
-73.0618
0
LINE
8
BLACK
6
CONTINUOUS
10
19.6094
20
-73.0618
11
19.6115
21
-73.0573
0
LINE
8
BLACK
6
CONTINUOUS
10
19.6115
20
-73.0573
11
19.6115
21
-73.0573
0
LINE
8
BLACK
6
CONTINUOUS
10
19.6115
20
-73.0573
11
19.6176
21
-73.0439
0
LINE
8
BLACK
6
CONTINUOUS
10
19.6176
20
-73.0439
11
19.6292
21
-73.0279
0
LINE
8
BLACK
6
CONTINUOUS
10
19.6292
20
-73.0279
11
19.6436
21
-73.0145
0
LINE
8
BLACK
6
CONTINUOUS
10
19.6436
20
-73.0145
11
19.6604
21
-73.0042
0
LINE
8
BLACK
6
CONTINUOUS
10
19.6604
20
-73.0042
11
19.665
21
-73.0025
0
LINE
8
BLACK
6
CONTINUOUS
10
19.665
20
-73.0025
11
48.125
21
-59.1216
0
LINE
8
BLACK
6
CONTINUOUS
10
48.125
20
-59.1216
11
48.125
21
-21.4549
0
LINE
8
BLACK
6
CONTINUOUS
10
48.125
20
-21.4549
11
48.1245
21
-21.45
0
LINE
8
BLACK
6
CONTINUOUS
10
48.1245
20
-21.45
11
48.1264
21
-21.4304
0
LINE
8
BLACK
6
CONTINUOUS
10
48.1264
20
-21.4304
11
48.1322
21
-21.4115
0
LINE
8
BLACK
6
CONTINUOUS
10
48.1322
20
-21.4115
11
48.1415
21
-21.3942
0
LINE
8
BLACK
6
CONTINUOUS
10
48.1415
20
-21.3942
11
48.1508
21
-21.3828
0
LINE
8
BLACK
6
CONTINUOUS
10
48.1508
20
-21.3828
11
48.1508
21
-21.3828
0
LINE
8
BLACK
6
CONTINUOUS
10
48.1508
20
-21.3828
11
48.1539
21
-21.3789
0
LINE
8
BLACK
6
CONTINUOUS
10
48.1539
20
-21.3789
11
48.1578
21
-21.3758
0
LINE
8
BLACK
6
CONTINUOUS
10
48.1578
20
-21.3758
11
51.6864
21
-17.8472
0
LINE
8
BLACK
6
CONTINUOUS
10
51.6864
20
-17.8472
11
51.6895
21
-17.8434
0
LINE
8
BLACK
6
CONTINUOUS
10
51.6895
20
-17.8434
11
51.7047
21
-17.8309
0
LINE
8
BLACK
6
CONTINUOUS
10
51.7047
20
-17.8309
11
51.7221
21
-17.8216
0
LINE
8
BLACK
6
CONTINUOUS
10
51.7221
20
-17.8216
11
51.7352
21
-17.8176
0
LINE
8
BLACK
6
CONTINUOUS
10
51.7352
20
-17.8176
11
51.7409
21
-17.8159
0
LINE
8
BLACK
6
CONTINUOUS
10
51.7409
20
-17.8159
11
51.7429
21
-17.8157
0
LINE
8
BLACK
6
CONTINUOUS
10
51.7429
20
-17.8157
11
51.7556
21
-17.8145
0
LINE
8
BLACK
6
CONTINUOUS
10
51.7556
20
-17.8145
11
51.7556
21
-17.8145
0
LINE
8
BLACK
6
CONTINUOUS
10
51.7556
20
-17.8145
11
51.7605
21
-17.814
0
LINE
8
BLACK
6
CONTINUOUS
10
51.7605
20
-17.814
11
51.7654
21
-17.8145
0
LINE
8
BLACK
6
CONTINUOUS
10
51.7654
20
-17.8145
11
86.2836
21
-17.8145
0
LINE
8
BLACK
6
CONTINUOUS
10
86.2836
20
-17.8145
11
88.2508
21
-15.8472
0
LINE
8
BLACK
6
CONTINUOUS
10
88.2508
20
-15.8472
11
88.2539
21
-15.8434
0
LINE
8
BLACK
6
CONTINUOUS
10
88.2539
20
-15.8434
11
88.2692
21
-15.8309
0
LINE
8
BLACK
6
CONTINUOUS
10
88.2692
20
-15.8309
11
88.2865
21
-15.8216
0
LINE
8
BLACK
6
CONTINUOUS
10
88.2865
20
-15.8216
11
88.2997
21
-15.8176
0
LINE
8
BLACK
6
CONTINUOUS
10
88.2997
20
-15.8176
11
88.3054
21
-15.8159
0
LINE
8
BLACK
6
CONTINUOUS
10
88.3054
20
-15.8159
11
88.3074
21
-15.8157
0
LINE
8
BLACK
6
CONTINUOUS
10
88.3074
20
-15.8157
11
88.3201
21
-15.8145
0
LINE
8
BLACK
6
CONTINUOUS
10
88.3201
20
-15.8145
11
88.3201
21
-15.8145
0
LINE
8
BLACK
6
CONTINUOUS
10
88.3201
20
-15.8145
11
88.325
21
-15.814
0
LINE
8
BLACK
6
CONTINUOUS
10
88.325
20
-15.814
11
88.3299
21
-15.8145
0
LINE
8
BLACK
6
CONTINUOUS
10
88.3299
20
-15.8145
11
105.334
21
-15.8145
0
LINE
8
BLACK
6
CONTINUOUS
10
105.334
20
-15.8145
11
107.301
21
-13.8472
0
LINE
8
BLACK
6
CONTINUOUS
10
107.301
20
-13.8472
11
107.304
21
-13.8434
0
LINE
8
BLACK
6
CONTINUOUS
10
107.304
20
-13.8434
11
107.308
21
-13.8403
0
LINE
8
BLACK
6
CONTINUOUS
10
107.308
20
-13.8403
11
107.308
21
-13.8403
0
LINE
8
BLACK
6
CONTINUOUS
10
107.308
20
-13.8403
11
107.311
21
-13.8373
0
LINE
8
BLACK
6
CONTINUOUS
10
107.311
20
-13.8373
11
107.319
21
-13.8309
0
LINE
8
BLACK
6
CONTINUOUS
10
107.319
20
-13.8309
11
107.337
21
-13.8216
0
LINE
8
BLACK
6
CONTINUOUS
10
107.337
20
-13.8216
11
107.347
21
-13.8186
0
LINE
8
BLACK
6
CONTINUOUS
10
107.347
20
-13.8186
11
107.355
21
-13.8159
0
LINE
8
BLACK
6
CONTINUOUS
10
107.355
20
-13.8159
11
107.359
21
-13.8156
0
LINE
8
BLACK
6
CONTINUOUS
10
107.359
20
-13.8156
11
107.37
21
-13.8145
0
LINE
8
BLACK
6
CONTINUOUS
10
107.37
20
-13.8145
11
107.37
21
-13.8145
0
LINE
8
BLACK
6
CONTINUOUS
10
107.37
20
-13.8145
11
107.375
21
-13.814
0
LINE
8
BLACK
6
CONTINUOUS
10
107.375
20
-13.814
11
107.38
21
-13.8145
0
LINE
8
BLACK
6
CONTINUOUS
10
107.38
20
-13.8145
11
122.42
21
-13.8145
0
LINE
8
BLACK
6
CONTINUOUS
10
122.42
20
-13.8145
11
122.425
21
-13.814
0
LINE
8
BLACK
6
CONTINUOUS
10
122.425
20
-13.814
11
122.43
21
-13.8145
0
LINE
8
BLACK
6
CONTINUOUS
10
122.43
20
-13.8145
11
122.43
21
-13.8145
0
LINE
8
BLACK
6
CONTINUOUS
10
122.43
20
-13.8145
11
122.445
21
-13.8159
0
LINE
8
BLACK
6
CONTINUOUS
10
122.445
20
-13.8159
11
122.463
21
-13.8216
0
LINE
8
BLACK
6
CONTINUOUS
10
122.463
20
-13.8216
11
122.481
21
-13.8309
0
LINE
8
BLACK
6
CONTINUOUS
10
122.481
20
-13.8309
11
122.496
21
-13.8434
0
LINE
8
BLACK
6
CONTINUOUS
10
122.496
20
-13.8434
11
122.499
21
-13.8472
0
LINE
8
BLACK
6
CONTINUOUS
10
122.499
20
-13.8472
11
124.466
21
-15.8145
0
LINE
8
BLACK
6
CONTINUOUS
10
124.466
20
-15.8145
11
141.47
21
-15.8145
0
LINE
8
BLACK
6
CONTINUOUS
10
141.47
20
-15.8145
11
141.475
21
-15.814
0
LINE
8
BLACK
6
CONTINUOUS
10
141.475
20
-15.814
11
141.48
21
-15.8145
0
LINE
8
BLACK
6
CONTINUOUS
10
141.48
20
-15.8145
11
141.48
21
-15.8145
0
LINE
8
BLACK
6
CONTINUOUS
10
141.48
20
-15.8145
11
141.495
21
-15.8159
0
LINE
8
BLACK
6
CONTINUOUS
10
141.495
20
-15.8159
11
141.513
21
-15.8216
0
LINE
8
BLACK
6
CONTINUOUS
10
141.513
20
-15.8216
11
141.531
21
-15.8309
0
LINE
8
BLACK
6
CONTINUOUS
10
141.531
20
-15.8309
11
141.546
21
-15.8434
0
LINE
8
BLACK
6
CONTINUOUS
10
141.546
20
-15.8434
11
141.549
21
-15.8472
0
LINE
8
BLACK
6
CONTINUOUS
10
141.549
20
-15.8472
11
143.516
21
-17.8145
0
LINE
8
BLACK
6
CONTINUOUS
10
143.516
20
-17.8145
11
187.56
21
-17.8145
0
LINE
8
BLACK
6
CONTINUOUS
10
187.56
20
-17.8145
11
187.564
21
-17.814
0
LINE
8
BLACK
6
CONTINUOUS
10
187.564
20
-17.814
11
187.569
21
-17.8145
0
LINE
8
BLACK
6
CONTINUOUS
10
187.569
20
-17.8145
11
187.569
21
-17.8145
0
LINE
8
BLACK
6
CONTINUOUS
10
187.569
20
-17.8145
11
187.584
21
-17.8159
0
LINE
8
BLACK
6
CONTINUOUS
10
187.584
20
-17.8159
11
187.603
21
-17.8216
0
LINE
8
BLACK
6
CONTINUOUS
10
187.603
20
-17.8216
11
187.62
21
-17.8309
0
LINE
8
BLACK
6
CONTINUOUS
10
187.62
20
-17.8309
11
187.636
21
-17.8434
0
LINE
8
BLACK
6
CONTINUOUS
10
187.636
20
-17.8434
11
187.639
21
-17.8472
0
LINE
8
BLACK
6
CONTINUOUS
10
187.639
20
-17.8472
11
191.167
21
-21.3758
0
LINE
8
BLACK
6
CONTINUOUS
10
191.167
20
-21.3758
11
191.171
21
-21.3789
0
LINE
8
BLACK
6
CONTINUOUS
10
191.171
20
-21.3789
11
191.174
21
-21.3828
0
LINE
8
BLACK
6
CONTINUOUS
10
191.174
20
-21.3828
11
191.174
21
-21.3828
0
LINE
8
BLACK
6
CONTINUOUS
10
191.174
20
-21.3828
11
191.177
21
-21.3864
0
LINE
8
BLACK
6
CONTINUOUS
10
191.177
20
-21.3864
11
191.184
21
-21.3942
0
LINE
8
BLACK
6
CONTINUOUS
10
191.184
20
-21.3942
11
191.193
21
-21.4115
0
LINE
8
BLACK
6
CONTINUOUS
10
191.193
20
-21.4115
11
191.193
21
-21.4115
0
LINE
8
BLACK
6
CONTINUOUS
10
191.193
20
-21.4115
11
191.199
21
-21.4304
0
LINE
8
BLACK
6
CONTINUOUS
10
191.199
20
-21.4304
11
191.199
21
-21.4304
0
LINE
8
BLACK
6
CONTINUOUS
10
191.199
20
-21.4304
11
191.2
21
-21.4451
0
LINE
8
BLACK
6
CONTINUOUS
10
191.2
20
-21.4451
11
191.2
21
-21.4451
0
LINE
8
BLACK
6
CONTINUOUS
10
191.2
20
-21.4451
11
191.2
21
-21.45
0
LINE
8
BLACK
6
CONTINUOUS
10
191.2
20
-21.45
11
191.2
21
-21.4549
0
LINE
8
BLACK
6
CONTINUOUS
10
191.2
20
-21.4549
11
191.2
21
-23.85
0
LINE
8
BLACK
6
CONTINUOUS
10
191.2
20
-23.85
11
193
21
-23.85
0
LINE
8
BLACK
6
CONTINUOUS
10
193
20
-23.85
11
193
21
-21.4549
0
LINE
8
BLACK
6
CONTINUOUS
10
193
20
-21.4549
11
193
21
-21.45
0
LINE
8
BLACK
6
CONTINUOUS
10
193
20
-21.45
11
193
21
-21.4451
0
LINE
8
BLACK
6
CONTINUOUS
10
193
20
-21.4451
11
193
21
-21.4451
0
LINE
8
BLACK
6
CONTINUOUS
10
193
20
-21.4451
11
193.001
21
-21.4304
0
LINE
8
BLACK
6
CONTINUOUS
10
193.001
20
-21.4304
11
193.001
21
-21.4304
0
LINE
8
BLACK
6
CONTINUOUS
10
193.001
20
-21.4304
11
193.003
21
-21.4247
0
LINE
8
BLACK
6
CONTINUOUS
10
193.003
20
-21.4247
11
193.007
21
-21.4115
0
LINE
8
BLACK
6
CONTINUOUS
10
193.007
20
-21.4115
11
193.016
21
-21.3942
0
LINE
8
BLACK
6
CONTINUOUS
10
193.016
20
-21.3942
11
193.029
21
-21.3789
0
LINE
8
BLACK
6
CONTINUOUS
10
193.029
20
-21.3789
11
193.033
21
-21.3758
0
LINE
8
BLACK
6
CONTINUOUS
10
193.033
20
-21.3758
11
196.561
21
-17.8472
0
LINE
8
BLACK
6
CONTINUOUS
10
196.561
20
-17.8472
11
196.564
21
-17.8434
0
LINE
8
BLACK
6
CONTINUOUS
10
196.564
20
-17.8434
11
196.568
21
-17.8403
0
LINE
8
BLACK
6
CONTINUOUS
10
196.568
20
-17.8403
11
196.568
21
-17.8403
0
LINE
8
BLACK
6
CONTINUOUS
10
196.568
20
-17.8403
11
196.572
21
-17.8373
0
LINE
8
BLACK
6
CONTINUOUS
10
196.572
20
-17.8373
11
196.58
21
-17.8309
0
LINE
8
BLACK
6
CONTINUOUS
10
196.58
20
-17.8309
11
196.597
21
-17.8216
0
LINE
8
BLACK
6
CONTINUOUS
10
196.597
20
-17.8216
11
196.616
21
-17.8159
0
LINE
8
BLACK
6
CONTINUOUS
10
196.616
20
-17.8159
11
196.631
21
-17.8145
0
LINE
8
BLACK
6
CONTINUOUS
10
196.631
20
-17.8145
11
196.631
21
-17.8145
0
LINE
8
BLACK
6
CONTINUOUS
10
196.631
20
-17.8145
11
196.636
21
-17.814
0
LINE
8
BLACK
6
CONTINUOUS
10
196.636
20
-17.814
11
196.64
21
-17.8145
0
LINE
8
BLACK
6
CONTINUOUS
10
196.64
20
-17.8145
11
240.684
21
-17.8145
0
LINE
8
BLACK
6
CONTINUOUS
10
240.684
20
-17.8145
11
242.651
21
-15.8472
0
LINE
8
BLACK
6
CONTINUOUS
10
242.651
20
-15.8472
11
242.654
21
-15.8434
0
LINE
8
BLACK
6
CONTINUOUS
10
242.654
20
-15.8434
11
242.658
21
-15.8403
0
LINE
8
BLACK
6
CONTINUOUS
10
242.658
20
-15.8403
11
242.658
21
-15.8403
0
LINE
8
BLACK
6
CONTINUOUS
10
242.658
20
-15.8403
11
242.661
21
-15.8373
0
LINE
8
BLACK
6
CONTINUOUS
10
242.661
20
-15.8373
11
242.669
21
-15.8309
0
LINE
8
BLACK
6
CONTINUOUS
10
242.669
20
-15.8309
11
242.687
21
-15.8216
0
LINE
8
BLACK
6
CONTINUOUS
10
242.687
20
-15.8216
11
242.697
21
-15.8186
0
LINE
8
BLACK
6
CONTINUOUS
10
242.697
20
-15.8186
11
242.705
21
-15.8159
0
LINE
8
BLACK
6
CONTINUOUS
10
242.705
20
-15.8159
11
242.709
21
-15.8156
0
LINE
8
BLACK
6
CONTINUOUS
10
242.709
20
-15.8156
11
242.72
21
-15.8145
0
LINE
8
BLACK
6
CONTINUOUS
10
242.72
20
-15.8145
11
242.72
21
-15.8145
0
LINE
8
BLACK
6
CONTINUOUS
10
242.72
20
-15.8145
11
242.725
21
-15.814
0
LINE
8
BLACK
6
CONTINUOUS
10
242.725
20
-15.814
11
242.73
21
-15.8145
0
LINE
8
BLACK
6
CONTINUOUS
10
242.73
20
-15.8145
11
259.734
21
-15.8145
0
LINE
8
BLACK
6
CONTINUOUS
10
259.734
20
-15.8145
11
261.701
21
-13.8472
0
LINE
8
BLACK
6
CONTINUOUS
10
261.701
20
-13.8472
11
261.704
21
-13.8434
0
LINE
8
BLACK
6
CONTINUOUS
10
261.704
20
-13.8434
11
261.719
21
-13.8309
0
LINE
8
BLACK
6
CONTINUOUS
10
261.719
20
-13.8309
11
261.737
21
-13.8216
0
LINE
8
BLACK
6
CONTINUOUS
10
261.737
20
-13.8216
11
261.75
21
-13.8176
0
LINE
8
BLACK
6
CONTINUOUS
10
261.75
20
-13.8176
11
261.755
21
-13.8159
0
LINE
8
BLACK
6
CONTINUOUS
10
261.755
20
-13.8159
11
261.757
21
-13.8157
0
LINE
8
BLACK
6
CONTINUOUS
10
261.757
20
-13.8157
11
261.77
21
-13.8145
0
LINE
8
BLACK
6
CONTINUOUS
10
261.77
20
-13.8145
11
261.77
21
-13.8145
0
LINE
8
BLACK
6
CONTINUOUS
10
261.77
20
-13.8145
11
261.775
21
-13.814
0
LINE
8
BLACK
6
CONTINUOUS
10
261.775
20
-13.814
11
261.78
21
-13.8145
0
LINE
8
BLACK
6
CONTINUOUS
10
261.78
20
-13.8145
11
276.82
21
-13.8145
0
LINE
8
BLACK
6
CONTINUOUS
10
276.82
20
-13.8145
11
276.825
21
-13.814
0
LINE
8
BLACK
6
CONTINUOUS
10
276.825
20
-13.814
11
276.83
21
-13.8145
0
LINE
8
BLACK
6
CONTINUOUS
10
276.83
20
-13.8145
11
276.83
21
-13.8145
0
LINE
8
BLACK
6
CONTINUOUS
10
276.83
20
-13.8145
11
276.845
21
-13.8159
0
LINE
8
BLACK
6
CONTINUOUS
10
276.845
20
-13.8159
11
276.863
21
-13.8216
0
LINE
8
BLACK
6
CONTINUOUS
10
276.863
20
-13.8216
11
276.881
21
-13.8309
0
LINE
8
BLACK
6
CONTINUOUS
10
276.881
20
-13.8309
11
276.896
21
-13.8434
0
LINE
8
BLACK
6
CONTINUOUS
10
276.896
20
-13.8434
11
276.899
21
-13.8472
0
LINE
8
BLACK
6
CONTINUOUS
10
276.899
20
-13.8472
11
278.866
21
-15.8145
0
LINE
8
BLACK
6
CONTINUOUS
10
278.866
20
-15.8145
11
295.87
21
-15.8145
0
LINE
8
BLACK
6
CONTINUOUS
10
295.87
20
-15.8145
11
295.875
21
-15.814
0
LINE
8
BLACK
6
CONTINUOUS
10
295.875
20
-15.814
11
295.88
21
-15.8145
0
LINE
8
BLACK
6
CONTINUOUS
10
295.88
20
-15.8145
11
295.88
21
-15.8145
0
LINE
8
BLACK
6
CONTINUOUS
10
295.88
20
-15.8145
11
295.895
21
-15.8159
0
LINE
8
BLACK
6
CONTINUOUS
10
295.895
20
-15.8159
11
295.913
21
-15.8216
0
LINE
8
BLACK
6
CONTINUOUS
10
295.913
20
-15.8216
11
295.931
21
-15.8309
0
LINE
8
BLACK
6
CONTINUOUS
10
295.931
20
-15.8309
11
295.946
21
-15.8434
0
LINE
8
BLACK
6
CONTINUOUS
10
295.946
20
-15.8434
11
295.949
21
-15.8472
0
LINE
8
BLACK
6
CONTINUOUS
10
295.949
20
-15.8472
11
297.916
21
-17.8145
0
LINE
8
BLACK
6
CONTINUOUS
10
297.916
20
-17.8145
11
332.435
21
-17.8145
0
LINE
8
BLACK
6
CONTINUOUS
10
332.435
20
-17.8145
11
332.439
21
-17.814
0
LINE
8
BLACK
6
CONTINUOUS
10
332.439
20
-17.814
11
332.444
21
-17.8145
0
LINE
8
BLACK
6
CONTINUOUS
10
332.444
20
-17.8145
11
332.444
21
-17.8145
0
LINE
8
BLACK
6
CONTINUOUS
10
332.444
20
-17.8145
11
332.459
21
-17.8159
0
LINE
8
BLACK
6
CONTINUOUS
10
332.459
20
-17.8159
11
332.478
21
-17.8216
0
LINE
8
BLACK
6
CONTINUOUS
10
332.478
20
-17.8216
11
332.495
21
-17.8309
0
LINE
8
BLACK
6
CONTINUOUS
10
332.495
20
-17.8309
11
332.511
21
-17.8434
0
LINE
8
BLACK
6
CONTINUOUS
10
332.511
20
-17.8434
11
332.514
21
-17.8472
0
LINE
8
BLACK
6
CONTINUOUS
10
332.514
20
-17.8472
11
336.042
21
-21.3758
0
LINE
8
BLACK
6
CONTINUOUS
10
336.042
20
-21.3758
11
336.046
21
-21.3789
0
LINE
8
BLACK
6
CONTINUOUS
10
336.046
20
-21.3789
11
336.059
21
-21.3942
0
LINE
8
BLACK
6
CONTINUOUS
10
336.059
20
-21.3942
11
336.068
21
-21.4115
0
LINE
8
BLACK
6
CONTINUOUS
10
336.068
20
-21.4115
11
336.068
21
-21.4115
0
LINE
8
BLACK
6
CONTINUOUS
10
336.068
20
-21.4115
11
336.074
21
-21.4304
0
LINE
8
BLACK
6
CONTINUOUS
10
336.074
20
-21.4304
11
336.074
21
-21.4304
0
LINE
8
BLACK
6
CONTINUOUS
10
336.074
20
-21.4304
11
336.075
21
-21.4451
0
LINE
8
BLACK
6
CONTINUOUS
10
336.075
20
-21.4451
11
336.075
21
-21.4451
0
LINE
8
BLACK
6
CONTINUOUS
10
336.075
20
-21.4451
11
336.075
21
-21.45
0
LINE
8
BLACK
6
CONTINUOUS
10
336.075
20
-21.45
11
336.075
21
-21.4549
0
LINE
8
BLACK
6
CONTINUOUS
10
336.075
20
-21.4549
11
336.075
21
-59.1216
0
LINE
8
BLACK
6
CONTINUOUS
10
336.075
20
-59.1216
11
364.535
21
-73.0025
0
LINE
8
BLACK
6
CONTINUOUS
10
364.535
20
-73.0025
11
364.54
21
-73.0042
0
LINE
8
BLACK
6
CONTINUOUS
10
364.54
20
-73.0042
11
364.544
21
-73.0068
0
LINE
8
BLACK
6
CONTINUOUS
10
364.544
20
-73.0068
11
364.544
21
-73.0068
0
LINE
8
BLACK
6
CONTINUOUS
10
364.544
20
-73.0068
11
364.556
21
-73.0145
0
LINE
8
BLACK
6
CONTINUOUS
10
364.556
20
-73.0145
11
364.571
21
-73.0279
0
LINE
8
BLACK
6
CONTINUOUS
10
364.571
20
-73.0279
11
364.582
21
-73.0439
0
LINE
8
BLACK
6
CONTINUOUS
10
364.582
20
-73.0439
11
364.591
21
-73.0618
0
LINE
8
BLACK
6
CONTINUOUS
10
364.591
20
-73.0618
11
364.592
21
-73.0666
0
LINE
8
BLACK
6
CONTINUOUS
10
364.592
20
-73.0666
11
366.216
21
-77.7849
0
LINE
8
BLACK
6
CONTINUOUS
10
366.216
20
-77.7849
11
366.218
21
-77.7894
0
LINE
8
BLACK
6
CONTINUOUS
10
366.218
20
-77.7894
11
366.223
21
-77.8085
0
LINE
8
BLACK
6
CONTINUOUS
10
366.223
20
-77.8085
11
366.224
21
-77.8275
0
LINE
8
BLACK
6
CONTINUOUS
10
366.224
20
-77.8275
11
366.224
21
-77.8282
0
LINE
8
BLACK
6
CONTINUOUS
10
366.224
20
-77.8282
11
366.221
21
-77.8477
0
LINE
8
BLACK
6
CONTINUOUS
10
366.221
20
-77.8477
11
366.214
21
-77.8661
0
LINE
8
BLACK
6
CONTINUOUS
10
366.214
20
-77.8661
11
366.211
21
-77.8703
0
LINE
8
BLACK
6
CONTINUOUS
10
366.211
20
-77.8703
11
344.262
21
-122.872
0
LINE
8
BLACK
6
CONTINUOUS
10
344.262
20
-122.872
11
344.261
21
-122.877
0
LINE
8
BLACK
6
CONTINUOUS
10
344.261
20
-122.877
11
344.25
21
-122.894
0
LINE
8
BLACK
6
CONTINUOUS
10
344.25
20
-122.894
11
344.237
21
-122.908
0
LINE
8
BLACK
6
CONTINUOUS
10
344.237
20
-122.908
11
344.221
21
-122.92
0
LINE
8
BLACK
6
CONTINUOUS
10
344.221
20
-122.92
11
344.207
21
-122.926
0
LINE
8
BLACK
6
CONTINUOUS
10
344.207
20
-122.926
11
344.207
21
-122.926
0
LINE
8
BLACK
6
CONTINUOUS
10
344.207
20
-122.926
11
344.203
21
-122.928
0
LINE
8
BLACK
6
CONTINUOUS
10
344.203
20
-122.928
11
344.198
21
-122.929
0
LINE
8
BLACK
6
CONTINUOUS
10
344.198
20
-122.929
11
339.48
21
-124.554
0
LINE
8
BLACK
6
CONTINUOUS
10
339.48
20
-124.554
11
339.475
21
-124.556
0
LINE
8
BLACK
6
CONTINUOUS
10
339.475
20
-124.556
11
339.471
21
-124.557
0
LINE
8
BLACK
6
CONTINUOUS
10
339.471
20
-124.557
11
339.471
21
-124.557
0
LINE
8
BLACK
6
CONTINUOUS
10
339.471
20
-124.557
11
339.467
21
-124.558
0
LINE
8
BLACK
6
CONTINUOUS
10
339.467
20
-124.558
11
339.456
21
-124.56
0
LINE
8
BLACK
6
CONTINUOUS
10
339.456
20
-124.56
11
339.437
21
-124.561
0
LINE
8
BLACK
6
CONTINUOUS
10
339.437
20
-124.561
11
339.437
21
-124.561
0
LINE
8
BLACK
6
CONTINUOUS
10
339.437
20
-124.561
11
339.437
21
-124.561
0
LINE
8
BLACK
6
CONTINUOUS
10
339.437
20
-124.561
11
339.417
21
-124.558
0
LINE
8
BLACK
6
CONTINUOUS
10
193.1
20
-68.9285
11
193.105
21
-68.9289
0
LINE
8
BLACK
6
CONTINUOUS
10
193.105
20
-68.9289
11
193.105
21
-68.9289
0
LINE
8
BLACK
6
CONTINUOUS
10
193.105
20
-68.9289
11
193.12
21
-68.9304
0
LINE
8
BLACK
6
CONTINUOUS
10
193.12
20
-68.9304
11
193.138
21
-68.9361
0
LINE
8
BLACK
6
CONTINUOUS
10
193.138
20
-68.9361
11
193.156
21
-68.9454
0
LINE
8
BLACK
6
CONTINUOUS
10
193.156
20
-68.9454
11
193.171
21
-68.9579
0
LINE
8
BLACK
6
CONTINUOUS
10
193.171
20
-68.9579
11
193.184
21
-68.9731
0
LINE
8
BLACK
6
CONTINUOUS
10
193.184
20
-68.9731
11
193.193
21
-68.9905
0
LINE
8
BLACK
6
CONTINUOUS
10
193.193
20
-68.9905
11
193.199
21
-69.0093
0
LINE
8
BLACK
6
CONTINUOUS
10
193.199
20
-69.0093
11
193.2
21
-69.0289
0
LINE
8
BLACK
6
CONTINUOUS
10
193.2
20
-69.0289
11
193.2
21
-69.0338
0
LINE
8
BLACK
6
CONTINUOUS
10
193.2
20
-69.0338
11
193.2
21
-71.4875
0
LINE
8
BLACK
6
CONTINUOUS
10
193.2
20
-71.4875
11
196.677
21
-74.9645
0
LINE
8
BLACK
6
CONTINUOUS
10
196.677
20
-74.9645
11
241.297
21
-74.9645
0
LINE
8
BLACK
6
CONTINUOUS
10
241.297
20
-74.9645
11
241.305
21
-74.9641
0
LINE
8
BLACK
6
CONTINUOUS
10
241.305
20
-74.9641
11
241.312
21
-74.9652
0
LINE
8
BLACK
6
CONTINUOUS
10
241.312
20
-74.9652
11
241.32
21
-74.9659
0
LINE
8
BLACK
6
CONTINUOUS
10
241.32
20
-74.9659
11
241.322
21
-74.9666
0
LINE
8
BLACK
6
CONTINUOUS
10
241.322
20
-74.9666
11
241.324
21
-74.9669
0
LINE
8
BLACK
6
CONTINUOUS
10
241.324
20
-74.9669
11
241.331
21
-74.9694
0
LINE
8
BLACK
6
CONTINUOUS
10
241.331
20
-74.9694
11
241.338
21
-74.9716
0
LINE
8
BLACK
6
CONTINUOUS
10
241.338
20
-74.9716
11
241.341
21
-74.9727
0
LINE
8
BLACK
6
CONTINUOUS
10
241.341
20
-74.9727
11
241.343
21
-74.9735
0
LINE
8
BLACK
6
CONTINUOUS
10
241.343
20
-74.9735
11
241.349
21
-74.9774
0
LINE
8
BLACK
6
CONTINUOUS
10
241.349
20
-74.9774
11
241.356
21
-74.9809
0
LINE
8
BLACK
6
CONTINUOUS
10
241.356
20
-74.9809
11
241.361
21
-74.9855
0
LINE
8
BLACK
6
CONTINUOUS
10
241.361
20
-74.9855
11
266.158
21
-93.2645
0
LINE
8
BLACK
6
CONTINUOUS
10
266.158
20
-93.2645
11
275.684
21
-93.2645
0
LINE
8
BLACK
6
CONTINUOUS
10
275.684
20
-93.2645
11
275.692
21
-93.2642
0
LINE
8
BLACK
6
CONTINUOUS
10
275.692
20
-93.2642
11
275.699
21
-93.2652
0
LINE
8
BLACK
6
CONTINUOUS
10
275.699
20
-93.2652
11
275.706
21
-93.2659
0
LINE
8
BLACK
6
CONTINUOUS
10
275.706
20
-93.2659
11
275.709
21
-93.2668
0
LINE
8
BLACK
6
CONTINUOUS
10
275.709
20
-93.2668
11
275.712
21
-93.2673
0
LINE
8
BLACK
6
CONTINUOUS
10
275.712
20
-93.2673
11
275.718
21
-93.2697
0
LINE
8
BLACK
6
CONTINUOUS
10
275.718
20
-93.2697
11
275.725
21
-93.2716
0
LINE
8
BLACK
6
CONTINUOUS
10
275.725
20
-93.2716
11
275.732
21
-93.2754
0
LINE
8
BLACK
6
CONTINUOUS
10
275.732
20
-93.2754
11
339.449
21
-124.353
0
LINE
8
BLACK
6
CONTINUOUS
10
339.449
20
-124.353
11
344.099
21
-122.752
0
LINE
8
BLACK
6
CONTINUOUS
10
344.099
20
-122.752
11
366.015
21
-77.8155
0
LINE
8
BLACK
6
CONTINUOUS
10
366.015
20
-77.8155
11
364.415
21
-73.1662
0
LINE
8
BLACK
6
CONTINUOUS
10
364.415
20
-73.1662
11
335.938
21
-59.2775
0
LINE
8
BLACK
6
CONTINUOUS
10
335.938
20
-59.2775
11
335.937
21
-59.2769
0
LINE
8
BLACK
6
CONTINUOUS
10
335.937
20
-59.2769
11
335.93
21
-59.2732
0
LINE
8
BLACK
6
CONTINUOUS
10
335.93
20
-59.2732
11
335.927
21
-59.2718
0
LINE
8
BLACK
6
CONTINUOUS
10
335.927
20
-59.2718
11
335.925
21
-59.2708
0
LINE
8
BLACK
6
CONTINUOUS
10
335.925
20
-59.2708
11
335.919
21
-59.2676
0
LINE
8
BLACK
6
CONTINUOUS
10
335.919
20
-59.2676
11
335.917
21
-59.2657
0
LINE
8
BLACK
6
CONTINUOUS
10
335.917
20
-59.2657
11
335.914
21
-59.2641
0
LINE
8
BLACK
6
CONTINUOUS
10
335.914
20
-59.2641
11
335.909
21
-59.2595
0
LINE
8
BLACK
6
CONTINUOUS
10
335.909
20
-59.2595
11
335.904
21
-59.2551
0
LINE
8
BLACK
6
CONTINUOUS
10
335.904
20
-59.2551
11
335.902
21
-59.2528
0
LINE
8
BLACK
6
CONTINUOUS
10
335.902
20
-59.2528
11
335.9
21
-59.2507
0
LINE
8
BLACK
6
CONTINUOUS
10
335.9
20
-59.2507
11
335.896
21
-59.2452
0
LINE
8
BLACK
6
CONTINUOUS
10
335.896
20
-59.2452
11
335.891
21
-59.2399
0
LINE
8
BLACK
6
CONTINUOUS
10
335.891
20
-59.2399
11
335.89
21
-59.2372
0
LINE
8
BLACK
6
CONTINUOUS
10
335.89
20
-59.2372
11
335.888
21
-59.2347
0
LINE
8
BLACK
6
CONTINUOUS
10
335.888
20
-59.2347
11
335.885
21
-59.2285
0
LINE
8
BLACK
6
CONTINUOUS
10
335.885
20
-59.2285
11
335.882
21
-59.2225
0
LINE
8
BLACK
6
CONTINUOUS
10
335.882
20
-59.2225
11
335.881
21
-59.2196
0
LINE
8
BLACK
6
CONTINUOUS
10
335.881
20
-59.2196
11
335.88
21
-59.2168
0
LINE
8
BLACK
6
CONTINUOUS
10
335.88
20
-59.2168
11
335.878
21
-59.2102
0
LINE
8
BLACK
6
CONTINUOUS
10
335.878
20
-59.2102
11
335.876
21
-59.2037
0
LINE
8
BLACK
6
CONTINUOUS
10
335.876
20
-59.2037
11
335.876
21
-59.2006
0
LINE
8
BLACK
6
CONTINUOUS
10
335.876
20
-59.2006
11
335.875
21
-59.1976
0
LINE
8
BLACK
6
CONTINUOUS
10
335.875
20
-59.1976
11
335.875
21
-59.1909
0
LINE
8
BLACK
6
CONTINUOUS
10
335.875
20
-59.1909
11
335.875
21
-59.189
0
LINE
8
BLACK
6
CONTINUOUS
10
335.875
20
-59.189
11
335.875
21
-59.1859
0
LINE
8
BLACK
6
CONTINUOUS
10
335.875
20
-59.1859
11
335.875
21
-59.178
0
LINE
8
BLACK
6
CONTINUOUS
10
335.875
20
-59.178
11
335.875
21
-59.1761
0
LINE
8
BLACK
6
CONTINUOUS
10
335.875
20
-59.1761
11
335.875
21
-21.4914
0
LINE
8
BLACK
6
CONTINUOUS
10
335.875
20
-21.4914
11
332.398
21
-18.0145
0
LINE
8
BLACK
6
CONTINUOUS
10
332.398
20
-18.0145
11
297.88
21
-18.0145
0
LINE
8
BLACK
6
CONTINUOUS
10
297.88
20
-18.0145
11
297.875
21
-18.0149
0
LINE
8
BLACK
6
CONTINUOUS
10
297.875
20
-18.0149
11
297.87
21
-18.0145
0
LINE
8
BLACK
6
CONTINUOUS
10
297.87
20
-18.0145
11
297.87
21
-18.0145
0
LINE
8
BLACK
6
CONTINUOUS
10
297.87
20
-18.0145
11
297.857
21
-18.0132
0
LINE
8
BLACK
6
CONTINUOUS
10
297.857
20
-18.0132
11
297.855
21
-18.013
0
LINE
8
BLACK
6
CONTINUOUS
10
297.855
20
-18.013
11
297.85
21
-18.0113
0
LINE
8
BLACK
6
CONTINUOUS
10
297.85
20
-18.0113
11
297.837
21
-18.0073
0
LINE
8
BLACK
6
CONTINUOUS
10
297.837
20
-18.0073
11
297.819
21
-17.998
0
LINE
8
BLACK
6
CONTINUOUS
10
297.819
20
-17.998
11
297.804
21
-17.9855
0
LINE
8
BLACK
6
CONTINUOUS
10
297.804
20
-17.9855
11
297.801
21
-17.9817
0
LINE
8
BLACK
6
CONTINUOUS
10
297.801
20
-17.9817
11
295.834
21
-16.0145
0
LINE
8
BLACK
6
CONTINUOUS
10
295.834
20
-16.0145
11
278.83
21
-16.0145
0
LINE
8
BLACK
6
CONTINUOUS
10
278.83
20
-16.0145
11
278.825
21
-16.0149
0
LINE
8
BLACK
6
CONTINUOUS
10
278.825
20
-16.0149
11
278.82
21
-16.0145
0
LINE
8
BLACK
6
CONTINUOUS
10
278.82
20
-16.0145
11
278.82
21
-16.0145
0
LINE
8
BLACK
6
CONTINUOUS
10
278.82
20
-16.0145
11
278.809
21
-16.0134
0
LINE
8
BLACK
6
CONTINUOUS
10
278.809
20
-16.0134
11
278.805
21
-16.013
0
LINE
8
BLACK
6
CONTINUOUS
10
278.805
20
-16.013
11
278.797
21
-16.0104
0
LINE
8
BLACK
6
CONTINUOUS
10
278.797
20
-16.0104
11
278.787
21
-16.0073
0
LINE
8
BLACK
6
CONTINUOUS
10
278.787
20
-16.0073
11
278.769
21
-15.998
0
LINE
8
BLACK
6
CONTINUOUS
10
278.769
20
-15.998
11
278.761
21
-15.9916
0
LINE
8
BLACK
6
CONTINUOUS
10
278.761
20
-15.9916
11
278.758
21
-15.9886
0
LINE
8
BLACK
6
CONTINUOUS
10
278.758
20
-15.9886
11
278.758
21
-15.9886
0
LINE
8
BLACK
6
CONTINUOUS
10
278.758
20
-15.9886
11
278.754
21
-15.9855
0
LINE
8
BLACK
6
CONTINUOUS
10
278.754
20
-15.9855
11
278.751
21
-15.9817
0
LINE
8
BLACK
6
CONTINUOUS
10
278.751
20
-15.9817
11
276.784
21
-14.0145
0
LINE
8
BLACK
6
CONTINUOUS
10
276.784
20
-14.0145
11
261.816
21
-14.0145
0
LINE
8
BLACK
6
CONTINUOUS
10
261.816
20
-14.0145
11
259.849
21
-15.9817
0
LINE
8
BLACK
6
CONTINUOUS
10
259.849
20
-15.9817
11
259.846
21
-15.9855
0
LINE
8
BLACK
6
CONTINUOUS
10
259.846
20
-15.9855
11
259.831
21
-15.998
0
LINE
8
BLACK
6
CONTINUOUS
10
259.831
20
-15.998
11
259.813
21
-16.0073
0
LINE
8
BLACK
6
CONTINUOUS
10
259.813
20
-16.0073
11
259.795
21
-16.013
0
LINE
8
BLACK
6
CONTINUOUS
10
259.795
20
-16.013
11
259.78
21
-16.0145
0
LINE
8
BLACK
6
CONTINUOUS
10
259.78
20
-16.0145
11
259.78
21
-16.0145
0
LINE
8
BLACK
6
CONTINUOUS
10
259.78
20
-16.0145
11
259.775
21
-16.0149
0
LINE
8
BLACK
6
CONTINUOUS
10
259.775
20
-16.0149
11
259.77
21
-16.0145
0
LINE
8
BLACK
6
CONTINUOUS
10
259.77
20
-16.0145
11
242.766
21
-16.0145
0
LINE
8
BLACK
6
CONTINUOUS
10
242.766
20
-16.0145
11
240.799
21
-17.9817
0
LINE
8
BLACK
6
CONTINUOUS
10
240.799
20
-17.9817
11
240.796
21
-17.9855
0
LINE
8
BLACK
6
CONTINUOUS
10
240.796
20
-17.9855
11
240.781
21
-17.998
0
LINE
8
BLACK
6
CONTINUOUS
10
240.781
20
-17.998
11
240.763
21
-18.0073
0
LINE
8
BLACK
6
CONTINUOUS
10
240.763
20
-18.0073
11
240.745
21
-18.013
0
LINE
8
BLACK
6
CONTINUOUS
10
240.745
20
-18.013
11
240.73
21
-18.0145
0
LINE
8
BLACK
6
CONTINUOUS
10
240.73
20
-18.0145
11
240.73
21
-18.0145
0
LINE
8
BLACK
6
CONTINUOUS
10
240.73
20
-18.0145
11
240.725
21
-18.0149
0
LINE
8
BLACK
6
CONTINUOUS
10
240.725
20
-18.0149
11
240.72
21
-18.0145
0
LINE
8
BLACK
6
CONTINUOUS
10
240.72
20
-18.0145
11
196.677
21
-18.0145
0
LINE
8
BLACK
6
CONTINUOUS
10
196.677
20
-18.0145
11
193.2
21
-21.4914
0
LINE
8
BLACK
6
CONTINUOUS
10
193.2
20
-21.4914
11
193.2
21
-23.9451
0
LINE
8
BLACK
6
CONTINUOUS
10
193.2
20
-23.9451
11
193.2
21
-23.95
0
LINE
8
BLACK
6
CONTINUOUS
10
193.2
20
-23.95
11
193.199
21
-23.9696
0
LINE
8
BLACK
6
CONTINUOUS
10
193.199
20
-23.9696
11
193.193
21
-23.9885
0
LINE
8
BLACK
6
CONTINUOUS
10
193.193
20
-23.9885
11
193.184
21
-24.0058
0
LINE
8
BLACK
6
CONTINUOUS
10
193.184
20
-24.0058
11
193.171
21
-24.0211
0
LINE
8
BLACK
6
CONTINUOUS
10
193.171
20
-24.0211
11
193.156
21
-24.0335
0
LINE
8
BLACK
6
CONTINUOUS
10
193.156
20
-24.0335
11
193.138
21
-24.0428
0
LINE
8
BLACK
6
CONTINUOUS
10
193.138
20
-24.0428
11
193.12
21
-24.0486
0
LINE
8
BLACK
6
CONTINUOUS
10
193.12
20
-24.0486
11
193.105
21
-24.05
0
LINE
8
BLACK
6
CONTINUOUS
10
193.105
20
-24.05
11
193.1
21
-24.0505
0
LINE
8
BLACK
6
CONTINUOUS
10
193.1
20
-24.0505
11
193.095
21
-24.05
0
LINE
8
BLACK
6
CONTINUOUS
10
193.095
20
-24.05
11
191.105
21
-24.05
0
LINE
8
BLACK
6
CONTINUOUS
10
191.105
20
-24.05
11
191.1
21
-24.0505
0
LINE
8
BLACK
6
CONTINUOUS
10
191.1
20
-24.0505
11
191.095
21
-24.05
0
LINE
8
BLACK
6
CONTINUOUS
10
191.095
20
-24.05
11
191.08
21
-24.0486
0
LINE
8
BLACK
6
CONTINUOUS
10
191.08
20
-24.0486
11
191.062
21
-24.0428
0
LINE
8
BLACK
6
CONTINUOUS
10
191.062
20
-24.0428
11
191.044
21
-24.0335
0
LINE
8
BLACK
6
CONTINUOUS
10
191.044
20
-24.0335
11
191.029
21
-24.0211
0
LINE
8
BLACK
6
CONTINUOUS
10
191.029
20
-24.0211
11
191.016
21
-24.0058
0
LINE
8
BLACK
6
CONTINUOUS
10
191.016
20
-24.0058
11
191.007
21
-23.9885
0
LINE
8
BLACK
6
CONTINUOUS
10
191.007
20
-23.9885
11
191.001
21
-23.9696
0
LINE
8
BLACK
6
CONTINUOUS
10
191.001
20
-23.9696
11
191
21
-23.95
0
LINE
8
BLACK
6
CONTINUOUS
10
191
20
-23.95
11
191
21
-23.9451
0
LINE
8
BLACK
6
CONTINUOUS
10
191
20
-23.9451
11
191
21
-21.4914
0
LINE
8
BLACK
6
CONTINUOUS
10
191
20
-21.4914
11
187.523
21
-18.0145
0
LINE
8
BLACK
6
CONTINUOUS
10
187.523
20
-18.0145
11
143.48
21
-18.0145
0
LINE
8
BLACK
6
CONTINUOUS
10
143.48
20
-18.0145
11
143.475
21
-18.0149
0
LINE
8
BLACK
6
CONTINUOUS
10
143.475
20
-18.0149
11
143.47
21
-18.0145
0
LINE
8
BLACK
6
CONTINUOUS
10
143.47
20
-18.0145
11
143.47
21
-18.0145
0
LINE
8
BLACK
6
CONTINUOUS
10
143.47
20
-18.0145
11
143.459
21
-18.0134
0
LINE
8
BLACK
6
CONTINUOUS
10
143.459
20
-18.0134
11
143.455
21
-18.013
0
LINE
8
BLACK
6
CONTINUOUS
10
143.455
20
-18.013
11
143.447
21
-18.0104
0
LINE
8
BLACK
6
CONTINUOUS
10
143.447
20
-18.0104
11
143.437
21
-18.0073
0
LINE
8
BLACK
6
CONTINUOUS
10
143.437
20
-18.0073
11
143.419
21
-17.998
0
LINE
8
BLACK
6
CONTINUOUS
10
143.419
20
-17.998
11
143.411
21
-17.9916
0
LINE
8
BLACK
6
CONTINUOUS
10
143.411
20
-17.9916
11
143.408
21
-17.9886
0
LINE
8
BLACK
6
CONTINUOUS
10
143.408
20
-17.9886
11
143.408
21
-17.9886
0
LINE
8
BLACK
6
CONTINUOUS
10
143.408
20
-17.9886
11
143.404
21
-17.9855
0
LINE
8
BLACK
6
CONTINUOUS
10
143.404
20
-17.9855
11
143.401
21
-17.9817
0
LINE
8
BLACK
6
CONTINUOUS
10
143.401
20
-17.9817
11
141.434
21
-16.0145
0
LINE
8
BLACK
6
CONTINUOUS
10
141.434
20
-16.0145
11
124.43
21
-16.0145
0
LINE
8
BLACK
6
CONTINUOUS
10
124.43
20
-16.0145
11
124.425
21
-16.0149
0
LINE
8
BLACK
6
CONTINUOUS
10
124.425
20
-16.0149
11
124.42
21
-16.0145
0
LINE
8
BLACK
6
CONTINUOUS
10
124.42
20
-16.0145
11
124.42
21
-16.0145
0
LINE
8
BLACK
6
CONTINUOUS
10
124.42
20
-16.0145
11
124.407
21
-16.0132
0
LINE
8
BLACK
6
CONTINUOUS
10
124.407
20
-16.0132
11
124.405
21
-16.013
0
LINE
8
BLACK
6
CONTINUOUS
10
124.405
20
-16.013
11
124.4
21
-16.0113
0
LINE
8
BLACK
6
CONTINUOUS
10
124.4
20
-16.0113
11
124.387
21
-16.0073
0
LINE
8
BLACK
6
CONTINUOUS
10
124.387
20
-16.0073
11
124.369
21
-15.998
0
LINE
8
BLACK
6
CONTINUOUS
10
124.369
20
-15.998
11
124.354
21
-15.9855
0
LINE
8
BLACK
6
CONTINUOUS
10
124.354
20
-15.9855
11
124.351
21
-15.9817
0
LINE
8
BLACK
6
CONTINUOUS
10
124.351
20
-15.9817
11
122.384
21
-14.0145
0
LINE
8
BLACK
6
CONTINUOUS
10
122.384
20
-14.0145
11
107.416
21
-14.0145
0
LINE
8
BLACK
6
CONTINUOUS
10
107.416
20
-14.0145
11
105.449
21
-15.9817
0
LINE
8
BLACK
6
CONTINUOUS
10
105.449
20
-15.9817
11
105.446
21
-15.9855
0
LINE
8
BLACK
6
CONTINUOUS
10
105.446
20
-15.9855
11
105.431
21
-15.998
0
LINE
8
BLACK
6
CONTINUOUS
10
105.431
20
-15.998
11
105.413
21
-16.0073
0
LINE
8
BLACK
6
CONTINUOUS
10
105.413
20
-16.0073
11
105.395
21
-16.013
0
LINE
8
BLACK
6
CONTINUOUS
10
105.395
20
-16.013
11
105.38
21
-16.0145
0
LINE
8
BLACK
6
CONTINUOUS
10
105.38
20
-16.0145
11
105.38
21
-16.0145
0
LINE
8
BLACK
6
CONTINUOUS
10
105.38
20
-16.0145
11
105.375
21
-16.0149
0
LINE
8
BLACK
6
CONTINUOUS
10
105.375
20
-16.0149
11
105.37
21
-16.0145
0
LINE
8
BLACK
6
CONTINUOUS
10
105.37
20
-16.0145
11
88.3664
21
-16.0145
0
LINE
8
BLACK
6
CONTINUOUS
10
88.3664
20
-16.0145
11
86.3992
21
-17.9817
0
LINE
8
BLACK
6
CONTINUOUS
10
86.3992
20
-17.9817
11
86.3961
21
-17.9855
0
LINE
8
BLACK
6
CONTINUOUS
10
86.3961
20
-17.9855
11
86.3808
21
-17.998
0
LINE
8
BLACK
6
CONTINUOUS
10
86.3808
20
-17.998
11
86.3635
21
-18.0073
0
LINE
8
BLACK
6
CONTINUOUS
10
86.3635
20
-18.0073
11
86.3446
21
-18.013
0
LINE
8
BLACK
6
CONTINUOUS
10
86.3446
20
-18.013
11
86.3299
21
-18.0145
0
LINE
8
BLACK
6
CONTINUOUS
10
86.3299
20
-18.0145
11
86.3299
21
-18.0145
0
LINE
8
BLACK
6
CONTINUOUS
10
86.3299
20
-18.0145
11
86.325
21
-18.0149
0
LINE
8
BLACK
6
CONTINUOUS
10
86.325
20
-18.0149
11
86.3201
21
-18.0145
0
LINE
8
BLACK
6
CONTINUOUS
10
86.3201
20
-18.0145
11
51.802
21
-18.0145
0
LINE
8
BLACK
6
CONTINUOUS
10
51.802
20
-18.0145
11
48.325
21
-21.4914
0
LINE
8
BLACK
6
CONTINUOUS
10
48.325
20
-21.4914
11
48.325
21
-59.1761
0
LINE
8
BLACK
6
CONTINUOUS
10
48.325
20
-59.1761
11
48.3253
21
-59.178
0
LINE
8
BLACK
6
CONTINUOUS
10
48.3253
20
-59.178
11
48.325
21
-59.1859
0
LINE
8
BLACK
6
CONTINUOUS
10
48.325
20
-59.1859
11
48.325
21
-59.189
0
LINE
8
BLACK
6
CONTINUOUS
10
48.325
20
-59.189
11
48.3248
21
-59.1909
0
LINE
8
BLACK
6
CONTINUOUS
10
48.3248
20
-59.1909
11
48.3246
21
-59.1976
0
LINE
8
BLACK
6
CONTINUOUS
10
48.3246
20
-59.1976
11
48.3239
21
-59.2006
0
LINE
8
BLACK
6
CONTINUOUS
10
48.3239
20
-59.2006
11
48.3236
21
-59.2037
0
LINE
8
BLACK
6
CONTINUOUS
10
48.3236
20
-59.2037
11
48.3216
21
-59.2102
0
LINE
8
BLACK
6
CONTINUOUS
10
48.3216
20
-59.2102
11
48.32
21
-59.2168
0
LINE
8
BLACK
6
CONTINUOUS
10
48.32
20
-59.2168
11
48.3187
21
-59.2196
0
LINE
8
BLACK
6
CONTINUOUS
10
48.3187
20
-59.2196
11
48.3178
21
-59.2225
0
LINE
8
BLACK
6
CONTINUOUS
10
48.3178
20
-59.2225
11
48.3146
21
-59.2285
0
LINE
8
BLACK
6
CONTINUOUS
10
48.3146
20
-59.2285
11
48.3118
21
-59.2347
0
LINE
8
BLACK
6
CONTINUOUS
10
48.3118
20
-59.2347
11
48.31
21
-59.2372
0
LINE
8
BLACK
6
CONTINUOUS
10
48.31
20
-59.2372
11
48.3085
21
-59.2399
0
LINE
8
BLACK
6
CONTINUOUS
10
48.3085
20
-59.2399
11
48.3042
21
-59.2452
0
LINE
8
BLACK
6
CONTINUOUS
10
48.3042
20
-59.2452
11
48.3003
21
-59.2507
0
LINE
8
BLACK
6
CONTINUOUS
10
48.3003
20
-59.2507
11
48.298
21
-59.2528
0
LINE
8
BLACK
6
CONTINUOUS
10
48.298
20
-59.2528
11
48.2961
21
-59.2551
0
LINE
8
BLACK
6
CONTINUOUS
10
48.2961
20
-59.2551
11
48.2908
21
-59.2595
0
LINE
8
BLACK
6
CONTINUOUS
10
48.2908
20
-59.2595
11
48.2858
21
-59.2641
0
LINE
8
BLACK
6
CONTINUOUS
10
48.2858
20
-59.2641
11
48.2832
21
-59.2657
0
LINE
8
BLACK
6
CONTINUOUS
10
48.2832
20
-59.2657
11
48.2808
21
-59.2676
0
LINE
8
BLACK
6
CONTINUOUS
10
48.2808
20
-59.2676
11
48.2748
21
-59.2708
0
LINE
8
BLACK
6
CONTINUOUS
10
48.2748
20
-59.2708
11
48.2732
21
-59.2718
0
LINE
8
BLACK
6
CONTINUOUS
10
48.2732
20
-59.2718
11
48.2705
21
-59.2732
0
LINE
8
BLACK
6
CONTINUOUS
10
48.2705
20
-59.2732
11
48.2635
21
-59.2769
0
LINE
8
BLACK
6
CONTINUOUS
10
48.2635
20
-59.2769
11
48.2617
21
-59.2775
0
LINE
8
BLACK
6
CONTINUOUS
10
48.2617
20
-59.2775
11
19.7855
21
-73.1662
0
LINE
8
BLACK
6
CONTINUOUS
10
19.7855
20
-73.1662
11
18.1846
21
-77.8155
0
LINE
8
BLACK
6
CONTINUOUS
10
18.1846
20
-77.8155
11
40.1015
21
-122.752
0
LINE
8
BLACK
6
CONTINUOUS
10
40.1015
20
-122.752
11
44.7507
21
-124.353
0
LINE
8
BLACK
6
CONTINUOUS
10
44.7507
20
-124.353
11
108.468
21
-93.2754
0
LINE
8
BLACK
6
CONTINUOUS
10
108.468
20
-93.2754
11
108.475
21
-93.2716
0
LINE
8
BLACK
6
CONTINUOUS
10
108.475
20
-93.2716
11
108.482
21
-93.2697
0
LINE
8
BLACK
6
CONTINUOUS
10
108.482
20
-93.2697
11
108.488
21
-93.2673
0
LINE
8
BLACK
6
CONTINUOUS
10
108.488
20
-93.2673
11
108.491
21
-93.2668
0
LINE
8
BLACK
6
CONTINUOUS
10
108.491
20
-93.2668
11
108.494
21
-93.2659
0
LINE
8
BLACK
6
CONTINUOUS
10
108.494
20
-93.2659
11
108.501
21
-93.2652
0
LINE
8
BLACK
6
CONTINUOUS
10
108.501
20
-93.2652
11
108.508
21
-93.2642
0
LINE
8
BLACK
6
CONTINUOUS
10
108.508
20
-93.2642
11
108.516
21
-93.2645
0
LINE
8
BLACK
6
CONTINUOUS
10
108.516
20
-93.2645
11
118.042
21
-93.2645
0
LINE
8
BLACK
6
CONTINUOUS
10
118.042
20
-93.2645
11
142.839
21
-74.9855
0
LINE
8
BLACK
6
CONTINUOUS
10
142.839
20
-74.9855
11
142.845
21
-74.9809
0
LINE
8
BLACK
6
CONTINUOUS
10
142.845
20
-74.9809
11
142.851
21
-74.9774
0
LINE
8
BLACK
6
CONTINUOUS
10
142.851
20
-74.9774
11
142.858
21
-74.9735
0
LINE
8
BLACK
6
CONTINUOUS
10
142.858
20
-74.9735
11
142.86
21
-74.9727
0
LINE
8
BLACK
6
CONTINUOUS
10
142.86
20
-74.9727
11
142.862
21
-74.9716
0
LINE
8
BLACK
6
CONTINUOUS
10
142.862
20
-74.9716
11
142.869
21
-74.9694
0
LINE
8
BLACK
6
CONTINUOUS
10
142.869
20
-74.9694
11
142.876
21
-74.9669
0
LINE
8
BLACK
6
CONTINUOUS
10
142.876
20
-74.9669
11
142.879
21
-74.9666
0
LINE
8
BLACK
6
CONTINUOUS
10
142.879
20
-74.9666
11
142.881
21
-74.9659
0
LINE
8
BLACK
6
CONTINUOUS
10
142.881
20
-74.9659
11
142.888
21
-74.9652
0
LINE
8
BLACK
6
CONTINUOUS
10
142.888
20
-74.9652
11
142.896
21
-74.9641
0
LINE
8
BLACK
6
CONTINUOUS
10
142.896
20
-74.9641
11
142.903
21
-74.9645
0
LINE
8
BLACK
6
CONTINUOUS
10
142.903
20
-74.9645
11
187.523
21
-74.9645
0
LINE
8
BLACK
6
CONTINUOUS
10
187.523
20
-74.9645
11
191
21
-71.4875
0
LINE
8
BLACK
6
CONTINUOUS
10
191
20
-71.4875
11
191
21
-69.0338
0
LINE
8
BLACK
6
CONTINUOUS
10
191
20
-69.0338
11
191
21
-69.0289
0
LINE
8
BLACK
6
CONTINUOUS
10
191
20
-69.0289
11
191.001
21
-69.0093
0
LINE
8
BLACK
6
CONTINUOUS
10
191.001
20
-69.0093
11
191.007
21
-68.9905
0
LINE
8
BLACK
6
CONTINUOUS
10
191.007
20
-68.9905
11
191.016
21
-68.9731
0
LINE
8
BLACK
6
CONTINUOUS
10
191.016
20
-68.9731
11
191.029
21
-68.9579
0
LINE
8
BLACK
6
CONTINUOUS
10
191.029
20
-68.9579
11
191.044
21
-68.9454
0
LINE
8
BLACK
6
CONTINUOUS
10
191.044
20
-68.9454
11
191.062
21
-68.9361
0
LINE
8
BLACK
6
CONTINUOUS
10
191.062
20
-68.9361
11
191.08
21
-68.9304
0
LINE
8
BLACK
6
CONTINUOUS
10
191.08
20
-68.9304
11
191.095
21
-68.9289
0
LINE
8
BLACK
6
CONTINUOUS
10
191.095
20
-68.9289
11
191.095
21
-68.9289
0
LINE
8
BLACK
6
CONTINUOUS
10
191.095
20
-68.9289
11
191.1
21
-68.9285
0
LINE
8
BLACK
6
CONTINUOUS
10
191.1
20
-68.9285
11
191.105
21
-68.9289
0
LINE
8
BLACK
6
CONTINUOUS
10
191.105
20
-68.9289
11
193.095
21
-68.9289
0
LINE
8
BLACK
6
CONTINUOUS
10
193.095
20
-68.9289
11
193.1
21
-68.9285
0
LINE
8
BLACK
6
CONTINUOUS
10
191.1
20
-66.3794
11
191.095
21
-66.3789
0
LINE
8
BLACK
6
CONTINUOUS
10
191.095
20
-66.3789
11
191.08
21
-66.3775
0
LINE
8
BLACK
6
CONTINUOUS
10
191.08
20
-66.3775
11
191.062
21
-66.3718
0
LINE
8
BLACK
6
CONTINUOUS
10
191.062
20
-66.3718
11
191.044
21
-66.3625
0
LINE
8
BLACK
6
CONTINUOUS
10
191.044
20
-66.3625
11
191.029
21
-66.35
0
LINE
8
BLACK
6
CONTINUOUS
10
191.029
20
-66.35
11
191.016
21
-66.3348
0
LINE
8
BLACK
6
CONTINUOUS
10
191.016
20
-66.3348
11
191.007
21
-66.3174
0
LINE
8
BLACK
6
CONTINUOUS
10
191.007
20
-66.3174
11
191.001
21
-66.2985
0
LINE
8
BLACK
6
CONTINUOUS
10
191.001
20
-66.2985
11
191
21
-66.2789
0
LINE
8
BLACK
6
CONTINUOUS
10
191
20
-66.2789
11
191
21
-66.274
0
LINE
8
BLACK
6
CONTINUOUS
10
191
20
-66.274
11
191
21
-54.9242
0
LINE
8
BLACK
6
CONTINUOUS
10
191
20
-54.9242
11
191
21
-54.9193
0
LINE
8
BLACK
6
CONTINUOUS
10
191
20
-54.9193
11
191.001
21
-54.8997
0
LINE
8
BLACK
6
CONTINUOUS
10
191.001
20
-54.8997
11
191.007
21
-54.8808
0
LINE
8
BLACK
6
CONTINUOUS
10
191.007
20
-54.8808
11
191.016
21
-54.8635
0
LINE
8
BLACK
6
CONTINUOUS
10
191.016
20
-54.8635
11
191.029
21
-54.8482
0
LINE
8
BLACK
6
CONTINUOUS
10
191.029
20
-54.8482
11
191.044
21
-54.8357
0
LINE
8
BLACK
6
CONTINUOUS
10
191.044
20
-54.8357
11
191.062
21
-54.8265
0
LINE
8
BLACK
6
CONTINUOUS
10
191.062
20
-54.8265
11
191.08
21
-54.8207
0
LINE
8
BLACK
6
CONTINUOUS
10
191.08
20
-54.8207
11
191.095
21
-54.8193
0
LINE
8
BLACK
6
CONTINUOUS
10
191.095
20
-54.8193
11
191.1
21
-54.8188
0
LINE
8
BLACK
6
CONTINUOUS
10
191.1
20
-54.8188
11
191.105
21
-54.8193
0
LINE
8
BLACK
6
CONTINUOUS
10
191.105
20
-54.8193
11
193.095
21
-54.8193
0
LINE
8
BLACK
6
CONTINUOUS
10
193.095
20
-54.8193
11
193.1
21
-54.8188
0
LINE
8
BLACK
6
CONTINUOUS
10
193.1
20
-54.8188
11
193.105
21
-54.8193
0
LINE
8
BLACK
6
CONTINUOUS
10
193.105
20
-54.8193
11
193.12
21
-54.8207
0
LINE
8
BLACK
6
CONTINUOUS
10
193.12
20
-54.8207
11
193.138
21
-54.8265
0
LINE
8
BLACK
6
CONTINUOUS
10
193.138
20
-54.8265
11
193.156
21
-54.8357
0
LINE
8
BLACK
6
CONTINUOUS
10
193.156
20
-54.8357
11
193.171
21
-54.8482
0
LINE
8
BLACK
6
CONTINUOUS
10
193.171
20
-54.8482
11
193.184
21
-54.8635
0
LINE
8
BLACK
6
CONTINUOUS
10
193.184
20
-54.8635
11
193.193
21
-54.8808
0
LINE
8
BLACK
6
CONTINUOUS
10
193.193
20
-54.8808
11
193.199
21
-54.8997
0
LINE
8
BLACK
6
CONTINUOUS
10
193.199
20
-54.8997
11
193.2
21
-54.9193
0
LINE
8
BLACK
6
CONTINUOUS
10
193.2
20
-54.9193
11
193.2
21
-54.9242
0
LINE
8
BLACK
6
CONTINUOUS
10
193.2
20
-54.9242
11
193.2
21
-66.274
0
LINE
8
BLACK
6
CONTINUOUS
10
193.2
20
-66.274
11
193.2
21
-66.2789
0
LINE
8
BLACK
6
CONTINUOUS
10
193.2
20
-66.2789
11
193.199
21
-66.2985
0
LINE
8
BLACK
6
CONTINUOUS
10
193.199
20
-66.2985
11
193.193
21
-66.3174
0
LINE
8
BLACK
6
CONTINUOUS
10
193.193
20
-66.3174
11
193.184
21
-66.3348
0
LINE
8
BLACK
6
CONTINUOUS
10
193.184
20
-66.3348
11
193.171
21
-66.35
0
LINE
8
BLACK
6
CONTINUOUS
10
193.171
20
-66.35
11
193.156
21
-66.3625
0
LINE
8
BLACK
6
CONTINUOUS
10
193.156
20
-66.3625
11
193.138
21
-66.3718
0
LINE
8
BLACK
6
CONTINUOUS
10
193.138
20
-66.3718
11
193.12
21
-66.3775
0
LINE
8
BLACK
6
CONTINUOUS
10
193.12
20
-66.3775
11
193.105
21
-66.3789
0
LINE
8
BLACK
6
CONTINUOUS
10
193.105
20
-66.3789
11
193.1
21
-66.3794
0
LINE
8
BLACK
6
CONTINUOUS
10
193.1
20
-66.3794
11
193.095
21
-66.3789
0
LINE
8
BLACK
6
CONTINUOUS
10
193.095
20
-66.3789
11
191.105
21
-66.3789
0
LINE
8
BLACK
6
CONTINUOUS
10
191.105
20
-66.3789
11
191.1
21
-66.3794
0
LINE
8
BLACK
6
CONTINUOUS
10
191.2
20
-66.1789
11
193
21
-66.1789
0
LINE
8
BLACK
6
CONTINUOUS
10
193
20
-66.1789
11
193
21
-55.0193
0
LINE
8
BLACK
6
CONTINUOUS
10
193
20
-55.0193
11
191.2
21
-55.0193
0
LINE
8
BLACK
6
CONTINUOUS
10
191.2
20
-55.0193
11
191.2
21
-66.1789
0
LINE
8
BLACK
6
CONTINUOUS
10
191.1
20
-52.2698
11
191.095
21
-52.2693
0
LINE
8
BLACK
6
CONTINUOUS
10
191.095
20
-52.2693
11
191.08
21
-52.2678
0
LINE
8
BLACK
6
CONTINUOUS
10
191.08
20
-52.2678
11
191.062
21
-52.2621
0
LINE
8
BLACK
6
CONTINUOUS
10
191.062
20
-52.2621
11
191.044
21
-52.2528
0
LINE
8
BLACK
6
CONTINUOUS
10
191.044
20
-52.2528
11
191.029
21
-52.2403
0
LINE
8
BLACK
6
CONTINUOUS
10
191.029
20
-52.2403
11
191.016
21
-52.2251
0
LINE
8
BLACK
6
CONTINUOUS
10
191.016
20
-52.2251
11
191.007
21
-52.2077
0
LINE
8
BLACK
6
CONTINUOUS
10
191.007
20
-52.2077
11
191.001
21
-52.1889
0
LINE
8
BLACK
6
CONTINUOUS
10
191.001
20
-52.1889
11
191
21
-52.1693
0
LINE
8
BLACK
6
CONTINUOUS
10
191
20
-52.1693
11
191
21
-52.1644
0
LINE
8
BLACK
6
CONTINUOUS
10
191
20
-52.1644
11
191
21
-40.8145
0
LINE
8
BLACK
6
CONTINUOUS
10
191
20
-40.8145
11
191
21
-40.8096
0
LINE
8
BLACK
6
CONTINUOUS
10
191
20
-40.8096
11
191.001
21
-40.79
0
LINE
8
BLACK
6
CONTINUOUS
10
191.001
20
-40.79
11
191.007
21
-40.7712
0
LINE
8
BLACK
6
CONTINUOUS
10
191.007
20
-40.7712
11
191.016
21
-40.7538
0
LINE
8
BLACK
6
CONTINUOUS
10
191.016
20
-40.7538
11
191.029
21
-40.7386
0
LINE
8
BLACK
6
CONTINUOUS
10
191.029
20
-40.7386
11
191.044
21
-40.7261
0
LINE
8
BLACK
6
CONTINUOUS
10
191.044
20
-40.7261
11
191.062
21
-40.7168
0
LINE
8
BLACK
6
CONTINUOUS
10
191.062
20
-40.7168
11
191.08
21
-40.7111
0
LINE
8
BLACK
6
CONTINUOUS
10
191.08
20
-40.7111
11
191.095
21
-40.7096
0
LINE
8
BLACK
6
CONTINUOUS
10
191.095
20
-40.7096
11
191.1
21
-40.7092
0
LINE
8
BLACK
6
CONTINUOUS
10
191.1
20
-40.7092
11
191.105
21
-40.7096
0
LINE
8
BLACK
6
CONTINUOUS
10
191.105
20
-40.7096
11
193.095
21
-40.7096
0
LINE
8
BLACK
6
CONTINUOUS
10
193.095
20
-40.7096
11
193.1
21
-40.7092
0
LINE
8
BLACK
6
CONTINUOUS
10
193.1
20
-40.7092
11
193.105
21
-40.7096
0
LINE
8
BLACK
6
CONTINUOUS
10
193.105
20
-40.7096
11
193.12
21
-40.7111
0
LINE
8
BLACK
6
CONTINUOUS
10
193.12
20
-40.7111
11
193.138
21
-40.7168
0
LINE
8
BLACK
6
CONTINUOUS
10
193.138
20
-40.7168
11
193.156
21
-40.7261
0
LINE
8
BLACK
6
CONTINUOUS
10
193.156
20
-40.7261
11
193.171
21
-40.7386
0
LINE
8
BLACK
6
CONTINUOUS
10
193.171
20
-40.7386
11
193.184
21
-40.7538
0
LINE
8
BLACK
6
CONTINUOUS
10
193.184
20
-40.7538
11
193.193
21
-40.7712
0
LINE
8
BLACK
6
CONTINUOUS
10
193.193
20
-40.7712
11
193.199
21
-40.79
0
LINE
8
BLACK
6
CONTINUOUS
10
193.199
20
-40.79
11
193.2
21
-40.8096
0
LINE
8
BLACK
6
CONTINUOUS
10
193.2
20
-40.8096
11
193.2
21
-40.8145
0
LINE
8
BLACK
6
CONTINUOUS
10
193.2
20
-40.8145
11
193.2
21
-52.1644
0
LINE
8
BLACK
6
CONTINUOUS
10
193.2
20
-52.1644
11
193.2
21
-52.1693
0
LINE
8
BLACK
6
CONTINUOUS
10
193.2
20
-52.1693
11
193.199
21
-52.1889
0
LINE
8
BLACK
6
CONTINUOUS
10
193.199
20
-52.1889
11
193.193
21
-52.2077
0
LINE
8
BLACK
6
CONTINUOUS
10
193.193
20
-52.2077
11
193.184
21
-52.2251
0
LINE
8
BLACK
6
CONTINUOUS
10
193.184
20
-52.2251
11
193.171
21
-52.2403
0
LINE
8
BLACK
6
CONTINUOUS
10
193.171
20
-52.2403
11
193.156
21
-52.2528
0
LINE
8
BLACK
6
CONTINUOUS
10
193.156
20
-52.2528
11
193.138
21
-52.2621
0
LINE
8
BLACK
6
CONTINUOUS
10
193.138
20
-52.2621
11
193.12
21
-52.2678
0
LINE
8
BLACK
6
CONTINUOUS
10
193.12
20
-52.2678
11
193.105
21
-52.2693
0
LINE
8
BLACK
6
CONTINUOUS
10
193.105
20
-52.2693
11
193.1
21
-52.2698
0
LINE
8
BLACK
6
CONTINUOUS
10
193.1
20
-52.2698
11
193.095
21
-52.2693
0
LINE
8
BLACK
6
CONTINUOUS
10
193.095
20
-52.2693
11
191.105
21
-52.2693
0
LINE
8
BLACK
6
CONTINUOUS
10
191.105
20
-52.2693
11
191.1
21
-52.2698
0
LINE
8
BLACK
6
CONTINUOUS
10
193
20
-40.9096
11
191.2
21
-40.9096
0
LINE
8
BLACK
6
CONTINUOUS
10
191.2
20
-40.9096
11
191.2
21
-52.0693
0
LINE
8
BLACK
6
CONTINUOUS
10
191.2
20
-52.0693
11
193
21
-52.0693
0
LINE
8
BLACK
6
CONTINUOUS
10
193
20
-52.0693
11
193
21
-40.9096
0
LINE
8
BLACK
6
CONTINUOUS
10
191.1
20
-38.1601
11
191.095
21
-38.1596
0
LINE
8
BLACK
6
CONTINUOUS
10
191.095
20
-38.1596
11
191.08
21
-38.1582
0
LINE
8
BLACK
6
CONTINUOUS
10
191.08
20
-38.1582
11
191.062
21
-38.1525
0
LINE
8
BLACK
6
CONTINUOUS
10
191.062
20
-38.1525
11
191.044
21
-38.1432
0
LINE
8
BLACK
6
CONTINUOUS
10
191.044
20
-38.1432
11
191.029
21
-38.1307
0
LINE
8
BLACK
6
CONTINUOUS
10
191.029
20
-38.1307
11
191.016
21
-38.1155
0
LINE
8
BLACK
6
CONTINUOUS
10
191.016
20
-38.1155
11
191.007
21
-38.0981
0
LINE
8
BLACK
6
CONTINUOUS
10
191.007
20
-38.0981
11
191.001
21
-38.0792
0
LINE
8
BLACK
6
CONTINUOUS
10
191.001
20
-38.0792
11
191
21
-38.0596
0
LINE
8
BLACK
6
CONTINUOUS
10
191
20
-38.0596
11
191
21
-38.0547
0
LINE
8
BLACK
6
CONTINUOUS
10
191
20
-38.0547
11
191
21
-26.7049
0
LINE
8
BLACK
6
CONTINUOUS
10
191
20
-26.7049
11
191
21
-26.7
0
LINE
8
BLACK
6
CONTINUOUS
10
191
20
-26.7
11
191.001
21
-26.6804
0
LINE
8
BLACK
6
CONTINUOUS
10
191.001
20
-26.6804
11
191.007
21
-26.6615
0
LINE
8
BLACK
6
CONTINUOUS
10
191.007
20
-26.6615
11
191.016
21
-26.6442
0
LINE
8
BLACK
6
CONTINUOUS
10
191.016
20
-26.6442
11
191.029
21
-26.6289
0
LINE
8
BLACK
6
CONTINUOUS
10
191.029
20
-26.6289
11
191.044
21
-26.6165
0
LINE
8
BLACK
6
CONTINUOUS
10
191.044
20
-26.6165
11
191.062
21
-26.6072
0
LINE
8
BLACK
6
CONTINUOUS
10
191.062
20
-26.6072
11
191.08
21
-26.6014
0
LINE
8
BLACK
6
CONTINUOUS
10
191.08
20
-26.6014
11
191.095
21
-26.6
0
LINE
8
BLACK
6
CONTINUOUS
10
191.095
20
-26.6
11
191.1
21
-26.5995
0
LINE
8
BLACK
6
CONTINUOUS
10
191.1
20
-26.5995
11
191.105
21
-26.6
0
LINE
8
BLACK
6
CONTINUOUS
10
191.105
20
-26.6
11
193.095
21
-26.6
0
LINE
8
BLACK
6
CONTINUOUS
10
193.095
20
-26.6
11
193.1
21
-26.5995
0
LINE
8
BLACK
6
CONTINUOUS
10
193.1
20
-26.5995
11
193.105
21
-26.6
0
LINE
8
BLACK
6
CONTINUOUS
10
193.105
20
-26.6
11
193.12
21
-26.6014
0
LINE
8
BLACK
6
CONTINUOUS
10
193.12
20
-26.6014
11
193.138
21
-26.6072
0
LINE
8
BLACK
6
CONTINUOUS
10
193.138
20
-26.6072
11
193.156
21
-26.6165
0
LINE
8
BLACK
6
CONTINUOUS
10
193.156
20
-26.6165
11
193.171
21
-26.6289
0
LINE
8
BLACK
6
CONTINUOUS
10
193.171
20
-26.6289
11
193.184
21
-26.6442
0
LINE
8
BLACK
6
CONTINUOUS
10
193.184
20
-26.6442
11
193.193
21
-26.6615
0
LINE
8
BLACK
6
CONTINUOUS
10
193.193
20
-26.6615
11
193.199
21
-26.6804
0
LINE
8
BLACK
6
CONTINUOUS
10
193.199
20
-26.6804
11
193.2
21
-26.7
0
LINE
8
BLACK
6
CONTINUOUS
10
193.2
20
-26.7
11
193.2
21
-26.7049
0
LINE
8
BLACK
6
CONTINUOUS
10
193.2
20
-26.7049
11
193.2
21
-38.0547
0
LINE
8
BLACK
6
CONTINUOUS
10
193.2
20
-38.0547
11
193.2
21
-38.0596
0
LINE
8
BLACK
6
CONTINUOUS
10
193.2
20
-38.0596
11
193.199
21
-38.0792
0
LINE
8
BLACK
6
CONTINUOUS
10
193.199
20
-38.0792
11
193.193
21
-38.0981
0
LINE
8
BLACK
6
CONTINUOUS
10
193.193
20
-38.0981
11
193.184
21
-38.1155
0
LINE
8
BLACK
6
CONTINUOUS
10
193.184
20
-38.1155
11
193.171
21
-38.1307
0
LINE
8
BLACK
6
CONTINUOUS
10
193.171
20
-38.1307
11
193.156
21
-38.1432
0
LINE
8
BLACK
6
CONTINUOUS
10
193.156
20
-38.1432
11
193.138
21
-38.1525
0
LINE
8
BLACK
6
CONTINUOUS
10
193.138
20
-38.1525
11
193.12
21
-38.1582
0
LINE
8
BLACK
6
CONTINUOUS
10
193.12
20
-38.1582
11
193.105
21
-38.1596
0
LINE
8
BLACK
6
CONTINUOUS
10
193.105
20
-38.1596
11
193.1
21
-38.1601
0
LINE
8
BLACK
6
CONTINUOUS
10
193.1
20
-38.1601
11
193.095
21
-38.1596
0
LINE
8
BLACK
6
CONTINUOUS
10
193.095
20
-38.1596
11
191.105
21
-38.1596
0
LINE
8
BLACK
6
CONTINUOUS
10
191.105
20
-38.1596
11
191.1
21
-38.1601
0
LINE
8
BLACK
6
CONTINUOUS
10
191.2
20
-37.9596
11
193
21
-37.9596
0
LINE
8
BLACK
6
CONTINUOUS
10
193
20
-37.9596
11
193
21
-26.8
0
LINE
8
BLACK
6
CONTINUOUS
10
193
20
-26.8
11
191.2
21
-26.8
0
LINE
8
BLACK
6
CONTINUOUS
10
191.2
20
-26.8
11
191.2
21
-37.9596
  0
ENDSEC
  0
EOF
