0
SECTION
2
HEADER
9
$INSUNITS
70
4
9
$ACADVER
1
AC1014
9
$HANDSEED
5
FFFF
0
ENDSEC
0
SECTION
2
TABLES
0
TABLE
2
VPORT
5
8
100
AcDbSymbolTable
0
ENDTAB
0
TABLE
2
LTYPE
5
5
100
AcDbSymbolTable
0
LTYPE
5
14
100
AcDbSymbolTableRecord
100
AcDbLinetypeTableRecord
2
BYBLOCK
70
0
0
LTYPE
5
15
100
AcDbSymbolTableRecord
100
AcDbLinetypeTableRecord
2
BYLAYER
70
0
0
ENDTAB
0
TABLE
2
LAYER
5
2
100
AcDbSymbolTable
70
2
0
LAYER
5
50
100
AcDbSymbolTableRecord
100
AcDbLayerTableRecord
2
0
70
0
6
CONTINUOUS
0
ENDTAB
0
TABLE
2
STYLE
5
3
100
AcDbSymbolTable
70
1
0
STYLE
5
11
100
AcDbSymbolTableRecord
100
AcDbTextStyleTableRecord
2
STANDARD
70
0
0
ENDTAB
0
TABLE
2
VIEW
5
6
100
AcDbSymbolTable
70
0
0
ENDTAB
0
TABLE
2
UCS
5
7
100
AcDbSymbolTable
70
0
0
ENDTAB
0
TABLE
2
APPID
5
9
100
AcDbSymbolTable
70
2
0
APPID
5
12
100
AcDbSymbolTableRecord
100
AcDbRegAppTableRecord
2
ACAD
70
0
0
ENDTAB
0
TABLE
2
DIMSTYLE
5
A
100
AcDbSymbolTable
70
1
0
ENDTAB
0
TABLE
2
BLOCK_RECORD
5
1
100
AcDbSymbolTable
70
1
0
BLOCK_RECORD
5
1F
100
AcDbSymbolTableRecord
100
AcDbBlockTableRecord
2
*MODEL_SPACE
0
BLOCK_RECORD
5
1B
100
AcDbSymbolTableRecord
100
AcDbBlockTableRecord
2
*PAPER_SPACE
0
ENDTAB
0
ENDSEC
0
SECTION
2
BLOCKS
0
BLOCK
5
20
100
AcDbEntity
100
AcDbBlockBegin
2
*MODEL_SPACE
0
ENDBLK
5
21
100
AcDbEntity
100
AcDbBlockEnd
0
BLOCK
5
1C
100
AcDbEntity
100
AcDbBlockBegin
2
*PAPER_SPACE
0
ENDBLK
5
1D
100
AcDbEntity
100
AcDbBlockEnd
0
ENDSEC
0
SECTION
2
ENTITIES
0
LWPOLYLINE
5
100
100
AcDbEntity
8
0
100
AcDbPolyline
90
50
70
1
43
0.0
10
-30.946376951866501
20
55.023371448778676
42
-0.110128899274132
10
-31.79598887107268
20
55.21280259155651
10
-125.8826268593951
20
99.363086494902547
42
0.16337368190316101
10
-127.14725011010441
20
99.508985269593566
10
-130.52733774905465
20
98.791991720220963
42
0.23321292300371851
10
-131.91728857760509
20
97.696983083718919
10
-147.60935872916133
20
64.81835161392155
42
0.1117426301570028
10
-147.80439653779152
20
63.957246546526036
10
-147.80587168568158
20
55.621382744920318
42
-0.41416173176473081
10
-149.80587165436532
20
53.621736672935953
10
-150.80587167002346
20
53.621736672935938
42
-0.41426539488110903
10
-152.8058716387072
20
55.622090600951573
10
-152.80349436247744
20
69.05576122048619
42
-0.11174263015700263
10
-152.31589984090195
20
71.208523888975094
10
-136.48639481487777
20
104.37511421602244
42
-0.41229541216895643
10
-129.84995961672834
20
106.74788887055001
10
-35.548818980949804
20
62.496949305723248
42
0.11012889927413276
10
-33.42478918293444
20
62.02337144877869
10
-19.381785178786402
20
62.02337144877869
42
-0.41368551235685636
10
-14.381793307718493
20
57.032387504160482
10
-14.302923739359922
20
13.294058049727706
42
-0.41474180963038665
10
-19.302915610427842
20
8.285041994345935
10
-130.67863175781952
20
8.2850419943459475
42
-0.4142135623730957
10
-132.67863175781952
20
10.285041994345946
10
-132.67863175781952
20
15.09504477319763
42
-0.4142135623730957
10
-130.67863175781952
20
17.095044773197632
10
-117.42480239046797
20
17.095044773197635
42
-0.19891271161881541
10
-116.01058695490056
20
16.509256462373948
10
-114.64216490048932
20
15.140830782873032
42
0.19891271161882138
10
-113.22794946492192
20
14.555042472049337
10
-99.644787991944725
20
14.555042472049323
42
-0.19891236737965859
10
-98.230574429571632
20
13.969256034422415
10
-96.100145793648323
20
11.838827398499108
42
0.19891236737965801
10
-94.685932231275245
20
11.2530409608722
10
-76.573706862321529
20
11.253040960872196
42
0.19105103369490509
10
-75.202977096195056
20
11.796641321949261
10
-74.199127273812792
20
12.741441633268868
42
-0.19105103369490231
10
-72.828397507686319
20
13.285041994345931
10
-58.056441796134251
20
13.285041994345931
42
0.20730681101903375
10
-56.597366815301982
20
13.917160347305771
10
-55.878052608335793
20
14.684429478383425
42
-0.20740524935760249
10
-54.418222585016068
20
15.316547688820972
10
-22.562789404031296
20
15.304521585210175
42
0.22421001664812512
10
-21.018173723641034
20
16.033107139349141
10
-19.76904132802073
20
17.549911167794651
42
0.17441899175677061
10
-19.312905217496365
20
18.824931893286099
10
-19.372467732289817
20
51.856238509879873
42
0.2165614060870337
10
-20.059839747583162
20
53.361610652838458
10
-21.405708491760414
20
54.532350013889975
42
0.18091613440862167
10
-22.718333224894248
20
55.02337144877869
0
CIRCLE
5
101
100
AcDbEntity
8
0
100
AcDbCircle
10
-123.17863175781953
20
12.690043383771791
30
0
40
1.7000000000000002
0
CIRCLE
5
102
100
AcDbEntity
8
0
100
AcDbCircle
10
-26.681241033915313
20
58.523371448778683
30
0
40
1.7000000000000002
0
CIRCLE
5
103
100
AcDbEntity
8
0
100
AcDbCircle
10
-26.696235155475343
20
11.795562021624127
30
0
40
1.7000000000000002
0
CIRCLE
5
104
100
AcDbEntity
8
0
100
AcDbCircle
10
-142.80702766188125
20
83.006130649199179
30
0
40
1.7000000000000002
0
ENDSEC
0
SECTION
2
OBJECTS
0
DICTIONARY
5
C
100
AcDbDictionary
3
ACAD_GROUP
350
D
3
ACAD_MLINESTYLE
350
17
0
DICTIONARY
5
D
100
AcDbDictionary
0
DICTIONARY
5
1A
330
C
100
AcDbDictionary
0
DICTIONARY
5
17
100
AcDbDictionary
0
ENDSEC
0
EOF
