0
SECTION
2
HEADER
9
$INSUNITS
70
4
9
$ACADVER
1
AC1014
9
$HANDSEED
5
FFFF
0
ENDSEC
0
SECTION
2
TABLES
0
TABLE
2
VPORT
5
8
100
AcDbSymbolTable
0
ENDTAB
0
TABLE
2
LTYPE
5
5
100
AcDbSymbolTable
0
LTYPE
5
14
100
AcDbSymbolTableRecord
100
AcDbLinetypeTableRecord
2
BYBLOCK
70
0
0
LTYPE
5
15
100
AcDbSymbolTableRecord
100
AcDbLinetypeTableRecord
2
BYLAYER
70
0
0
ENDTAB
0
TABLE
2
LAYER
5
2
100
AcDbSymbolTable
70
2
0
LAYER
5
50
100
AcDbSymbolTableRecord
100
AcDbLayerTableRecord
2
0
70
0
6
CONTINUOUS
0
ENDTAB
0
TABLE
2
STYLE
5
3
100
AcDbSymbolTable
70
1
0
STYLE
5
11
100
AcDbSymbolTableRecord
100
AcDbTextStyleTableRecord
2
STANDARD
70
0
0
ENDTAB
0
TABLE
2
VIEW
5
6
100
AcDbSymbolTable
70
0
0
ENDTAB
0
TABLE
2
UCS
5
7
100
AcDbSymbolTable
70
0
0
ENDTAB
0
TABLE
2
APPID
5
9
100
AcDbSymbolTable
70
2
0
APPID
5
12
100
AcDbSymbolTableRecord
100
AcDbRegAppTableRecord
2
ACAD
70
0
0
ENDTAB
0
TABLE
2
DIMSTYLE
5
A
100
AcDbSymbolTable
70
1
0
ENDTAB
0
TABLE
2
BLOCK_RECORD
5
1
100
AcDbSymbolTable
70
1
0
BLOCK_RECORD
5
1F
100
AcDbSymbolTableRecord
100
AcDbBlockTableRecord
2
*MODEL_SPACE
0
BLOCK_RECORD
5
1B
100
AcDbSymbolTableRecord
100
AcDbBlockTableRecord
2
*PAPER_SPACE
0
ENDTAB
0
ENDSEC
0
SECTION
2
BLOCKS
0
BLOCK
5
20
100
AcDbEntity
100
AcDbBlockBegin
2
*MODEL_SPACE
0
ENDBLK
5
21
100
AcDbEntity
100
AcDbBlockEnd
0
BLOCK
5
1C
100
AcDbEntity
100
AcDbBlockBegin
2
*PAPER_SPACE
0
ENDBLK
5
1D
100
AcDbEntity
100
AcDbBlockEnd
0
ENDSEC
0
SECTION
2
ENTITIES
0
CIRCLE
5
100
100
AcDbEntity
8
0
100
AcDbCircle
10
-142.80702766188125
20
83.006130649199179
30
0
40
1.1000000000000001
0
CIRCLE
5
101
100
AcDbEntity
8
0
100
AcDbCircle
10
-26.696235155475343
20
11.795562021624127
30
0
40
1.1000000000000001
0
CIRCLE
5
102
100
AcDbEntity
8
0
100
AcDbCircle
10
-26.681241033915313
20
58.523371448778683
30
0
40
1.1000000000000001
0
CIRCLE
5
103
100
AcDbEntity
8
0
100
AcDbCircle
10
-123.17863175781953
20
12.690043383771791
30
0
40
1.1000000000000001
0
LWPOLYLINE
5
104
100
AcDbEntity
8
0
100
AcDbPolyline
90
8
70
1
43
0.0
10
-110.43461746857542
20
37.156734371787643
10
-98.584617468575431
20
37.156734371787643
42
0.41421356237309503
10
-97.584617468575431
20
38.156734371787635
10
-97.584617468575431
20
50.006734371787644
42
0.41421356237309503
10
-98.584617468575431
20
51.006734371787637
10
-110.43461746857544
20
51.006734371787637
42
0.41421356237309503
10
-111.43461746857542
20
50.006734371787644
10
-111.43461746857541
20
38.156734371787643
42
0.41421356237309503
0
LWPOLYLINE
5
105
100
AcDbEntity
8
0
100
AcDbPolyline
90
8
70
1
43
0.0
10
-99.341543277061447
20
67.731824843347951
10
-88.596758572901408
20
62.734615455975046
42
0.41421356237309492
10
-87.268320252940811
20
63.219642908868458
10
-82.271110865567891
20
73.964427613028491
42
0.41421356237309848
10
-82.756138318461296
20
75.292865932989088
10
-93.500923022621379
20
80.290075320362092
42
0.41421356237309281
10
-94.829361342581947
20
79.805047867468645
10
-99.826570729954881
20
69.060263163308534
42
0.41421356237309631
0
LWPOLYLINE
5
106
100
AcDbEntity
8
0
100
AcDbPolyline
90
8
70
1
43
0.0
10
-117.50256392488537
20
73.065840904091999
10
-106.75778574367772
20
68.068617491371285
42
0.41421356237309737
10
-105.42934679060359
20
68.553643210230945
10
-100.43212337788289
20
79.298421391438595
42
0.41421356237309614
10
-100.91714909674253
20
80.626860344512735
10
-111.6619272779502
20
85.624083757233421
42
0.41421356237309503
10
-112.99036623102432
20
85.139058038373761
10
-117.98758964374501
20
74.394279857166111
42
0.4142135623730927
0
LWPOLYLINE
5
107
100
AcDbEntity
8
0
100
AcDbPolyline
90
8
70
1
43
0.0
10
-133.37756739957783
20
83.47982512352111
10
-122.63277702406793
20
78.482627930458818
42
0.41421356237309742
10
-121.30433925456815
20
78.967656891002932
10
-116.30714206150589
20
89.712447266512811
42
0.41421356237309725
10
-116.79217102205
20
91.040885036012611
10
-127.53696139755988
20
96.03808222907486
42
0.41421356237309503
10
-128.86539916705965
20
95.553053268530746
10
-133.86259636012193
20
84.808262893020881
42
0.41421356237309503
0
LWPOLYLINE
5
108
100
AcDbEntity
8
0
100
AcDbPolyline
90
8
70
1
43
0.0
10
-91.766841261512127
20
33.981731831787641
10
-79.916841261512133
20
33.981731831787641
42
0.41421356237309503
10
-78.916841261512133
20
34.981731831787641
10
-78.916841261512133
20
46.831731831787657
42
0.41421356237309503
10
-79.916841261512133
20
47.83173183178765
10
-91.766841261512141
20
47.83173183178765
42
0.41421356237309503
10
-92.766841261512127
20
46.831731831787657
10
-92.766841261512113
20
34.981731831787641
42
0.41421356237309503
0
LWPOLYLINE
5
109
100
AcDbEntity
8
0
100
AcDbPolyline
90
8
70
1
43
0.0
10
-110.43461746857542
20
18.106720477529148
10
-98.584617468575445
20
18.106720477529148
42
0.41421356237309503
10
-97.584617468575459
20
19.106720477529148
10
-97.584617468575473
20
30.956720477529139
42
0.41421356237309503
10
-98.584617468575459
20
31.956720477529142
10
-110.43461746857544
20
31.956720477529142
42
0.41421356237309503
10
-111.43461746857542
20
30.956720477529139
10
-111.43461746857541
20
19.106720477529148
42
0.41421356237309503
0
LWPOLYLINE
5
110
100
AcDbEntity
8
0
100
AcDbPolyline
90
8
70
1
43
0.0
10
-129.1036317578195
20
20.646722105806681
10
-117.25363175781952
20
20.646722105806681
42
0.41421356237309503
10
-116.25363175781953
20
21.646722105806681
10
-116.25363175781955
20
33.496722105806683
42
0.41421356237309503
10
-117.25363175781953
20
34.496722105806683
10
-129.1036317578195
20
34.496722105806683
42
0.41421356237309503
10
-130.1036317578195
20
33.496722105806683
10
-130.1036317578195
20
21.646722105806685
42
0.41421356237309503
0
LWPOLYLINE
5
111
100
AcDbEntity
8
0
100
AcDbPolyline
90
8
70
1
43
0.0
10
-129.10363175781953
20
39.696736672935955
10
-117.25363175781956
20
39.696736672935955
42
0.41421356237309503
10
-116.25363175781956
20
40.696736672935955
10
-116.25363175781958
20
52.54673667293595
42
0.41421356237309503
10
-117.25363175781958
20
53.54673667293595
10
-129.10363175781953
20
53.54673667293595
42
0.41421356237309503
10
-130.10363175781953
20
52.54673667293595
10
-130.10363175781953
20
40.696736672935955
42
0.41421356237309503
0
LWPOLYLINE
5
112
100
AcDbEntity
8
0
100
AcDbPolyline
90
8
70
1
43
0.0
10
-91.766841261512127
20
14.931717937529143
10
-79.916841261512147
20
14.931717937529143
42
0.41421356237309503
10
-78.916841261512147
20
15.931717937529143
10
-78.916841261512147
20
27.781717937529141
42
0.41421356237309503
10
-79.916841261512147
20
28.781717937529141
10
-91.766841261512141
20
28.781717937529145
42
0.41421356237309503
10
-92.766841261512127
20
27.781717937529145
10
-92.766841261512113
20
15.931717937529143
42
0.41421356237309503
0
LWPOLYLINE
5
113
100
AcDbEntity
8
0
100
AcDbPolyline
90
8
70
1
43
0.0
10
-73.224821906220711
20
35.88673523982574
10
-61.374821906220717
20
35.88673523982574
42
0.41421356237309503
10
-60.374821906220717
20
36.88673523982574
10
-60.374821906220717
20
48.736735239825762
42
0.41421356237309503
10
-61.374821906220717
20
49.736735239825762
10
-73.224821906220711
20
49.736735239825762
42
0.41421356237309503
10
-74.224821906220711
20
48.736735239825762
10
-74.224821906220711
20
36.88673523982574
42
0.41421356237309503
0
LWPOLYLINE
5
114
100
AcDbEntity
8
0
100
AcDbPolyline
90
8
70
1
43
0.0
10
-54.555808962718146
20
37.918736273299501
10
-42.705808962718137
20
37.918736273299501
42
0.41421356237309503
10
-41.705808962718145
20
38.918736273299501
10
-41.705808962718145
20
50.76873627329951
42
0.41421356237309503
10
-42.705808962718137
20
51.768736273299503
10
-54.555808962718146
20
51.768736273299503
42
0.41421356237309503
10
-55.555808962718139
20
50.76873627329951
10
-55.555808962718139
20
38.918736273299501
42
0.41421356237309503
0
LWPOLYLINE
5
115
100
AcDbEntity
8
0
100
AcDbPolyline
90
8
70
1
43
0.0
10
-73.224821906220711
20
16.836718654084251
10
-61.374821906220696
20
16.836718654084251
42
0.41421356237309503
10
-60.374821906220703
20
17.836718654084255
10
-60.374821906220703
20
29.68671865408426
42
0.41421356237309503
10
-61.374821906220696
20
30.68671865408426
10
-73.224821906220711
20
30.686718654084263
42
0.41421356237309503
10
-74.224821906220711
20
29.686718654084263
10
-74.224821906220711
20
17.836718654084255
42
0.41421356237309503
0
LWPOLYLINE
5
116
100
AcDbEntity
8
0
100
AcDbPolyline
90
8
70
1
43
0.0
10
-54.555808962718118
20
18.868720360428735
10
-42.705808962718123
20
18.868720360428735
42
0.41421356237309503
10
-41.705808962718123
20
19.868720360428739
10
-41.705808962718123
20
31.718720360428737
42
0.41421356237309503
10
-42.705808962718123
20
32.718720360428733
10
-54.555808962718118
20
32.71872036042874
42
0.41421356237309503
10
-55.555808962718118
20
31.71872036042874
10
-55.555808962718118
20
19.868720360428739
42
0.41421356237309503
0
LWPOLYLINE
5
117
100
AcDbEntity
8
0
100
AcDbPolyline
90
8
70
1
43
0.0
10
-35.886793327732569
20
37.537735322543561
10
-24.036793327732553
20
37.537735322543561
42
0.41421356237309503
10
-23.036793327732553
20
38.537735322543554
10
-23.036793327732553
20
50.38773532254357
42
0.41421356237309503
10
-24.036793327732553
20
51.387735322543563
10
-35.886793327732569
20
51.387735322543563
42
0.41421356237309503
10
-36.886793327732569
20
50.38773532254357
10
-36.886793327732569
20
38.537735322543561
42
0.41421356237309503
0
LWPOLYLINE
5
118
100
AcDbEntity
8
0
100
AcDbPolyline
90
8
70
1
43
0.0
10
-35.886793327732541
20
18.868720360428732
10
-24.036793327732543
20
18.868720360428732
42
0.41421356237309503
10
-23.036793327732539
20
19.868720360428732
10
-23.036793327732536
20
31.718720360428737
42
0.41421356237309503
10
-24.036793327732539
20
32.718720360428733
10
-35.886793327732541
20
32.71872036042874
42
0.41421356237309503
10
-36.886793327732541
20
31.71872036042874
10
-36.886793327732541
20
19.868720360428732
42
0.41421356237309503
0
LWPOLYLINE
5
119
100
AcDbEntity
8
0
100
AcDbPolyline
90
16
70
1
43
0.0
10
-130.6036317578195
20
8.2850419943459475
42
-0.4142135623730957
10
-132.6036317578195
20
10.28504199434594
10
-132.60363175781953
20
51.546736672935943
42
0.41421356237309503
10
-134.60363175781953
20
53.54673667293595
10
-150.80588494232424
20
53.546736672935936
42
-0.41426539488109992
10
-152.80588491100798
20
55.547090600951577
10
-152.80349436247744
20
69.05576122048619
42
-0.11174263015700263
10
-152.31589984090195
20
71.208523888975094
10
-136.48639481487777
20
104.37511421602244
42
-0.41229541216895643
10
-129.84995961672834
20
106.74788887055001
10
-35.548818980949804
20
62.496949305723248
42
0.11012889927413276
10
-33.42478918293444
20
62.02337144877869
10
-19.381785178786402
20
62.02337144877869
42
-0.41368551235685636
10
-14.381793307718493
20
57.032387504160482
10
-14.302923739359922
20
13.294058049727706
42
-0.41474180963038665
10
-19.302915610427842
20
8.285041994345935
0
ENDSEC
0
SECTION
2
OBJECTS
0
DICTIONARY
5
C
100
AcDbDictionary
3
ACAD_GROUP
350
D
3
ACAD_MLINESTYLE
350
17
0
DICTIONARY
5
D
100
AcDbDictionary
0
DICTIONARY
5
1A
330
C
100
AcDbDictionary
0
DICTIONARY
5
17
100
AcDbDictionary
0
ENDSEC
0
EOF
